<?xml version="1.0" encoding="UTF-8" standalone="no"?>
<svg
   xmlns:ns0="http://www.iki.fi/pav/software/textext/"
   xmlns:dc="http://purl.org/dc/elements/1.1/"
   xmlns:cc="http://creativecommons.org/ns#"
   xmlns:rdf="http://www.w3.org/1999/02/22-rdf-syntax-ns#"
   xmlns:svg="http://www.w3.org/2000/svg"
   xmlns="http://www.w3.org/2000/svg"
   xmlns:sodipodi="http://sodipodi.sourceforge.net/DTD/sodipodi-0.dtd"
   xmlns:inkscape="http://www.inkscape.org/namespaces/inkscape"
   width="210mm"
   height="297mm"
   viewBox="0 0 793.7008056641 1122.51965332"
   version="1.1"
   id="svg2"
   inkscape:version="1.0.1 (1.0.1+r73)"
   sodipodi:docname="LatchTypes.svg">
  <sodipodi:namedview
     pagecolor="#ffffff"
     bordercolor="#666666"
     borderopacity="1"
     objecttolerance="10"
     gridtolerance="10"
     guidetolerance="10"
     inkscape:pageopacity="0"
     inkscape:pageshadow="2"
     inkscape:window-width="1920"
     inkscape:window-height="1056"
     id="namedview4"
     showgrid="true"
     inkscape:zoom="2.9254728"
     inkscape:cx="166.37242"
     inkscape:cy="289.66089"
     inkscape:window-x="0"
     inkscape:window-y="0"
     inkscape:window-maximized="1"
     inkscape:current-layer="svg2"
     inkscape:snap-text-baseline="true"
     inkscape:document-rotation="0">
    <inkscape:grid
       id="grid5500"
       type="xygrid" />
  </sodipodi:namedview>
  <metadata
     id="metadata8">
    <rdf:RDF>
      <cc:Work
         rdf:about="">
        <dc:format>image/svg+xml</dc:format>
        <dc:type
           rdf:resource="http://purl.org/dc/dcmitype/StillImage" />
        <dc:title></dc:title>
      </cc:Work>
    </rdf:RDF>
  </metadata>
  <defs
     id="defs6" />
  <text
     xml:space="preserve"
     style="font-style:normal;font-variant:normal;font-weight:normal;font-stretch:normal;font-size:6.66667px;line-height:20px;font-family:Verdana;-inkscape-font-specification:Verdana;text-align:center;letter-spacing:0px;word-spacing:0px;writing-mode:lr-tb;text-anchor:middle;fill:#000000;fill-opacity:1;stroke:none;stroke-width:1px;stroke-linecap:butt;stroke-linejoin:miter;stroke-opacity:1"
     x="65"
     y="245"
     id="text9761"
     inkscape:export-xdpi="347.51132"
     inkscape:export-ydpi="347.51132"><tspan
       sodipodi:role="line"
       id="tspan9759"
       x="65"
       y="245">SR positive (NOR)</tspan></text>
  <text
     xml:space="preserve"
     style="font-style:normal;font-variant:normal;font-weight:normal;font-stretch:normal;font-size:6.66667px;line-height:20px;font-family:Verdana;-inkscape-font-specification:Verdana;text-align:center;letter-spacing:0px;word-spacing:0px;writing-mode:lr-tb;text-anchor:middle;fill:#000000;fill-opacity:1;stroke:none;stroke-width:1px;stroke-linecap:butt;stroke-linejoin:miter;stroke-opacity:1"
     x="145"
     y="245"
     id="text9761-3"
     inkscape:export-xdpi="347.51132"
     inkscape:export-ydpi="347.51132"><tspan
       sodipodi:role="line"
       id="tspan9759-6"
       x="145"
       y="245">SR negative (NAND)</tspan></text>
  <text
     xml:space="preserve"
     style="font-style:normal;font-variant:normal;font-weight:normal;font-stretch:normal;font-size:6.66667px;line-height:20px;font-family:Verdana;-inkscape-font-specification:Verdana;text-align:center;letter-spacing:0px;word-spacing:0px;writing-mode:lr-tb;text-anchor:middle;fill:#000000;fill-opacity:1;stroke:none;stroke-width:1px;stroke-linecap:butt;stroke-linejoin:miter;stroke-opacity:1"
     x="225"
     y="245"
     id="text9761-3-7"
     inkscape:export-xdpi="347.51132"
     inkscape:export-ydpi="347.51132"><tspan
       sodipodi:role="line"
       id="tspan9759-6-5"
       x="225"
       y="245">JK</tspan></text>
  <text
     xml:space="preserve"
     style="font-style:normal;font-variant:normal;font-weight:normal;font-stretch:normal;font-size:6.66667px;line-height:20px;font-family:Verdana;-inkscape-font-specification:Verdana;text-align:center;letter-spacing:0px;word-spacing:0px;writing-mode:lr-tb;text-anchor:middle;fill:#000000;fill-opacity:1;stroke:none;stroke-width:1px;stroke-linecap:butt;stroke-linejoin:miter;stroke-opacity:1"
     x="100"
     y="325"
     id="text9761-3-7-3"
     inkscape:export-xdpi="347.51132"
     inkscape:export-ydpi="347.51132"><tspan
       sodipodi:role="line"
       id="tspan9759-6-5-5"
       x="100"
       y="325">D</tspan></text>
  <text
     xml:space="preserve"
     style="font-style:normal;font-variant:normal;font-weight:normal;font-stretch:normal;font-size:6.66667px;line-height:20px;font-family:Verdana;-inkscape-font-specification:Verdana;text-align:center;letter-spacing:0px;word-spacing:0px;writing-mode:lr-tb;text-anchor:middle;fill:#000000;fill-opacity:1;stroke:none;stroke-width:1px;stroke-linecap:butt;stroke-linejoin:miter;stroke-opacity:1"
     x="180"
     y="325"
     id="text9761-3-7-6"
     inkscape:export-xdpi="347.51132"
     inkscape:export-ydpi="347.51132"><tspan
       sodipodi:role="line"
       id="tspan9759-6-5-2"
       x="180"
       y="325">T</tspan></text>
  <g
     inkscape:label="Latch"
     id="g1434"
     transform="translate(-25,-15)"
     inkscape:export-xdpi="347.51132"
     inkscape:export-ydpi="347.51132">
    <rect
       height="50"
       rx="None"
       ry="None"
       style="fill:none;stroke:#000000;stroke-width:1.5;stroke-linecap:round;stroke-linejoin:round;stroke-dasharray:none"
       width="40"
       x="150"
       y="265"
       inkscape:label="rectangle"
       id="rect1346" />
    <g
       inkscape:label="Q"
       id="g1366">
      <g
         inkscape:label="Q"
         transform="rotate(180,190,275)"
         id="g1350">
        <path
           d="M 190,275 H 180"
           style="fill:none;stroke:#000000;stroke-width:1;stroke-linecap:round;stroke-linejoin:round;stroke-dasharray:none"
           inkscape:label="Q"
           id="path1348" />
      </g>
      <g
         inkscape:label="Layer 1"
         inkscape:groupmode="layer"
         id="layer1"
         transform="matrix(0.663596,0,0,0.663596,-82.486945,-96.613639)">
        <g
           transform="matrix(1.33333,0,0,1.33333,395.406,554.021)"
           ns0:version="1.1.0"
           ns0:texconverter="pdflatex"
           ns0:pdfconverter="inkscape"
           ns0:text=" $Q$"
           ns0:preamble="/home/fernando/.config/inkscape/extensions/logicGates/logicGatesPreamble.tex"
           ns0:scale="1.0"
           ns0:alignment="middle center"
           ns0:inkscapeversion="1.0.1"
           ns0:jacobian_sqrt="1.33333"
           id="g1363">
          <defs
             id="id-aa956b89-0376-42ba-91b0-97bbdd556797">
            <g
               id="id-c6a12b38-6349-4a20-bef4-facc0a612e55">
              <symbol
                 overflow="visible"
                 id="id-bac504a9-5cfb-4846-9237-69ccd54ad04c">
                <path
                   style="stroke:none"
                   d=""
                   id="id-e3f426b5-b438-4694-a575-940e1a8d3133" />
              </symbol>
              <symbol
                 overflow="visible"
                 id="id-e3629ef4-827b-4b1a-904c-7acc41a8f469">
                <path
                   style="stroke:none"
                   d="M 4.359375,-0.0625 C 5.90625,-0.640625 7.375,-2.421875 7.375,-4.34375 c 0,-1.609375 -1.0625,-2.6875 -2.546875,-2.6875 -2.140625,0 -4.34375,2.265625 -4.34375,4.59375 0,1.65625 1.125,2.65625 2.5625,2.65625 0.25,0 0.578125,-0.046875 0.96875,-0.15625 -0.03125,0.625 -0.03125,0.640625 -0.03125,0.78125 0,0.3125 0,1.09375 0.828125,1.09375 1.171875,0 1.65625,-1.828125 1.65625,-1.9375 0,-0.0625 -0.0625,-0.09375 -0.109375,-0.09375 -0.078125,0 -0.09375,0.046875 -0.125,0.109375 C 6,0.71875 5.421875,0.96875 5.078125,0.96875 c -0.46875,0 -0.609375,-0.265625 -0.71875,-1.03125 z m -1.875,-0.078125 c -0.78125,-0.3125 -1.125,-1.078125 -1.125,-1.984375 0,-0.6875 0.265625,-2.109375 1.015625,-3.171875 C 3.109375,-6.3125 4.046875,-6.78125 4.78125,-6.78125 5.765625,-6.78125 6.5,-6 6.5,-4.671875 c 0,1 -0.515625,3.34375 -2.1875,4.265625 -0.046875,-0.34375 -0.140625,-1.0625 -0.875,-1.0625 -0.53125,0 -1.015625,0.484375 -1.015625,1.015625 0,0.1875 0.0625,0.296875 0.0625,0.3125 z M 3.09375,-0.03125 c -0.140625,0 -0.453125,0 -0.453125,-0.421875 0,-0.40625 0.375,-0.796875 0.796875,-0.796875 0.421875,0 0.609375,0.234375 0.609375,0.84375 0,0.140625 -0.015625,0.15625 -0.109375,0.203125 C 3.671875,-0.09375 3.375,-0.03125 3.09375,-0.03125 Z m 0,0"
                   id="id-c7a309a0-eba7-48da-b4b4-9759c0700992" />
              </symbol>
            </g>
          </defs>
          <g
             id="id-20514620-65ec-4661-8e6b-bc8192ac7255"
             transform="translate(-149.196,-127.734)">
            <g
               style="fill:#000000;fill-opacity:1"
               id="id-4488e8fe-3985-4fb0-a15f-5fad3624f755">
              <g
                 transform="translate(148.712,134.765)"
                 id="g1359">
                <path
                   style="stroke:none"
                   d="M 4.359375,-0.0625 C 5.90625,-0.640625 7.375,-2.421875 7.375,-4.34375 c 0,-1.609375 -1.0625,-2.6875 -2.546875,-2.6875 -2.140625,0 -4.34375,2.265625 -4.34375,4.59375 0,1.65625 1.125,2.65625 2.5625,2.65625 0.25,0 0.578125,-0.046875 0.96875,-0.15625 -0.03125,0.625 -0.03125,0.640625 -0.03125,0.78125 0,0.3125 0,1.09375 0.828125,1.09375 1.171875,0 1.65625,-1.828125 1.65625,-1.9375 0,-0.0625 -0.0625,-0.09375 -0.109375,-0.09375 -0.078125,0 -0.09375,0.046875 -0.125,0.109375 C 6,0.71875 5.421875,0.96875 5.078125,0.96875 c -0.46875,0 -0.609375,-0.265625 -0.71875,-1.03125 z m -1.875,-0.078125 c -0.78125,-0.3125 -1.125,-1.078125 -1.125,-1.984375 0,-0.6875 0.265625,-2.109375 1.015625,-3.171875 C 3.109375,-6.3125 4.046875,-6.78125 4.78125,-6.78125 5.765625,-6.78125 6.5,-6 6.5,-4.671875 c 0,1 -0.515625,3.34375 -2.1875,4.265625 -0.046875,-0.34375 -0.140625,-1.0625 -0.875,-1.0625 -0.53125,0 -1.015625,0.484375 -1.015625,1.015625 0,0.1875 0.0625,0.296875 0.0625,0.3125 z M 3.09375,-0.03125 c -0.140625,0 -0.453125,0 -0.453125,-0.421875 0,-0.40625 0.375,-0.796875 0.796875,-0.796875 0.421875,0 0.609375,0.234375 0.609375,0.84375 0,0.140625 -0.015625,0.15625 -0.109375,0.203125 C 3.671875,-0.09375 3.375,-0.03125 3.09375,-0.03125 Z m 0,0"
                   id="id-32b828d0-9cb6-4562-8cc7-9ed5f939a783" />
              </g>
            </g>
          </g>
        </g>
      </g>
    </g>
    <g
       inkscape:label="notQ"
       id="g1388">
      <g
         inkscape:label="notQ"
         transform="rotate(180,190,305)"
         id="g1370">
        <path
           d="M 190,305 H 180"
           style="fill:none;stroke:#000000;stroke-width:1;stroke-linecap:round;stroke-linejoin:round;stroke-dasharray:none"
           inkscape:label="notQ"
           id="path1368" />
      </g>
      <g
         inkscape:label="Layer 1"
         inkscape:groupmode="layer"
         id="g1386"
         transform="matrix(0.663596,0,0,0.663596,-82.923672,-66.613527)">
        <g
           transform="matrix(1.33333,0,0,1.33333,394.747,552.975)"
           ns0:version="1.1.0"
           ns0:texconverter="pdflatex"
           ns0:pdfconverter="inkscape"
           ns0:text=" $\\NOT{Q}$"
           ns0:preamble="/home/fernando/.config/inkscape/extensions/logicGates/logicGatesPreamble.tex"
           ns0:scale="1.0"
           ns0:alignment="middle center"
           ns0:inkscapeversion="1.0.1"
           ns0:jacobian_sqrt="1.33333"
           id="g1384">
          <defs
             id="id-93a11184-7fbf-4ace-8ab8-358317a03e2f">
            <g
               id="id-88f8dc98-39c4-44b2-aed5-eda61fc763db">
              <symbol
                 overflow="visible"
                 id="id-b06b8c5f-800e-4834-936c-cc8356ee9902">
                <path
                   style="stroke:none"
                   d=""
                   id="id-3406fbfe-e37b-44f3-9c6a-d597bd477a17" />
              </symbol>
              <symbol
                 overflow="visible"
                 id="id-867fa5f1-9a14-45c5-8c8d-27d4b5c7935f">
                <path
                   style="stroke:none"
                   d="M 4.359375,-0.0625 C 5.90625,-0.640625 7.375,-2.421875 7.375,-4.34375 c 0,-1.609375 -1.0625,-2.6875 -2.546875,-2.6875 -2.140625,0 -4.34375,2.265625 -4.34375,4.59375 0,1.65625 1.125,2.65625 2.5625,2.65625 0.25,0 0.578125,-0.046875 0.96875,-0.15625 -0.03125,0.625 -0.03125,0.640625 -0.03125,0.78125 0,0.3125 0,1.09375 0.828125,1.09375 1.171875,0 1.65625,-1.828125 1.65625,-1.9375 0,-0.0625 -0.0625,-0.09375 -0.109375,-0.09375 -0.078125,0 -0.09375,0.046875 -0.125,0.109375 C 6,0.71875 5.421875,0.96875 5.078125,0.96875 c -0.46875,0 -0.609375,-0.265625 -0.71875,-1.03125 z m -1.875,-0.078125 c -0.78125,-0.3125 -1.125,-1.078125 -1.125,-1.984375 0,-0.6875 0.265625,-2.109375 1.015625,-3.171875 C 3.109375,-6.3125 4.046875,-6.78125 4.78125,-6.78125 5.765625,-6.78125 6.5,-6 6.5,-4.671875 c 0,1 -0.515625,3.34375 -2.1875,4.265625 -0.046875,-0.34375 -0.140625,-1.0625 -0.875,-1.0625 -0.53125,0 -1.015625,0.484375 -1.015625,1.015625 0,0.1875 0.0625,0.296875 0.0625,0.3125 z M 3.09375,-0.03125 c -0.140625,0 -0.453125,0 -0.453125,-0.421875 0,-0.40625 0.375,-0.796875 0.796875,-0.796875 0.421875,0 0.609375,0.234375 0.609375,0.84375 0,0.140625 -0.015625,0.15625 -0.109375,0.203125 C 3.671875,-0.09375 3.375,-0.03125 3.09375,-0.03125 Z m 0,0"
                   id="id-fd8663ea-f6a2-47b3-b247-4ce3513f5b4b" />
              </symbol>
            </g>
          </defs>
          <g
             id="id-5b6800ba-738a-42a3-adbd-3a714e1d2cca"
             transform="translate(-148.711,-126.364)">
            <path
               style="fill:none;stroke:#000000;stroke-width:0.398;stroke-linecap:butt;stroke-linejoin:miter;stroke-miterlimit:10;stroke-opacity:1"
               d="M -0.0010625,-5e-4 H 7.877844"
               transform="matrix(1,0,0,-1,148.712,126.562)"
               id="id-4fc0e293-73c6-4775-ad35-28872526244f" />
            <g
               style="fill:#000000;fill-opacity:1"
               id="id-56a61b23-f1e9-4fc4-945d-7fba6d868ae2">
              <g
                 transform="translate(148.712,134.765)"
                 id="g1380">
                <path
                   style="stroke:none"
                   d="M 4.359375,-0.0625 C 5.90625,-0.640625 7.375,-2.421875 7.375,-4.34375 c 0,-1.609375 -1.0625,-2.6875 -2.546875,-2.6875 -2.140625,0 -4.34375,2.265625 -4.34375,4.59375 0,1.65625 1.125,2.65625 2.5625,2.65625 0.25,0 0.578125,-0.046875 0.96875,-0.15625 -0.03125,0.625 -0.03125,0.640625 -0.03125,0.78125 0,0.3125 0,1.09375 0.828125,1.09375 1.171875,0 1.65625,-1.828125 1.65625,-1.9375 0,-0.0625 -0.0625,-0.09375 -0.109375,-0.09375 -0.078125,0 -0.09375,0.046875 -0.125,0.109375 C 6,0.71875 5.421875,0.96875 5.078125,0.96875 c -0.46875,0 -0.609375,-0.265625 -0.71875,-1.03125 z m -1.875,-0.078125 c -0.78125,-0.3125 -1.125,-1.078125 -1.125,-1.984375 0,-0.6875 0.265625,-2.109375 1.015625,-3.171875 C 3.109375,-6.3125 4.046875,-6.78125 4.78125,-6.78125 5.765625,-6.78125 6.5,-6 6.5,-4.671875 c 0,1 -0.515625,3.34375 -2.1875,4.265625 -0.046875,-0.34375 -0.140625,-1.0625 -0.875,-1.0625 -0.53125,0 -1.015625,0.484375 -1.015625,1.015625 0,0.1875 0.0625,0.296875 0.0625,0.3125 z M 3.09375,-0.03125 c -0.140625,0 -0.453125,0 -0.453125,-0.421875 0,-0.40625 0.375,-0.796875 0.796875,-0.796875 0.421875,0 0.609375,0.234375 0.609375,0.84375 0,0.140625 -0.015625,0.15625 -0.109375,0.203125 C 3.671875,-0.09375 3.375,-0.03125 3.09375,-0.03125 Z m 0,0"
                   id="id-dd41c25d-3e5e-4123-b5aa-bf0afdf4d53d" />
              </g>
            </g>
          </g>
        </g>
      </g>
    </g>
    <g
       inkscape:label="input"
       id="g1410">
      <g
         inkscape:label="input"
         id="g1392">
        <path
           d="M 150,275 H 140"
           style="fill:none;stroke:#000000;stroke-width:1;stroke-linecap:round;stroke-linejoin:round;stroke-dasharray:none"
           inkscape:label="input"
           id="path1390" />
      </g>
      <g
         inkscape:label="Layer 1"
         inkscape:groupmode="layer"
         id="g1408"
         transform="matrix(0.663596,0,0,0.663596,-108.48136,-96.61364)">
        <g
           transform="matrix(1.33333,0,0,1.33333,395.544,554.121)"
           ns0:version="1.1.0"
           ns0:texconverter="pdflatex"
           ns0:pdfconverter="inkscape"
           ns0:text=" \\NOT{S}"
           ns0:preamble="/home/fernando/.config/inkscape/extensions/logicGates/logicGatesPreamble.tex"
           ns0:scale="1.0"
           ns0:alignment="middle center"
           ns0:inkscapeversion="1.0.1"
           ns0:jacobian_sqrt="1.33333"
           id="g1406">
          <defs
             id="id-a79cb65e-d755-4d49-bc66-6e3ebfbbfa5e">
            <g
               id="id-77320a87-f54b-4879-a5a8-079c3be013d9">
              <symbol
                 overflow="visible"
                 id="id-e76864ec-c629-4760-adf9-0762e774691f">
                <path
                   style="stroke:none"
                   d=""
                   id="id-c43239cd-689a-4631-b335-1ff8103b6f28" />
              </symbol>
              <symbol
                 overflow="visible"
                 id="id-f00aceb8-7c54-4333-9519-34e1d9311067">
                <path
                   style="stroke:none"
                   d="m 6.4375,-6.921875 c 0,-0.03125 -0.03125,-0.109375 -0.125,-0.109375 -0.046875,0 -0.046875,0.015625 -0.171875,0.15625 L 5.65625,-6.3125 c -0.25,-0.46875 -0.765625,-0.71875 -1.421875,-0.71875 -1.265625,0 -2.453125,1.15625 -2.453125,2.359375 0,0.796875 0.515625,1.265625 1.03125,1.40625 l 1.0625,0.28125 c 0.375,0.09375 0.921875,0.25 0.921875,1.0625 0,0.890625 -0.8125,1.828125 -1.796875,1.828125 -0.640625,0 -1.75,-0.21875 -1.75,-1.453125 0,-0.234375 0.0625,-0.484375 0.0625,-0.53125 0.015625,-0.046875 0.015625,-0.0625 0.015625,-0.078125 0,-0.09375 -0.0625,-0.109375 -0.109375,-0.109375 -0.046875,0 -0.078125,0.015625 -0.109375,0.046875 -0.03125,0.03125 -0.59375,2.3125 -0.59375,2.34375 0,0.046875 0.046875,0.09375 0.109375,0.09375 0.046875,0 0.0625,-0.015625 0.1875,-0.15625 L 1.296875,-0.5 c 0.421875,0.578125 1.109375,0.71875 1.6875,0.71875 1.359375,0 2.53125,-1.328125 2.53125,-2.5625 0,-0.6875 -0.34375,-1.03125 -0.484375,-1.171875 C 4.796875,-3.734375 4.640625,-3.78125 3.765625,-4 3.53125,-4.0625 3.1875,-4.171875 3.09375,-4.1875 2.828125,-4.28125 2.484375,-4.5625 2.484375,-5.09375 c 0,-0.8125 0.796875,-1.65625 1.75,-1.65625 0.8125,0 1.421875,0.4375 1.421875,1.546875 0,0.3125 -0.03125,0.5 -0.03125,0.5625 0,0 0,0.09375 0.109375,0.09375 0.109375,0 0.125,-0.03125 0.15625,-0.203125 z m 0,0"
                   id="id-39a4654c-ee07-4031-8767-76b3be74b217" />
              </symbol>
            </g>
          </defs>
          <g
             id="id-10dde596-d163-42f7-b822-3d8cdc88c707"
             transform="translate(-148.711,-126.364)">
            <path
               style="fill:none;stroke:#000000;stroke-width:0.398;stroke-linecap:butt;stroke-linejoin:miter;stroke-miterlimit:10;stroke-opacity:1"
               d="M -0.0010625,-5e-4 H 6.682531"
               transform="matrix(1,0,0,-1,148.712,126.562)"
               id="id-7d4df7a4-af0e-4c06-b5cb-707a60a84bed" />
            <g
               style="fill:#000000;fill-opacity:1"
               id="id-b64c6712-65bd-4448-903b-03d8b2b22539">
              <g
                 transform="translate(148.712,134.765)"
                 id="g1402">
                <path
                   style="stroke:none"
                   d="m 6.4375,-6.921875 c 0,-0.03125 -0.03125,-0.109375 -0.125,-0.109375 -0.046875,0 -0.046875,0.015625 -0.171875,0.15625 L 5.65625,-6.3125 c -0.25,-0.46875 -0.765625,-0.71875 -1.421875,-0.71875 -1.265625,0 -2.453125,1.15625 -2.453125,2.359375 0,0.796875 0.515625,1.265625 1.03125,1.40625 l 1.0625,0.28125 c 0.375,0.09375 0.921875,0.25 0.921875,1.0625 0,0.890625 -0.8125,1.828125 -1.796875,1.828125 -0.640625,0 -1.75,-0.21875 -1.75,-1.453125 0,-0.234375 0.0625,-0.484375 0.0625,-0.53125 0.015625,-0.046875 0.015625,-0.0625 0.015625,-0.078125 0,-0.09375 -0.0625,-0.109375 -0.109375,-0.109375 -0.046875,0 -0.078125,0.015625 -0.109375,0.046875 -0.03125,0.03125 -0.59375,2.3125 -0.59375,2.34375 0,0.046875 0.046875,0.09375 0.109375,0.09375 0.046875,0 0.0625,-0.015625 0.1875,-0.15625 L 1.296875,-0.5 c 0.421875,0.578125 1.109375,0.71875 1.6875,0.71875 1.359375,0 2.53125,-1.328125 2.53125,-2.5625 0,-0.6875 -0.34375,-1.03125 -0.484375,-1.171875 C 4.796875,-3.734375 4.640625,-3.78125 3.765625,-4 3.53125,-4.0625 3.1875,-4.171875 3.09375,-4.1875 2.828125,-4.28125 2.484375,-4.5625 2.484375,-5.09375 c 0,-0.8125 0.796875,-1.65625 1.75,-1.65625 0.8125,0 1.421875,0.4375 1.421875,1.546875 0,0.3125 -0.03125,0.5 -0.03125,0.5625 0,0 0,0.09375 0.109375,0.09375 0.109375,0 0.125,-0.03125 0.15625,-0.203125 z m 0,0"
                   id="id-454a75f3-e84f-4f9b-b06e-54785c030236" />
              </g>
            </g>
          </g>
        </g>
      </g>
    </g>
    <g
       inkscape:label="input"
       id="g1432">
      <g
         inkscape:label="input"
         id="g1414">
        <path
           d="M 150,305 H 140"
           style="fill:none;stroke:#000000;stroke-width:1;stroke-linecap:round;stroke-linejoin:round;stroke-dasharray:none"
           inkscape:label="input"
           id="path1412" />
      </g>
      <g
         inkscape:label="Layer 1"
         inkscape:groupmode="layer"
         id="g1430"
         transform="matrix(0.663596,0,0,0.663596,-108.05799,-66.61364)">
        <g
           transform="matrix(1.33333,0,0,1.33333,394.906,554.121)"
           ns0:version="1.1.0"
           ns0:texconverter="pdflatex"
           ns0:pdfconverter="inkscape"
           ns0:text=" \\NOT{R}"
           ns0:preamble="/home/fernando/.config/inkscape/extensions/logicGates/logicGatesPreamble.tex"
           ns0:scale="1.0"
           ns0:alignment="middle center"
           ns0:inkscapeversion="1.0.1"
           ns0:jacobian_sqrt="1.33333"
           id="g1428">
          <defs
             id="id-7b02dd9e-bbb7-4dc1-b077-b2e081f87b4d">
            <g
               id="id-c3993533-c51b-4582-8a83-7a36ffa3d5f9">
              <symbol
                 overflow="visible"
                 id="id-eadb689f-1aef-47b8-a14a-576ca95039f4">
                <path
                   style="stroke:none"
                   d=""
                   id="id-8c5fa9ea-6f04-4b3f-9e9a-20b920c5f7b8" />
              </symbol>
              <symbol
                 overflow="visible"
                 id="id-b016d69a-3163-414d-a79d-6bcd23ffb44c">
                <path
                   style="stroke:none"
                   d="m 3.734375,-6.125 c 0.0625,-0.234375 0.09375,-0.328125 0.28125,-0.359375 C 4.109375,-6.5 4.421875,-6.5 4.625,-6.5 c 0.703125,0 1.8125,0 1.8125,0.984375 0,0.34375 -0.15625,1.03125 -0.546875,1.421875 -0.265625,0.25 -0.78125,0.578125 -1.6875,0.578125 H 3.09375 Z m 1.4375,2.734375 c 1.015625,-0.21875 2.1875,-0.921875 2.1875,-1.921875 0,-0.859375 -0.890625,-1.5 -2.203125,-1.5 H 2.328125 c -0.203125,0 -0.296875,0 -0.296875,0.203125 C 2.03125,-6.5 2.125,-6.5 2.3125,-6.5 c 0.015625,0 0.203125,0 0.375,0.015625 0.1875,0.03125 0.265625,0.03125 0.265625,0.171875 0,0.03125 0,0.0625 -0.03125,0.1875 l -1.34375,5.34375 C 1.484375,-0.390625 1.46875,-0.3125 0.671875,-0.3125 0.5,-0.3125 0.40625,-0.3125 0.40625,-0.109375 0.40625,0 0.53125,0 0.546875,0 c 0.28125,0 0.984375,-0.03125 1.25,-0.03125 0.28125,0 1,0.03125 1.28125,0.03125 0.078125,0 0.1875,0 0.1875,-0.203125 0,-0.109375 -0.078125,-0.109375 -0.28125,-0.109375 -0.359375,0 -0.640625,0 -0.640625,-0.171875 0,-0.0625 0.015625,-0.109375 0.03125,-0.171875 l 0.65625,-2.640625 h 1.1875 c 0.90625,0 1.078125,0.5625 1.078125,0.90625 0,0.140625 -0.078125,0.453125 -0.140625,0.6875 C 5.09375,-1.421875 5,-1.0625 5,-0.859375 5,0.21875 6.203125,0.21875 6.328125,0.21875 c 0.84375,0 1.203125,-1 1.203125,-1.140625 0,-0.125 -0.109375,-0.125 -0.125,-0.125 -0.09375,0 -0.109375,0.0625 -0.125,0.140625 C 7.03125,-0.171875 6.59375,0 6.375,0 6.046875,0 5.96875,-0.21875 5.96875,-0.609375 c 0,-0.3125 0.0625,-0.8125 0.109375,-1.140625 0.015625,-0.140625 0.03125,-0.328125 0.03125,-0.46875 0,-0.765625 -0.671875,-1.078125 -0.9375,-1.171875 z m 0,0"
                   id="id-40387045-ec66-4b9f-a36e-74fb3e050f5e" />
              </symbol>
            </g>
          </defs>
          <g
             id="id-4e6a164f-1846-44e7-81b9-abde3b382df2"
             transform="translate(-148.711,-126.364)">
            <path
               style="fill:none;stroke:#000000;stroke-width:0.398;stroke-linecap:butt;stroke-linejoin:miter;stroke-miterlimit:10;stroke-opacity:1"
               d="M -0.0010625,-5e-4 H 7.639563"
               transform="matrix(1,0,0,-1,148.712,126.562)"
               id="id-9652c5d7-3f02-4de6-89e1-567afe50b0bd" />
            <g
               style="fill:#000000;fill-opacity:1"
               id="id-b91eb029-ba2f-4b76-b0c1-f919791762ce">
              <g
                 transform="translate(148.712,134.765)"
                 id="g1424">
                <path
                   style="stroke:none"
                   d="m 3.734375,-6.125 c 0.0625,-0.234375 0.09375,-0.328125 0.28125,-0.359375 C 4.109375,-6.5 4.421875,-6.5 4.625,-6.5 c 0.703125,0 1.8125,0 1.8125,0.984375 0,0.34375 -0.15625,1.03125 -0.546875,1.421875 -0.265625,0.25 -0.78125,0.578125 -1.6875,0.578125 H 3.09375 Z m 1.4375,2.734375 c 1.015625,-0.21875 2.1875,-0.921875 2.1875,-1.921875 0,-0.859375 -0.890625,-1.5 -2.203125,-1.5 H 2.328125 c -0.203125,0 -0.296875,0 -0.296875,0.203125 C 2.03125,-6.5 2.125,-6.5 2.3125,-6.5 c 0.015625,0 0.203125,0 0.375,0.015625 0.1875,0.03125 0.265625,0.03125 0.265625,0.171875 0,0.03125 0,0.0625 -0.03125,0.1875 l -1.34375,5.34375 C 1.484375,-0.390625 1.46875,-0.3125 0.671875,-0.3125 0.5,-0.3125 0.40625,-0.3125 0.40625,-0.109375 0.40625,0 0.53125,0 0.546875,0 c 0.28125,0 0.984375,-0.03125 1.25,-0.03125 0.28125,0 1,0.03125 1.28125,0.03125 0.078125,0 0.1875,0 0.1875,-0.203125 0,-0.109375 -0.078125,-0.109375 -0.28125,-0.109375 -0.359375,0 -0.640625,0 -0.640625,-0.171875 0,-0.0625 0.015625,-0.109375 0.03125,-0.171875 l 0.65625,-2.640625 h 1.1875 c 0.90625,0 1.078125,0.5625 1.078125,0.90625 0,0.140625 -0.078125,0.453125 -0.140625,0.6875 C 5.09375,-1.421875 5,-1.0625 5,-0.859375 5,0.21875 6.203125,0.21875 6.328125,0.21875 c 0.84375,0 1.203125,-1 1.203125,-1.140625 0,-0.125 -0.109375,-0.125 -0.125,-0.125 -0.09375,0 -0.109375,0.0625 -0.125,0.140625 C 7.03125,-0.171875 6.59375,0 6.375,0 6.046875,0 5.96875,-0.21875 5.96875,-0.609375 c 0,-0.3125 0.0625,-0.8125 0.109375,-1.140625 0.015625,-0.140625 0.03125,-0.328125 0.03125,-0.46875 0,-0.765625 -0.671875,-1.078125 -0.9375,-1.171875 z m 0,0"
                   id="id-a2b99972-0c4a-484c-a0c8-6b1e64efba6f" />
              </g>
            </g>
          </g>
        </g>
      </g>
    </g>
  </g>
  <g
     inkscape:label="Latch"
     id="g1751"
     transform="translate(-105,-15)"
     inkscape:export-xdpi="347.51132"
     inkscape:export-ydpi="347.51132">
    <rect
       height="50"
       rx="None"
       ry="None"
       style="fill:none;stroke:#000000;stroke-width:1.5;stroke-linecap:round;stroke-linejoin:round;stroke-dasharray:none"
       width="40"
       x="150"
       y="265"
       inkscape:label="rectangle"
       id="rect1664" />
    <g
       inkscape:label="Q"
       id="g1685">
      <g
         inkscape:label="Q"
         transform="rotate(180,190,275)"
         id="g1668">
        <path
           d="M 190,275 H 180"
           style="fill:none;stroke:#000000;stroke-width:1;stroke-linecap:round;stroke-linejoin:round;stroke-dasharray:none"
           inkscape:label="Q"
           id="path1666" />
      </g>
      <g
         inkscape:label="Layer 1"
         inkscape:groupmode="layer"
         id="g1683"
         transform="matrix(0.663596,0,0,0.663596,-82.486945,-96.613639)">
        <g
           transform="matrix(1.33333,0,0,1.33333,395.406,554.021)"
           ns0:version="1.1.0"
           ns0:texconverter="pdflatex"
           ns0:pdfconverter="inkscape"
           ns0:text=" $Q$"
           ns0:preamble="/home/fernando/.config/inkscape/extensions/logicGates/logicGatesPreamble.tex"
           ns0:scale="1.0"
           ns0:alignment="middle center"
           ns0:inkscapeversion="1.0.1"
           ns0:jacobian_sqrt="1.33333"
           id="g1681">
          <defs
             id="id-217b61e9-ea04-4f4c-b027-22fb002ffba2">
            <g
               id="id-118fb1c6-4f01-4f17-865a-9ee9520e4900">
              <symbol
                 overflow="visible"
                 id="id-28a41d03-40b3-4bf7-86ee-c1d898947791">
                <path
                   style="stroke:none"
                   d=""
                   id="id-1308aa24-28de-4c47-a3c2-fd3deaadf082" />
              </symbol>
              <symbol
                 overflow="visible"
                 id="id-e4a1285a-aab4-4ff5-ad07-6394c3991855">
                <path
                   style="stroke:none"
                   d="M 4.359375,-0.0625 C 5.90625,-0.640625 7.375,-2.421875 7.375,-4.34375 c 0,-1.609375 -1.0625,-2.6875 -2.546875,-2.6875 -2.140625,0 -4.34375,2.265625 -4.34375,4.59375 0,1.65625 1.125,2.65625 2.5625,2.65625 0.25,0 0.578125,-0.046875 0.96875,-0.15625 -0.03125,0.625 -0.03125,0.640625 -0.03125,0.78125 0,0.3125 0,1.09375 0.828125,1.09375 1.171875,0 1.65625,-1.828125 1.65625,-1.9375 0,-0.0625 -0.0625,-0.09375 -0.109375,-0.09375 -0.078125,0 -0.09375,0.046875 -0.125,0.109375 C 6,0.71875 5.421875,0.96875 5.078125,0.96875 c -0.46875,0 -0.609375,-0.265625 -0.71875,-1.03125 z m -1.875,-0.078125 c -0.78125,-0.3125 -1.125,-1.078125 -1.125,-1.984375 0,-0.6875 0.265625,-2.109375 1.015625,-3.171875 C 3.109375,-6.3125 4.046875,-6.78125 4.78125,-6.78125 5.765625,-6.78125 6.5,-6 6.5,-4.671875 c 0,1 -0.515625,3.34375 -2.1875,4.265625 -0.046875,-0.34375 -0.140625,-1.0625 -0.875,-1.0625 -0.53125,0 -1.015625,0.484375 -1.015625,1.015625 0,0.1875 0.0625,0.296875 0.0625,0.3125 z M 3.09375,-0.03125 c -0.140625,0 -0.453125,0 -0.453125,-0.421875 0,-0.40625 0.375,-0.796875 0.796875,-0.796875 0.421875,0 0.609375,0.234375 0.609375,0.84375 0,0.140625 -0.015625,0.15625 -0.109375,0.203125 C 3.671875,-0.09375 3.375,-0.03125 3.09375,-0.03125 Z m 0,0"
                   id="id-c40ae94d-8fb0-43e4-b5ec-b310323f20df" />
              </symbol>
            </g>
          </defs>
          <g
             id="id-0ba495e1-0911-42ce-b8bc-03194f17cbde"
             transform="translate(-149.196,-127.734)">
            <g
               style="fill:#000000;fill-opacity:1"
               id="id-87e67a25-0279-4fb0-8b29-5691cd43e989">
              <g
                 transform="translate(148.712,134.765)"
                 id="g1677">
                <path
                   style="stroke:none"
                   d="M 4.359375,-0.0625 C 5.90625,-0.640625 7.375,-2.421875 7.375,-4.34375 c 0,-1.609375 -1.0625,-2.6875 -2.546875,-2.6875 -2.140625,0 -4.34375,2.265625 -4.34375,4.59375 0,1.65625 1.125,2.65625 2.5625,2.65625 0.25,0 0.578125,-0.046875 0.96875,-0.15625 -0.03125,0.625 -0.03125,0.640625 -0.03125,0.78125 0,0.3125 0,1.09375 0.828125,1.09375 1.171875,0 1.65625,-1.828125 1.65625,-1.9375 0,-0.0625 -0.0625,-0.09375 -0.109375,-0.09375 -0.078125,0 -0.09375,0.046875 -0.125,0.109375 C 6,0.71875 5.421875,0.96875 5.078125,0.96875 c -0.46875,0 -0.609375,-0.265625 -0.71875,-1.03125 z m -1.875,-0.078125 c -0.78125,-0.3125 -1.125,-1.078125 -1.125,-1.984375 0,-0.6875 0.265625,-2.109375 1.015625,-3.171875 C 3.109375,-6.3125 4.046875,-6.78125 4.78125,-6.78125 5.765625,-6.78125 6.5,-6 6.5,-4.671875 c 0,1 -0.515625,3.34375 -2.1875,4.265625 -0.046875,-0.34375 -0.140625,-1.0625 -0.875,-1.0625 -0.53125,0 -1.015625,0.484375 -1.015625,1.015625 0,0.1875 0.0625,0.296875 0.0625,0.3125 z M 3.09375,-0.03125 c -0.140625,0 -0.453125,0 -0.453125,-0.421875 0,-0.40625 0.375,-0.796875 0.796875,-0.796875 0.421875,0 0.609375,0.234375 0.609375,0.84375 0,0.140625 -0.015625,0.15625 -0.109375,0.203125 C 3.671875,-0.09375 3.375,-0.03125 3.09375,-0.03125 Z m 0,0"
                   id="id-5e3f2eb1-441e-4280-a058-14a87019ee1b" />
              </g>
            </g>
          </g>
        </g>
      </g>
    </g>
    <g
       inkscape:label="notQ"
       id="g1707">
      <g
         inkscape:label="notQ"
         transform="rotate(180,190,305)"
         id="g1689">
        <path
           d="M 190,305 H 180"
           style="fill:none;stroke:#000000;stroke-width:1;stroke-linecap:round;stroke-linejoin:round;stroke-dasharray:none"
           inkscape:label="notQ"
           id="path1687" />
      </g>
      <g
         inkscape:label="Layer 1"
         inkscape:groupmode="layer"
         id="g1705"
         transform="matrix(0.663596,0,0,0.663596,-82.923672,-66.613527)">
        <g
           transform="matrix(1.33333,0,0,1.33333,394.747,552.975)"
           ns0:version="1.1.0"
           ns0:texconverter="pdflatex"
           ns0:pdfconverter="inkscape"
           ns0:text=" $\\NOT{Q}$"
           ns0:preamble="/home/fernando/.config/inkscape/extensions/logicGates/logicGatesPreamble.tex"
           ns0:scale="1.0"
           ns0:alignment="middle center"
           ns0:inkscapeversion="1.0.1"
           ns0:jacobian_sqrt="1.33333"
           id="g1703">
          <defs
             id="id-41800408-e755-4374-a95b-bdd02b6daf6d">
            <g
               id="id-3c5e760d-faa3-476f-b843-89550066b706">
              <symbol
                 overflow="visible"
                 id="id-d1607bd4-99e1-4ddc-9b2a-93bda5872192">
                <path
                   style="stroke:none"
                   d=""
                   id="id-a3e8216d-f5a3-4807-b2ee-ed5b67033bed" />
              </symbol>
              <symbol
                 overflow="visible"
                 id="id-4e589a6e-0949-47f2-be20-2e6ae8840a58">
                <path
                   style="stroke:none"
                   d="M 4.359375,-0.0625 C 5.90625,-0.640625 7.375,-2.421875 7.375,-4.34375 c 0,-1.609375 -1.0625,-2.6875 -2.546875,-2.6875 -2.140625,0 -4.34375,2.265625 -4.34375,4.59375 0,1.65625 1.125,2.65625 2.5625,2.65625 0.25,0 0.578125,-0.046875 0.96875,-0.15625 -0.03125,0.625 -0.03125,0.640625 -0.03125,0.78125 0,0.3125 0,1.09375 0.828125,1.09375 1.171875,0 1.65625,-1.828125 1.65625,-1.9375 0,-0.0625 -0.0625,-0.09375 -0.109375,-0.09375 -0.078125,0 -0.09375,0.046875 -0.125,0.109375 C 6,0.71875 5.421875,0.96875 5.078125,0.96875 c -0.46875,0 -0.609375,-0.265625 -0.71875,-1.03125 z m -1.875,-0.078125 c -0.78125,-0.3125 -1.125,-1.078125 -1.125,-1.984375 0,-0.6875 0.265625,-2.109375 1.015625,-3.171875 C 3.109375,-6.3125 4.046875,-6.78125 4.78125,-6.78125 5.765625,-6.78125 6.5,-6 6.5,-4.671875 c 0,1 -0.515625,3.34375 -2.1875,4.265625 -0.046875,-0.34375 -0.140625,-1.0625 -0.875,-1.0625 -0.53125,0 -1.015625,0.484375 -1.015625,1.015625 0,0.1875 0.0625,0.296875 0.0625,0.3125 z M 3.09375,-0.03125 c -0.140625,0 -0.453125,0 -0.453125,-0.421875 0,-0.40625 0.375,-0.796875 0.796875,-0.796875 0.421875,0 0.609375,0.234375 0.609375,0.84375 0,0.140625 -0.015625,0.15625 -0.109375,0.203125 C 3.671875,-0.09375 3.375,-0.03125 3.09375,-0.03125 Z m 0,0"
                   id="id-92b6ef53-632e-482d-ae40-df103f52e469" />
              </symbol>
            </g>
          </defs>
          <g
             id="id-96900bcc-3a13-4b88-917f-a2b12f8c566e"
             transform="translate(-148.711,-126.364)">
            <path
               style="fill:none;stroke:#000000;stroke-width:0.398;stroke-linecap:butt;stroke-linejoin:miter;stroke-miterlimit:10;stroke-opacity:1"
               d="M -0.0010625,-5e-4 H 7.877844"
               transform="matrix(1,0,0,-1,148.712,126.562)"
               id="id-08e4d24f-1cf6-4252-a385-671ca788223d" />
            <g
               style="fill:#000000;fill-opacity:1"
               id="id-becd25eb-4a37-4c8c-acfd-86b1e1e6ad0d">
              <g
                 transform="translate(148.712,134.765)"
                 id="g1699">
                <path
                   style="stroke:none"
                   d="M 4.359375,-0.0625 C 5.90625,-0.640625 7.375,-2.421875 7.375,-4.34375 c 0,-1.609375 -1.0625,-2.6875 -2.546875,-2.6875 -2.140625,0 -4.34375,2.265625 -4.34375,4.59375 0,1.65625 1.125,2.65625 2.5625,2.65625 0.25,0 0.578125,-0.046875 0.96875,-0.15625 -0.03125,0.625 -0.03125,0.640625 -0.03125,0.78125 0,0.3125 0,1.09375 0.828125,1.09375 1.171875,0 1.65625,-1.828125 1.65625,-1.9375 0,-0.0625 -0.0625,-0.09375 -0.109375,-0.09375 -0.078125,0 -0.09375,0.046875 -0.125,0.109375 C 6,0.71875 5.421875,0.96875 5.078125,0.96875 c -0.46875,0 -0.609375,-0.265625 -0.71875,-1.03125 z m -1.875,-0.078125 c -0.78125,-0.3125 -1.125,-1.078125 -1.125,-1.984375 0,-0.6875 0.265625,-2.109375 1.015625,-3.171875 C 3.109375,-6.3125 4.046875,-6.78125 4.78125,-6.78125 5.765625,-6.78125 6.5,-6 6.5,-4.671875 c 0,1 -0.515625,3.34375 -2.1875,4.265625 -0.046875,-0.34375 -0.140625,-1.0625 -0.875,-1.0625 -0.53125,0 -1.015625,0.484375 -1.015625,1.015625 0,0.1875 0.0625,0.296875 0.0625,0.3125 z M 3.09375,-0.03125 c -0.140625,0 -0.453125,0 -0.453125,-0.421875 0,-0.40625 0.375,-0.796875 0.796875,-0.796875 0.421875,0 0.609375,0.234375 0.609375,0.84375 0,0.140625 -0.015625,0.15625 -0.109375,0.203125 C 3.671875,-0.09375 3.375,-0.03125 3.09375,-0.03125 Z m 0,0"
                   id="id-7bd2bad6-0d86-4d6c-b1bb-3f8944b20a76" />
              </g>
            </g>
          </g>
        </g>
      </g>
    </g>
    <g
       inkscape:label="input"
       id="g1728">
      <g
         inkscape:label="input"
         id="g1711">
        <path
           d="M 150,275 H 140"
           style="fill:none;stroke:#000000;stroke-width:1;stroke-linecap:round;stroke-linejoin:round;stroke-dasharray:none"
           inkscape:label="input"
           id="path1709" />
      </g>
      <g
         inkscape:label="Layer 1"
         inkscape:groupmode="layer"
         id="g1726"
         transform="matrix(0.663596,0,0,0.663596,-108.81819,-96.613752)">
        <g
           transform="matrix(1.33333,0,0,1.33333,396.052,555.167)"
           ns0:version="1.1.0"
           ns0:texconverter="pdflatex"
           ns0:pdfconverter="inkscape"
           ns0:text=" $S$"
           ns0:preamble="/home/fernando/.config/inkscape/extensions/logicGates/logicGatesPreamble.tex"
           ns0:scale="1.0"
           ns0:alignment="middle center"
           ns0:inkscapeversion="1.0.1"
           ns0:jacobian_sqrt="1.33333"
           id="g1724">
          <defs
             id="id-de8e9057-2452-4971-8208-8a2377727ef9">
            <g
               id="id-522f4e57-ebb9-44b5-a96b-d551c80b849d">
              <symbol
                 overflow="visible"
                 id="id-844cb246-03b0-4ce8-b1dc-7fbe2a46b516">
                <path
                   style="stroke:none"
                   d=""
                   id="id-0b00583e-bcf0-4fa6-a257-df8b8a261770" />
              </symbol>
              <symbol
                 overflow="visible"
                 id="id-63b425ac-62f9-4f3c-a698-730e4dd39da7">
                <path
                   style="stroke:none"
                   d="m 6.4375,-6.921875 c 0,-0.03125 -0.03125,-0.109375 -0.125,-0.109375 -0.046875,0 -0.046875,0.015625 -0.171875,0.15625 L 5.65625,-6.3125 c -0.25,-0.46875 -0.765625,-0.71875 -1.421875,-0.71875 -1.265625,0 -2.453125,1.15625 -2.453125,2.359375 0,0.796875 0.515625,1.265625 1.03125,1.40625 l 1.0625,0.28125 c 0.375,0.09375 0.921875,0.25 0.921875,1.0625 0,0.890625 -0.8125,1.828125 -1.796875,1.828125 -0.640625,0 -1.75,-0.21875 -1.75,-1.453125 0,-0.234375 0.0625,-0.484375 0.0625,-0.53125 0.015625,-0.046875 0.015625,-0.0625 0.015625,-0.078125 0,-0.09375 -0.0625,-0.109375 -0.109375,-0.109375 -0.046875,0 -0.078125,0.015625 -0.109375,0.046875 -0.03125,0.03125 -0.59375,2.3125 -0.59375,2.34375 0,0.046875 0.046875,0.09375 0.109375,0.09375 0.046875,0 0.0625,-0.015625 0.1875,-0.15625 L 1.296875,-0.5 c 0.421875,0.578125 1.109375,0.71875 1.6875,0.71875 1.359375,0 2.53125,-1.328125 2.53125,-2.5625 0,-0.6875 -0.34375,-1.03125 -0.484375,-1.171875 C 4.796875,-3.734375 4.640625,-3.78125 3.765625,-4 3.53125,-4.0625 3.1875,-4.171875 3.09375,-4.1875 2.828125,-4.28125 2.484375,-4.5625 2.484375,-5.09375 c 0,-0.8125 0.796875,-1.65625 1.75,-1.65625 0.8125,0 1.421875,0.4375 1.421875,1.546875 0,0.3125 -0.03125,0.5 -0.03125,0.5625 0,0 0,0.09375 0.109375,0.09375 0.109375,0 0.125,-0.03125 0.15625,-0.203125 z m 0,0"
                   id="id-0a9831c9-6da3-4108-84de-9fe18ef44d3f" />
              </symbol>
            </g>
          </defs>
          <g
             id="id-3a6be36a-0349-43ea-b3ea-f6f231764a32"
             transform="translate(-149.228,-127.734)">
            <g
               style="fill:#000000;fill-opacity:1"
               id="id-4bec398a-ae01-46bd-8ca9-d20796c51b5f">
              <g
                 transform="translate(148.712,134.765)"
                 id="g1720">
                <path
                   style="stroke:none"
                   d="m 6.4375,-6.921875 c 0,-0.03125 -0.03125,-0.109375 -0.125,-0.109375 -0.046875,0 -0.046875,0.015625 -0.171875,0.15625 L 5.65625,-6.3125 c -0.25,-0.46875 -0.765625,-0.71875 -1.421875,-0.71875 -1.265625,0 -2.453125,1.15625 -2.453125,2.359375 0,0.796875 0.515625,1.265625 1.03125,1.40625 l 1.0625,0.28125 c 0.375,0.09375 0.921875,0.25 0.921875,1.0625 0,0.890625 -0.8125,1.828125 -1.796875,1.828125 -0.640625,0 -1.75,-0.21875 -1.75,-1.453125 0,-0.234375 0.0625,-0.484375 0.0625,-0.53125 0.015625,-0.046875 0.015625,-0.0625 0.015625,-0.078125 0,-0.09375 -0.0625,-0.109375 -0.109375,-0.109375 -0.046875,0 -0.078125,0.015625 -0.109375,0.046875 -0.03125,0.03125 -0.59375,2.3125 -0.59375,2.34375 0,0.046875 0.046875,0.09375 0.109375,0.09375 0.046875,0 0.0625,-0.015625 0.1875,-0.15625 L 1.296875,-0.5 c 0.421875,0.578125 1.109375,0.71875 1.6875,0.71875 1.359375,0 2.53125,-1.328125 2.53125,-2.5625 0,-0.6875 -0.34375,-1.03125 -0.484375,-1.171875 C 4.796875,-3.734375 4.640625,-3.78125 3.765625,-4 3.53125,-4.0625 3.1875,-4.171875 3.09375,-4.1875 2.828125,-4.28125 2.484375,-4.5625 2.484375,-5.09375 c 0,-0.8125 0.796875,-1.65625 1.75,-1.65625 0.8125,0 1.421875,0.4375 1.421875,1.546875 0,0.3125 -0.03125,0.5 -0.03125,0.5625 0,0 0,0.09375 0.109375,0.09375 0.109375,0 0.125,-0.03125 0.15625,-0.203125 z m 0,0"
                   id="id-63eba5ac-3506-4750-9ab8-9897ef1faa03" />
              </g>
            </g>
          </g>
        </g>
      </g>
    </g>
    <g
       inkscape:label="input"
       id="g1749">
      <g
         inkscape:label="input"
         id="g1732">
        <path
           d="M 150,305 H 140"
           style="fill:none;stroke:#000000;stroke-width:1;stroke-linecap:round;stroke-linejoin:round;stroke-dasharray:none"
           inkscape:label="input"
           id="path1730" />
      </g>
      <g
         inkscape:label="Layer 1"
         inkscape:groupmode="layer"
         id="g1747"
         transform="matrix(0.663596,0,0,0.663596,-108.28654,-66.75189)">
        <g
           transform="matrix(1.33333,0,0,1.33333,395.25,555.313)"
           ns0:version="1.1.0"
           ns0:texconverter="pdflatex"
           ns0:pdfconverter="inkscape"
           ns0:text=" $R$"
           ns0:preamble="/home/fernando/.config/inkscape/extensions/logicGates/logicGatesPreamble.tex"
           ns0:scale="1.0"
           ns0:alignment="middle center"
           ns0:inkscapeversion="1.0.1"
           ns0:jacobian_sqrt="1.33333"
           id="g1745">
          <defs
             id="id-1316c309-2f8f-47d4-840a-31faf5a901df">
            <g
               id="id-03119a06-f6d9-46af-9dbf-81b31d146f50">
              <symbol
                 overflow="visible"
                 id="id-c0b5c6aa-e213-45c1-a3a1-09fde2219cea">
                <path
                   style="stroke:none"
                   d=""
                   id="id-5f141b51-77d3-47bd-8ac2-dda90d80ccb6" />
              </symbol>
              <symbol
                 overflow="visible"
                 id="id-f199c2d8-d381-427e-ace6-7eb2c96bff1c">
                <path
                   style="stroke:none"
                   d="m 3.734375,-6.125 c 0.0625,-0.234375 0.09375,-0.328125 0.28125,-0.359375 C 4.109375,-6.5 4.421875,-6.5 4.625,-6.5 c 0.703125,0 1.8125,0 1.8125,0.984375 0,0.34375 -0.15625,1.03125 -0.546875,1.421875 -0.265625,0.25 -0.78125,0.578125 -1.6875,0.578125 H 3.09375 Z m 1.4375,2.734375 c 1.015625,-0.21875 2.1875,-0.921875 2.1875,-1.921875 0,-0.859375 -0.890625,-1.5 -2.203125,-1.5 H 2.328125 c -0.203125,0 -0.296875,0 -0.296875,0.203125 C 2.03125,-6.5 2.125,-6.5 2.3125,-6.5 c 0.015625,0 0.203125,0 0.375,0.015625 0.1875,0.03125 0.265625,0.03125 0.265625,0.171875 0,0.03125 0,0.0625 -0.03125,0.1875 l -1.34375,5.34375 C 1.484375,-0.390625 1.46875,-0.3125 0.671875,-0.3125 0.5,-0.3125 0.40625,-0.3125 0.40625,-0.109375 0.40625,0 0.53125,0 0.546875,0 c 0.28125,0 0.984375,-0.03125 1.25,-0.03125 0.28125,0 1,0.03125 1.28125,0.03125 0.078125,0 0.1875,0 0.1875,-0.203125 0,-0.109375 -0.078125,-0.109375 -0.28125,-0.109375 -0.359375,0 -0.640625,0 -0.640625,-0.171875 0,-0.0625 0.015625,-0.109375 0.03125,-0.171875 l 0.65625,-2.640625 h 1.1875 c 0.90625,0 1.078125,0.5625 1.078125,0.90625 0,0.140625 -0.078125,0.453125 -0.140625,0.6875 C 5.09375,-1.421875 5,-1.0625 5,-0.859375 5,0.21875 6.203125,0.21875 6.328125,0.21875 c 0.84375,0 1.203125,-1 1.203125,-1.140625 0,-0.125 -0.109375,-0.125 -0.125,-0.125 -0.09375,0 -0.109375,0.0625 -0.125,0.140625 C 7.03125,-0.171875 6.59375,0 6.375,0 6.046875,0 5.96875,-0.21875 5.96875,-0.609375 c 0,-0.3125 0.0625,-0.8125 0.109375,-1.140625 0.015625,-0.140625 0.03125,-0.328125 0.03125,-0.46875 0,-0.765625 -0.671875,-1.078125 -0.9375,-1.171875 z m 0,0"
                   id="id-50fb08e3-852c-4040-a8e4-48b8afca1a2d" />
              </symbol>
            </g>
          </defs>
          <g
             id="id-7bc7821c-1597-499e-ae85-d57f2ad11844"
             transform="translate(-149.118,-127.953)">
            <g
               style="fill:#000000;fill-opacity:1"
               id="id-18558123-65e3-4128-8fe0-8bed829112af">
              <g
                 transform="translate(148.712,134.765)"
                 id="g1741">
                <path
                   style="stroke:none"
                   d="m 3.734375,-6.125 c 0.0625,-0.234375 0.09375,-0.328125 0.28125,-0.359375 C 4.109375,-6.5 4.421875,-6.5 4.625,-6.5 c 0.703125,0 1.8125,0 1.8125,0.984375 0,0.34375 -0.15625,1.03125 -0.546875,1.421875 -0.265625,0.25 -0.78125,0.578125 -1.6875,0.578125 H 3.09375 Z m 1.4375,2.734375 c 1.015625,-0.21875 2.1875,-0.921875 2.1875,-1.921875 0,-0.859375 -0.890625,-1.5 -2.203125,-1.5 H 2.328125 c -0.203125,0 -0.296875,0 -0.296875,0.203125 C 2.03125,-6.5 2.125,-6.5 2.3125,-6.5 c 0.015625,0 0.203125,0 0.375,0.015625 0.1875,0.03125 0.265625,0.03125 0.265625,0.171875 0,0.03125 0,0.0625 -0.03125,0.1875 l -1.34375,5.34375 C 1.484375,-0.390625 1.46875,-0.3125 0.671875,-0.3125 0.5,-0.3125 0.40625,-0.3125 0.40625,-0.109375 0.40625,0 0.53125,0 0.546875,0 c 0.28125,0 0.984375,-0.03125 1.25,-0.03125 0.28125,0 1,0.03125 1.28125,0.03125 0.078125,0 0.1875,0 0.1875,-0.203125 0,-0.109375 -0.078125,-0.109375 -0.28125,-0.109375 -0.359375,0 -0.640625,0 -0.640625,-0.171875 0,-0.0625 0.015625,-0.109375 0.03125,-0.171875 l 0.65625,-2.640625 h 1.1875 c 0.90625,0 1.078125,0.5625 1.078125,0.90625 0,0.140625 -0.078125,0.453125 -0.140625,0.6875 C 5.09375,-1.421875 5,-1.0625 5,-0.859375 5,0.21875 6.203125,0.21875 6.328125,0.21875 c 0.84375,0 1.203125,-1 1.203125,-1.140625 0,-0.125 -0.109375,-0.125 -0.125,-0.125 -0.09375,0 -0.109375,0.0625 -0.125,0.140625 C 7.03125,-0.171875 6.59375,0 6.375,0 6.046875,0 5.96875,-0.21875 5.96875,-0.609375 c 0,-0.3125 0.0625,-0.8125 0.109375,-1.140625 0.015625,-0.140625 0.03125,-0.328125 0.03125,-0.46875 0,-0.765625 -0.671875,-1.078125 -0.9375,-1.171875 z m 0,0"
                   id="id-b5ca13b4-0ca5-4009-9611-97b1648f64ea" />
              </g>
            </g>
          </g>
        </g>
      </g>
    </g>
  </g>
  <g
     inkscape:label="Latch"
     id="g2108"
     transform="translate(-70,60)"
     inkscape:export-xdpi="347.51132"
     inkscape:export-ydpi="347.51132">
    <rect
       height="40"
       rx="None"
       ry="None"
       style="fill:none;stroke:#000000;stroke-width:1.5;stroke-linecap:round;stroke-linejoin:round;stroke-dasharray:none"
       width="40"
       x="150"
       y="270"
       inkscape:label="rectangle"
       id="rect2042" />
    <g
       inkscape:label="Q"
       id="g2063">
      <g
         inkscape:label="Q"
         transform="rotate(180,190,280)"
         id="g2046">
        <path
           d="M 190,280 H 180"
           style="fill:none;stroke:#000000;stroke-width:1;stroke-linecap:round;stroke-linejoin:round;stroke-dasharray:none"
           inkscape:label="Q"
           id="path2044" />
      </g>
      <g
         inkscape:label="Layer 1"
         inkscape:groupmode="layer"
         id="g2061"
         transform="matrix(0.663596,0,0,0.663596,-82.486945,-91.613639)">
        <g
           transform="matrix(1.33333,0,0,1.33333,395.406,554.021)"
           ns0:version="1.1.0"
           ns0:texconverter="pdflatex"
           ns0:pdfconverter="inkscape"
           ns0:text=" $Q$"
           ns0:preamble="/home/fernando/.config/inkscape/extensions/logicGates/logicGatesPreamble.tex"
           ns0:scale="1.0"
           ns0:alignment="middle center"
           ns0:inkscapeversion="1.0.1"
           ns0:jacobian_sqrt="1.33333"
           id="g2059">
          <defs
             id="id-08e5f9e6-0ad5-4014-8fa4-f9e75b52f6a5">
            <g
               id="id-1a9b5711-4d6f-42c3-bb80-764c72f76889">
              <symbol
                 overflow="visible"
                 id="id-8afce826-a3d2-4255-a708-2cefd85042a2">
                <path
                   style="stroke:none"
                   d=""
                   id="id-e8aa9cf7-9e18-40e4-966b-72145c280268" />
              </symbol>
              <symbol
                 overflow="visible"
                 id="id-6e647ef8-9515-427f-9404-692172eb9159">
                <path
                   style="stroke:none"
                   d="M 4.359375,-0.0625 C 5.90625,-0.640625 7.375,-2.421875 7.375,-4.34375 c 0,-1.609375 -1.0625,-2.6875 -2.546875,-2.6875 -2.140625,0 -4.34375,2.265625 -4.34375,4.59375 0,1.65625 1.125,2.65625 2.5625,2.65625 0.25,0 0.578125,-0.046875 0.96875,-0.15625 -0.03125,0.625 -0.03125,0.640625 -0.03125,0.78125 0,0.3125 0,1.09375 0.828125,1.09375 1.171875,0 1.65625,-1.828125 1.65625,-1.9375 0,-0.0625 -0.0625,-0.09375 -0.109375,-0.09375 -0.078125,0 -0.09375,0.046875 -0.125,0.109375 C 6,0.71875 5.421875,0.96875 5.078125,0.96875 c -0.46875,0 -0.609375,-0.265625 -0.71875,-1.03125 z m -1.875,-0.078125 c -0.78125,-0.3125 -1.125,-1.078125 -1.125,-1.984375 0,-0.6875 0.265625,-2.109375 1.015625,-3.171875 C 3.109375,-6.3125 4.046875,-6.78125 4.78125,-6.78125 5.765625,-6.78125 6.5,-6 6.5,-4.671875 c 0,1 -0.515625,3.34375 -2.1875,4.265625 -0.046875,-0.34375 -0.140625,-1.0625 -0.875,-1.0625 -0.53125,0 -1.015625,0.484375 -1.015625,1.015625 0,0.1875 0.0625,0.296875 0.0625,0.3125 z M 3.09375,-0.03125 c -0.140625,0 -0.453125,0 -0.453125,-0.421875 0,-0.40625 0.375,-0.796875 0.796875,-0.796875 0.421875,0 0.609375,0.234375 0.609375,0.84375 0,0.140625 -0.015625,0.15625 -0.109375,0.203125 C 3.671875,-0.09375 3.375,-0.03125 3.09375,-0.03125 Z m 0,0"
                   id="id-c17ba72a-f08d-48d3-b2ee-25b34de105b0" />
              </symbol>
            </g>
          </defs>
          <g
             id="id-9b639eba-71bb-4d85-a5c5-8274c511dc72"
             transform="translate(-149.196,-127.734)">
            <g
               style="fill:#000000;fill-opacity:1"
               id="id-32472733-d644-4f2c-a301-66a5bcbe30a2">
              <g
                 transform="translate(148.712,134.765)"
                 id="g2055">
                <path
                   style="stroke:none"
                   d="M 4.359375,-0.0625 C 5.90625,-0.640625 7.375,-2.421875 7.375,-4.34375 c 0,-1.609375 -1.0625,-2.6875 -2.546875,-2.6875 -2.140625,0 -4.34375,2.265625 -4.34375,4.59375 0,1.65625 1.125,2.65625 2.5625,2.65625 0.25,0 0.578125,-0.046875 0.96875,-0.15625 -0.03125,0.625 -0.03125,0.640625 -0.03125,0.78125 0,0.3125 0,1.09375 0.828125,1.09375 1.171875,0 1.65625,-1.828125 1.65625,-1.9375 0,-0.0625 -0.0625,-0.09375 -0.109375,-0.09375 -0.078125,0 -0.09375,0.046875 -0.125,0.109375 C 6,0.71875 5.421875,0.96875 5.078125,0.96875 c -0.46875,0 -0.609375,-0.265625 -0.71875,-1.03125 z m -1.875,-0.078125 c -0.78125,-0.3125 -1.125,-1.078125 -1.125,-1.984375 0,-0.6875 0.265625,-2.109375 1.015625,-3.171875 C 3.109375,-6.3125 4.046875,-6.78125 4.78125,-6.78125 5.765625,-6.78125 6.5,-6 6.5,-4.671875 c 0,1 -0.515625,3.34375 -2.1875,4.265625 -0.046875,-0.34375 -0.140625,-1.0625 -0.875,-1.0625 -0.53125,0 -1.015625,0.484375 -1.015625,1.015625 0,0.1875 0.0625,0.296875 0.0625,0.3125 z M 3.09375,-0.03125 c -0.140625,0 -0.453125,0 -0.453125,-0.421875 0,-0.40625 0.375,-0.796875 0.796875,-0.796875 0.421875,0 0.609375,0.234375 0.609375,0.84375 0,0.140625 -0.015625,0.15625 -0.109375,0.203125 C 3.671875,-0.09375 3.375,-0.03125 3.09375,-0.03125 Z m 0,0"
                   id="id-225960d3-1338-4b24-8611-dc613fc2f4d4" />
              </g>
            </g>
          </g>
        </g>
      </g>
    </g>
    <g
       inkscape:label="notQ"
       id="g2085">
      <g
         inkscape:label="notQ"
         transform="rotate(180,190,300)"
         id="g2067">
        <path
           d="M 190,300 H 180"
           style="fill:none;stroke:#000000;stroke-width:1;stroke-linecap:round;stroke-linejoin:round;stroke-dasharray:none"
           inkscape:label="notQ"
           id="path2065" />
      </g>
      <g
         inkscape:label="Layer 1"
         inkscape:groupmode="layer"
         id="g2083"
         transform="matrix(0.663596,0,0,0.663596,-82.923672,-71.613527)">
        <g
           transform="matrix(1.33333,0,0,1.33333,394.747,552.975)"
           ns0:version="1.1.0"
           ns0:texconverter="pdflatex"
           ns0:pdfconverter="inkscape"
           ns0:text=" $\\NOT{Q}$"
           ns0:preamble="/home/fernando/.config/inkscape/extensions/logicGates/logicGatesPreamble.tex"
           ns0:scale="1.0"
           ns0:alignment="middle center"
           ns0:inkscapeversion="1.0.1"
           ns0:jacobian_sqrt="1.33333"
           id="g2081">
          <defs
             id="id-d6ea8614-f03b-44e1-80b9-c910885eee1f">
            <g
               id="id-e07bed3c-92c2-4b27-b0ee-b931ae5a2428">
              <symbol
                 overflow="visible"
                 id="id-4771268d-0193-476f-9884-36f076f3fceb">
                <path
                   style="stroke:none"
                   d=""
                   id="id-778ebb67-c7d3-49a7-a11c-ef3324afd385" />
              </symbol>
              <symbol
                 overflow="visible"
                 id="id-cfe9ea5b-717e-4ef9-b2a6-3a2c4d0b9b27">
                <path
                   style="stroke:none"
                   d="M 4.359375,-0.0625 C 5.90625,-0.640625 7.375,-2.421875 7.375,-4.34375 c 0,-1.609375 -1.0625,-2.6875 -2.546875,-2.6875 -2.140625,0 -4.34375,2.265625 -4.34375,4.59375 0,1.65625 1.125,2.65625 2.5625,2.65625 0.25,0 0.578125,-0.046875 0.96875,-0.15625 -0.03125,0.625 -0.03125,0.640625 -0.03125,0.78125 0,0.3125 0,1.09375 0.828125,1.09375 1.171875,0 1.65625,-1.828125 1.65625,-1.9375 0,-0.0625 -0.0625,-0.09375 -0.109375,-0.09375 -0.078125,0 -0.09375,0.046875 -0.125,0.109375 C 6,0.71875 5.421875,0.96875 5.078125,0.96875 c -0.46875,0 -0.609375,-0.265625 -0.71875,-1.03125 z m -1.875,-0.078125 c -0.78125,-0.3125 -1.125,-1.078125 -1.125,-1.984375 0,-0.6875 0.265625,-2.109375 1.015625,-3.171875 C 3.109375,-6.3125 4.046875,-6.78125 4.78125,-6.78125 5.765625,-6.78125 6.5,-6 6.5,-4.671875 c 0,1 -0.515625,3.34375 -2.1875,4.265625 -0.046875,-0.34375 -0.140625,-1.0625 -0.875,-1.0625 -0.53125,0 -1.015625,0.484375 -1.015625,1.015625 0,0.1875 0.0625,0.296875 0.0625,0.3125 z M 3.09375,-0.03125 c -0.140625,0 -0.453125,0 -0.453125,-0.421875 0,-0.40625 0.375,-0.796875 0.796875,-0.796875 0.421875,0 0.609375,0.234375 0.609375,0.84375 0,0.140625 -0.015625,0.15625 -0.109375,0.203125 C 3.671875,-0.09375 3.375,-0.03125 3.09375,-0.03125 Z m 0,0"
                   id="id-e1858185-a1e0-4c91-b19b-4e6b868722df" />
              </symbol>
            </g>
          </defs>
          <g
             id="id-b908ebbb-5492-4a4b-8bb0-e7f33d9048fe"
             transform="translate(-148.711,-126.364)">
            <path
               style="fill:none;stroke:#000000;stroke-width:0.398;stroke-linecap:butt;stroke-linejoin:miter;stroke-miterlimit:10;stroke-opacity:1"
               d="M -0.0010625,-5e-4 H 7.877844"
               transform="matrix(1,0,0,-1,148.712,126.562)"
               id="id-4d13f5d4-1139-4576-80f0-45b78b917b90" />
            <g
               style="fill:#000000;fill-opacity:1"
               id="id-e4616a3a-b3ee-446b-92a9-3d1a24301c1a">
              <g
                 transform="translate(148.712,134.765)"
                 id="g2077">
                <path
                   style="stroke:none"
                   d="M 4.359375,-0.0625 C 5.90625,-0.640625 7.375,-2.421875 7.375,-4.34375 c 0,-1.609375 -1.0625,-2.6875 -2.546875,-2.6875 -2.140625,0 -4.34375,2.265625 -4.34375,4.59375 0,1.65625 1.125,2.65625 2.5625,2.65625 0.25,0 0.578125,-0.046875 0.96875,-0.15625 -0.03125,0.625 -0.03125,0.640625 -0.03125,0.78125 0,0.3125 0,1.09375 0.828125,1.09375 1.171875,0 1.65625,-1.828125 1.65625,-1.9375 0,-0.0625 -0.0625,-0.09375 -0.109375,-0.09375 -0.078125,0 -0.09375,0.046875 -0.125,0.109375 C 6,0.71875 5.421875,0.96875 5.078125,0.96875 c -0.46875,0 -0.609375,-0.265625 -0.71875,-1.03125 z m -1.875,-0.078125 c -0.78125,-0.3125 -1.125,-1.078125 -1.125,-1.984375 0,-0.6875 0.265625,-2.109375 1.015625,-3.171875 C 3.109375,-6.3125 4.046875,-6.78125 4.78125,-6.78125 5.765625,-6.78125 6.5,-6 6.5,-4.671875 c 0,1 -0.515625,3.34375 -2.1875,4.265625 -0.046875,-0.34375 -0.140625,-1.0625 -0.875,-1.0625 -0.53125,0 -1.015625,0.484375 -1.015625,1.015625 0,0.1875 0.0625,0.296875 0.0625,0.3125 z M 3.09375,-0.03125 c -0.140625,0 -0.453125,0 -0.453125,-0.421875 0,-0.40625 0.375,-0.796875 0.796875,-0.796875 0.421875,0 0.609375,0.234375 0.609375,0.84375 0,0.140625 -0.015625,0.15625 -0.109375,0.203125 C 3.671875,-0.09375 3.375,-0.03125 3.09375,-0.03125 Z m 0,0"
                   id="id-5c4b34c2-2160-4826-abc2-13ad9f09cbc8" />
              </g>
            </g>
          </g>
        </g>
      </g>
    </g>
    <g
       inkscape:label="input"
       id="g2106">
      <g
         inkscape:label="input"
         id="g2089">
        <path
           d="M 150,280 H 140"
           style="fill:none;stroke:#000000;stroke-width:1;stroke-linecap:round;stroke-linejoin:round;stroke-dasharray:none"
           inkscape:label="input"
           id="path2087" />
      </g>
      <g
         inkscape:label="Layer 1"
         inkscape:groupmode="layer"
         id="g2104"
         transform="matrix(0.663596,0,0,0.663596,-108.0722,-91.613089)">
        <g
           transform="matrix(1.33333,0,0,1.33333,394.927,555.458)"
           ns0:version="1.1.0"
           ns0:texconverter="pdflatex"
           ns0:pdfconverter="inkscape"
           ns0:text=" $D$"
           ns0:preamble="/home/fernando/.config/inkscape/extensions/logicGates/logicGatesPreamble.tex"
           ns0:scale="1.0"
           ns0:alignment="middle center"
           ns0:inkscapeversion="1.0.1"
           ns0:jacobian_sqrt="1.33333"
           id="g2102">
          <defs
             id="id-84ea15df-56b8-413a-9845-24e935663144">
            <g
               id="id-d6a083bf-f85b-4128-bb18-f2e3ba0d54d3">
              <symbol
                 overflow="visible"
                 id="id-4281dfec-b370-4599-ba70-3b0470dbaeb9">
                <path
                   style="stroke:none"
                   d=""
                   id="id-b1c3c868-88a3-4624-a402-c8caa3e1da8a" />
              </symbol>
              <symbol
                 overflow="visible"
                 id="id-b993afa1-47c4-4d9b-b0a3-8c2f12106821">
                <path
                   style="stroke:none"
                   d="m 1.578125,-0.78125 c -0.09375,0.390625 -0.109375,0.46875 -0.90625,0.46875 -0.15625,0 -0.265625,0 -0.265625,0.1875 C 0.40625,0 0.484375,0 0.671875,0 h 3.3125 c 2.0625,0 4.03125,-2.109375 4.03125,-4.28125 0,-1.40625 -0.84375,-2.53125 -2.34375,-2.53125 h -3.34375 c -0.1875,0 -0.296875,0 -0.296875,0.1875 0,0.125 0.078125,0.125 0.28125,0.125 0.125,0 0.3125,0.015625 0.421875,0.015625 0.171875,0.03125 0.21875,0.046875 0.21875,0.171875 0,0.03125 0,0.0625 -0.03125,0.1875 z M 3.734375,-6.125 C 3.828125,-6.46875 3.84375,-6.5 4.28125,-6.5 h 1.0625 c 0.96875,0 1.796875,0.53125 1.796875,1.84375 0,0.484375 -0.1875,2.125 -1.046875,3.21875 -0.28125,0.375 -1.0625,1.125 -2.296875,1.125 h -1.125 c -0.140625,0 -0.15625,0 -0.21875,0 -0.09375,-0.015625 -0.125,-0.03125 -0.125,-0.109375 0,-0.03125 0,-0.046875 0.046875,-0.21875 z m 0,0"
                   id="id-29a8a5ab-bbcc-4e25-87d2-d06917e9834a" />
              </symbol>
            </g>
          </defs>
          <g
             id="id-43c727c9-bde7-4682-9718-e1ae8d479544"
             transform="translate(-149.118,-127.953)">
            <g
               style="fill:#000000;fill-opacity:1"
               id="id-39572bf5-45dc-4a02-9fda-61b086a7e3df">
              <g
                 transform="translate(148.712,134.765)"
                 id="g2098">
                <path
                   style="stroke:none"
                   d="m 1.578125,-0.78125 c -0.09375,0.390625 -0.109375,0.46875 -0.90625,0.46875 -0.15625,0 -0.265625,0 -0.265625,0.1875 C 0.40625,0 0.484375,0 0.671875,0 h 3.3125 c 2.0625,0 4.03125,-2.109375 4.03125,-4.28125 0,-1.40625 -0.84375,-2.53125 -2.34375,-2.53125 h -3.34375 c -0.1875,0 -0.296875,0 -0.296875,0.1875 0,0.125 0.078125,0.125 0.28125,0.125 0.125,0 0.3125,0.015625 0.421875,0.015625 0.171875,0.03125 0.21875,0.046875 0.21875,0.171875 0,0.03125 0,0.0625 -0.03125,0.1875 z M 3.734375,-6.125 C 3.828125,-6.46875 3.84375,-6.5 4.28125,-6.5 h 1.0625 c 0.96875,0 1.796875,0.53125 1.796875,1.84375 0,0.484375 -0.1875,2.125 -1.046875,3.21875 -0.28125,0.375 -1.0625,1.125 -2.296875,1.125 h -1.125 c -0.140625,0 -0.15625,0 -0.21875,0 -0.09375,-0.015625 -0.125,-0.03125 -0.125,-0.109375 0,-0.03125 0,-0.046875 0.046875,-0.21875 z m 0,0"
                   id="id-20c64a61-86b2-43ad-8d03-575bd9e879d8" />
              </g>
            </g>
          </g>
        </g>
      </g>
    </g>
  </g>
  <g
     inkscape:label="Latch"
     id="g2498"
     transform="translate(10,60)"
     inkscape:export-xdpi="347.51132"
     inkscape:export-ydpi="347.51132">
    <rect
       height="40"
       rx="None"
       ry="None"
       style="fill:none;stroke:#000000;stroke-width:1.5;stroke-linecap:round;stroke-linejoin:round;stroke-dasharray:none"
       width="40"
       x="150"
       y="270"
       inkscape:label="rectangle"
       id="rect2432" />
    <g
       inkscape:label="Q"
       id="g2453">
      <g
         inkscape:label="Q"
         transform="rotate(180,190,280)"
         id="g2436">
        <path
           d="M 190,280 H 180"
           style="fill:none;stroke:#000000;stroke-width:1;stroke-linecap:round;stroke-linejoin:round;stroke-dasharray:none"
           inkscape:label="Q"
           id="path2434" />
      </g>
      <g
         inkscape:label="Layer 1"
         inkscape:groupmode="layer"
         id="g2451"
         transform="matrix(0.663596,0,0,0.663596,-82.486945,-91.613639)">
        <g
           transform="matrix(1.33333,0,0,1.33333,395.406,554.021)"
           ns0:version="1.1.0"
           ns0:texconverter="pdflatex"
           ns0:pdfconverter="inkscape"
           ns0:text=" $Q$"
           ns0:preamble="/home/fernando/.config/inkscape/extensions/logicGates/logicGatesPreamble.tex"
           ns0:scale="1.0"
           ns0:alignment="middle center"
           ns0:inkscapeversion="1.0.1"
           ns0:jacobian_sqrt="1.33333"
           id="g2449">
          <defs
             id="id-c9a10b1c-3969-4282-aeea-113785186f47">
            <g
               id="id-fe275d20-fb91-45c1-ade8-3bb8b6003281">
              <symbol
                 overflow="visible"
                 id="id-62a4d1b3-be78-4307-a7d4-2674ddbc49e4">
                <path
                   style="stroke:none"
                   d=""
                   id="id-9bb5ced7-4668-4609-ad6c-0da5fcb6e7b0" />
              </symbol>
              <symbol
                 overflow="visible"
                 id="id-d6246431-1358-40f4-bfa5-c62919af5ac2">
                <path
                   style="stroke:none"
                   d="M 4.359375,-0.0625 C 5.90625,-0.640625 7.375,-2.421875 7.375,-4.34375 c 0,-1.609375 -1.0625,-2.6875 -2.546875,-2.6875 -2.140625,0 -4.34375,2.265625 -4.34375,4.59375 0,1.65625 1.125,2.65625 2.5625,2.65625 0.25,0 0.578125,-0.046875 0.96875,-0.15625 -0.03125,0.625 -0.03125,0.640625 -0.03125,0.78125 0,0.3125 0,1.09375 0.828125,1.09375 1.171875,0 1.65625,-1.828125 1.65625,-1.9375 0,-0.0625 -0.0625,-0.09375 -0.109375,-0.09375 -0.078125,0 -0.09375,0.046875 -0.125,0.109375 C 6,0.71875 5.421875,0.96875 5.078125,0.96875 c -0.46875,0 -0.609375,-0.265625 -0.71875,-1.03125 z m -1.875,-0.078125 c -0.78125,-0.3125 -1.125,-1.078125 -1.125,-1.984375 0,-0.6875 0.265625,-2.109375 1.015625,-3.171875 C 3.109375,-6.3125 4.046875,-6.78125 4.78125,-6.78125 5.765625,-6.78125 6.5,-6 6.5,-4.671875 c 0,1 -0.515625,3.34375 -2.1875,4.265625 -0.046875,-0.34375 -0.140625,-1.0625 -0.875,-1.0625 -0.53125,0 -1.015625,0.484375 -1.015625,1.015625 0,0.1875 0.0625,0.296875 0.0625,0.3125 z M 3.09375,-0.03125 c -0.140625,0 -0.453125,0 -0.453125,-0.421875 0,-0.40625 0.375,-0.796875 0.796875,-0.796875 0.421875,0 0.609375,0.234375 0.609375,0.84375 0,0.140625 -0.015625,0.15625 -0.109375,0.203125 C 3.671875,-0.09375 3.375,-0.03125 3.09375,-0.03125 Z m 0,0"
                   id="id-bf76f84c-11c9-4e07-8f9d-d18f9e362d76" />
              </symbol>
            </g>
          </defs>
          <g
             id="id-2f530de1-6c7e-4668-b9da-efec5e3f039a"
             transform="translate(-149.196,-127.734)">
            <g
               style="fill:#000000;fill-opacity:1"
               id="id-b1426ad9-e119-4ba9-ab03-32d942596061">
              <g
                 transform="translate(148.712,134.765)"
                 id="g2445">
                <path
                   style="stroke:none"
                   d="M 4.359375,-0.0625 C 5.90625,-0.640625 7.375,-2.421875 7.375,-4.34375 c 0,-1.609375 -1.0625,-2.6875 -2.546875,-2.6875 -2.140625,0 -4.34375,2.265625 -4.34375,4.59375 0,1.65625 1.125,2.65625 2.5625,2.65625 0.25,0 0.578125,-0.046875 0.96875,-0.15625 -0.03125,0.625 -0.03125,0.640625 -0.03125,0.78125 0,0.3125 0,1.09375 0.828125,1.09375 1.171875,0 1.65625,-1.828125 1.65625,-1.9375 0,-0.0625 -0.0625,-0.09375 -0.109375,-0.09375 -0.078125,0 -0.09375,0.046875 -0.125,0.109375 C 6,0.71875 5.421875,0.96875 5.078125,0.96875 c -0.46875,0 -0.609375,-0.265625 -0.71875,-1.03125 z m -1.875,-0.078125 c -0.78125,-0.3125 -1.125,-1.078125 -1.125,-1.984375 0,-0.6875 0.265625,-2.109375 1.015625,-3.171875 C 3.109375,-6.3125 4.046875,-6.78125 4.78125,-6.78125 5.765625,-6.78125 6.5,-6 6.5,-4.671875 c 0,1 -0.515625,3.34375 -2.1875,4.265625 -0.046875,-0.34375 -0.140625,-1.0625 -0.875,-1.0625 -0.53125,0 -1.015625,0.484375 -1.015625,1.015625 0,0.1875 0.0625,0.296875 0.0625,0.3125 z M 3.09375,-0.03125 c -0.140625,0 -0.453125,0 -0.453125,-0.421875 0,-0.40625 0.375,-0.796875 0.796875,-0.796875 0.421875,0 0.609375,0.234375 0.609375,0.84375 0,0.140625 -0.015625,0.15625 -0.109375,0.203125 C 3.671875,-0.09375 3.375,-0.03125 3.09375,-0.03125 Z m 0,0"
                   id="id-36d4a3a8-f71f-4a38-8581-2855f1dae8f8" />
              </g>
            </g>
          </g>
        </g>
      </g>
    </g>
    <g
       inkscape:label="notQ"
       id="g2475">
      <g
         inkscape:label="notQ"
         transform="rotate(180,190,300)"
         id="g2457">
        <path
           d="M 190,300 H 180"
           style="fill:none;stroke:#000000;stroke-width:1;stroke-linecap:round;stroke-linejoin:round;stroke-dasharray:none"
           inkscape:label="notQ"
           id="path2455" />
      </g>
      <g
         inkscape:label="Layer 1"
         inkscape:groupmode="layer"
         id="g2473"
         transform="matrix(0.663596,0,0,0.663596,-82.923672,-71.613527)">
        <g
           transform="matrix(1.33333,0,0,1.33333,394.747,552.975)"
           ns0:version="1.1.0"
           ns0:texconverter="pdflatex"
           ns0:pdfconverter="inkscape"
           ns0:text=" $\\NOT{Q}$"
           ns0:preamble="/home/fernando/.config/inkscape/extensions/logicGates/logicGatesPreamble.tex"
           ns0:scale="1.0"
           ns0:alignment="middle center"
           ns0:inkscapeversion="1.0.1"
           ns0:jacobian_sqrt="1.33333"
           id="g2471">
          <defs
             id="id-8e2d03c2-370a-48ec-ba74-4150fee1df77">
            <g
               id="id-cd9f0dba-af91-4caf-abb1-a3bd78602a87">
              <symbol
                 overflow="visible"
                 id="id-297b04fa-d468-4030-a974-edc9bcfcef57">
                <path
                   style="stroke:none"
                   d=""
                   id="id-df81a8ad-6df7-490e-b717-ec8c96cfb82f" />
              </symbol>
              <symbol
                 overflow="visible"
                 id="id-0e6a6dd1-ebc8-4f7a-9dd3-b6b19c402eb3">
                <path
                   style="stroke:none"
                   d="M 4.359375,-0.0625 C 5.90625,-0.640625 7.375,-2.421875 7.375,-4.34375 c 0,-1.609375 -1.0625,-2.6875 -2.546875,-2.6875 -2.140625,0 -4.34375,2.265625 -4.34375,4.59375 0,1.65625 1.125,2.65625 2.5625,2.65625 0.25,0 0.578125,-0.046875 0.96875,-0.15625 -0.03125,0.625 -0.03125,0.640625 -0.03125,0.78125 0,0.3125 0,1.09375 0.828125,1.09375 1.171875,0 1.65625,-1.828125 1.65625,-1.9375 0,-0.0625 -0.0625,-0.09375 -0.109375,-0.09375 -0.078125,0 -0.09375,0.046875 -0.125,0.109375 C 6,0.71875 5.421875,0.96875 5.078125,0.96875 c -0.46875,0 -0.609375,-0.265625 -0.71875,-1.03125 z m -1.875,-0.078125 c -0.78125,-0.3125 -1.125,-1.078125 -1.125,-1.984375 0,-0.6875 0.265625,-2.109375 1.015625,-3.171875 C 3.109375,-6.3125 4.046875,-6.78125 4.78125,-6.78125 5.765625,-6.78125 6.5,-6 6.5,-4.671875 c 0,1 -0.515625,3.34375 -2.1875,4.265625 -0.046875,-0.34375 -0.140625,-1.0625 -0.875,-1.0625 -0.53125,0 -1.015625,0.484375 -1.015625,1.015625 0,0.1875 0.0625,0.296875 0.0625,0.3125 z M 3.09375,-0.03125 c -0.140625,0 -0.453125,0 -0.453125,-0.421875 0,-0.40625 0.375,-0.796875 0.796875,-0.796875 0.421875,0 0.609375,0.234375 0.609375,0.84375 0,0.140625 -0.015625,0.15625 -0.109375,0.203125 C 3.671875,-0.09375 3.375,-0.03125 3.09375,-0.03125 Z m 0,0"
                   id="id-f100b573-3796-4552-ae33-52b2c16bfd9f" />
              </symbol>
            </g>
          </defs>
          <g
             id="id-b67ed23d-c2dd-4e44-bea0-646f1c8762d5"
             transform="translate(-148.711,-126.364)">
            <path
               style="fill:none;stroke:#000000;stroke-width:0.398;stroke-linecap:butt;stroke-linejoin:miter;stroke-miterlimit:10;stroke-opacity:1"
               d="M -0.0010625,-5e-4 H 7.877844"
               transform="matrix(1,0,0,-1,148.712,126.562)"
               id="id-f166be50-f765-4a89-a8bf-24828b1630a5" />
            <g
               style="fill:#000000;fill-opacity:1"
               id="id-28986897-72d3-4c0f-9020-f413e520993a">
              <g
                 transform="translate(148.712,134.765)"
                 id="g2467">
                <path
                   style="stroke:none"
                   d="M 4.359375,-0.0625 C 5.90625,-0.640625 7.375,-2.421875 7.375,-4.34375 c 0,-1.609375 -1.0625,-2.6875 -2.546875,-2.6875 -2.140625,0 -4.34375,2.265625 -4.34375,4.59375 0,1.65625 1.125,2.65625 2.5625,2.65625 0.25,0 0.578125,-0.046875 0.96875,-0.15625 -0.03125,0.625 -0.03125,0.640625 -0.03125,0.78125 0,0.3125 0,1.09375 0.828125,1.09375 1.171875,0 1.65625,-1.828125 1.65625,-1.9375 0,-0.0625 -0.0625,-0.09375 -0.109375,-0.09375 -0.078125,0 -0.09375,0.046875 -0.125,0.109375 C 6,0.71875 5.421875,0.96875 5.078125,0.96875 c -0.46875,0 -0.609375,-0.265625 -0.71875,-1.03125 z m -1.875,-0.078125 c -0.78125,-0.3125 -1.125,-1.078125 -1.125,-1.984375 0,-0.6875 0.265625,-2.109375 1.015625,-3.171875 C 3.109375,-6.3125 4.046875,-6.78125 4.78125,-6.78125 5.765625,-6.78125 6.5,-6 6.5,-4.671875 c 0,1 -0.515625,3.34375 -2.1875,4.265625 -0.046875,-0.34375 -0.140625,-1.0625 -0.875,-1.0625 -0.53125,0 -1.015625,0.484375 -1.015625,1.015625 0,0.1875 0.0625,0.296875 0.0625,0.3125 z M 3.09375,-0.03125 c -0.140625,0 -0.453125,0 -0.453125,-0.421875 0,-0.40625 0.375,-0.796875 0.796875,-0.796875 0.421875,0 0.609375,0.234375 0.609375,0.84375 0,0.140625 -0.015625,0.15625 -0.109375,0.203125 C 3.671875,-0.09375 3.375,-0.03125 3.09375,-0.03125 Z m 0,0"
                   id="id-3481a4f7-2d54-41f4-961f-5ad77e98a99b" />
              </g>
            </g>
          </g>
        </g>
      </g>
    </g>
    <g
       inkscape:label="input"
       id="g2496">
      <g
         inkscape:label="input"
         id="g2479">
        <path
           d="M 150,280 H 140"
           style="fill:none;stroke:#000000;stroke-width:1;stroke-linecap:round;stroke-linejoin:round;stroke-dasharray:none"
           inkscape:label="input"
           id="path2477" />
      </g>
      <g
         inkscape:label="Layer 1"
         inkscape:groupmode="layer"
         id="g2494"
         transform="matrix(0.663596,0,0,0.663596,-108.43861,-91.613753)">
        <g
           transform="matrix(1.33333,0,0,1.33333,395.479,555.5)"
           ns0:version="1.1.0"
           ns0:texconverter="pdflatex"
           ns0:pdfconverter="inkscape"
           ns0:text=" $T$"
           ns0:preamble="/home/fernando/.config/inkscape/extensions/logicGates/logicGatesPreamble.tex"
           ns0:scale="1.0"
           ns0:alignment="middle center"
           ns0:inkscapeversion="1.0.1"
           ns0:jacobian_sqrt="1.33333"
           id="g2492">
          <defs
             id="id-bb969566-b362-4b57-901c-97466e64bcf4">
            <g
               id="id-e22ebb97-7989-4b68-acb8-2ef5d2768f02">
              <symbol
                 overflow="visible"
                 id="id-8581b0f5-37d4-4639-996e-bf18f7a54792">
                <path
                   style="stroke:none"
                   d=""
                   id="id-c0b41354-c468-49f6-b17d-452b607b3a17" />
              </symbol>
              <symbol
                 overflow="visible"
                 id="id-1cfc1344-c0c7-4a37-bfbf-f5ef81e3b9da">
                <path
                   style="stroke:none"
                   d="m 4.25,-6.046875 c 0.078125,-0.28125 0.109375,-0.34375 0.234375,-0.375 0.09375,-0.015625 0.421875,-0.015625 0.625,-0.015625 1.015625,0 1.453125,0.03125 1.453125,0.8125 0,0.15625 -0.03125,0.546875 -0.078125,0.796875 0,0.046875 -0.03125,0.15625 -0.03125,0.1875 0,0.0625 0.03125,0.140625 0.125,0.140625 0.109375,0 0.125,-0.078125 0.15625,-0.234375 L 7,-6.46875 C 7.015625,-6.515625 7.015625,-6.609375 7.015625,-6.640625 7.015625,-6.75 6.921875,-6.75 6.75,-6.75 H 1.21875 c -0.234375,0 -0.25,0.015625 -0.328125,0.203125 l -0.59375,1.75 c 0,0.015625 -0.0625,0.15625 -0.0625,0.1875 0,0.046875 0.0625,0.109375 0.125,0.109375 0.09375,0 0.109375,-0.0625 0.171875,-0.21875 C 1.0625,-6.265625 1.328125,-6.4375 2.796875,-6.4375 H 3.1875 c 0.28125,0 0.28125,0.03125 0.28125,0.125 0,0.046875 -0.03125,0.171875 -0.046875,0.203125 L 2.09375,-0.78125 C 2,-0.421875 1.96875,-0.3125 0.90625,-0.3125 c -0.359375,0 -0.421875,0 -0.421875,0.1875 C 0.484375,0 0.59375,0 0.65625,0 c 0.265625,0 0.546875,-0.015625 0.8125,-0.015625 0.28125,0 0.578125,-0.015625 0.859375,-0.015625 0.28125,0 0.546875,0.015625 0.828125,0.015625 C 3.4375,-0.015625 3.734375,0 4.015625,0 c 0.09375,0 0.21875,0 0.21875,-0.203125 0,-0.109375 -0.078125,-0.109375 -0.34375,-0.109375 -0.234375,0 -0.375,0 -0.625,-0.015625 -0.296875,-0.03125 -0.375,-0.0625 -0.375,-0.21875 0,-0.015625 0,-0.0625 0.046875,-0.203125 z m 0,0"
                   id="id-03c11480-0f22-4070-a388-3b09893bb391" />
              </symbol>
            </g>
          </defs>
          <g
             id="id-74a316ee-924a-4499-a016-d983303c5ff4"
             transform="translate(-148.946,-128.015)">
            <g
               style="fill:#000000;fill-opacity:1"
               id="id-4851b73b-c4b3-43b1-a225-733e1222a05e">
              <g
                 transform="translate(148.712,134.765)"
                 id="g2488">
                <path
                   style="stroke:none"
                   d="m 4.25,-6.046875 c 0.078125,-0.28125 0.109375,-0.34375 0.234375,-0.375 0.09375,-0.015625 0.421875,-0.015625 0.625,-0.015625 1.015625,0 1.453125,0.03125 1.453125,0.8125 0,0.15625 -0.03125,0.546875 -0.078125,0.796875 0,0.046875 -0.03125,0.15625 -0.03125,0.1875 0,0.0625 0.03125,0.140625 0.125,0.140625 0.109375,0 0.125,-0.078125 0.15625,-0.234375 L 7,-6.46875 C 7.015625,-6.515625 7.015625,-6.609375 7.015625,-6.640625 7.015625,-6.75 6.921875,-6.75 6.75,-6.75 H 1.21875 c -0.234375,0 -0.25,0.015625 -0.328125,0.203125 l -0.59375,1.75 c 0,0.015625 -0.0625,0.15625 -0.0625,0.1875 0,0.046875 0.0625,0.109375 0.125,0.109375 0.09375,0 0.109375,-0.0625 0.171875,-0.21875 C 1.0625,-6.265625 1.328125,-6.4375 2.796875,-6.4375 H 3.1875 c 0.28125,0 0.28125,0.03125 0.28125,0.125 0,0.046875 -0.03125,0.171875 -0.046875,0.203125 L 2.09375,-0.78125 C 2,-0.421875 1.96875,-0.3125 0.90625,-0.3125 c -0.359375,0 -0.421875,0 -0.421875,0.1875 C 0.484375,0 0.59375,0 0.65625,0 c 0.265625,0 0.546875,-0.015625 0.8125,-0.015625 0.28125,0 0.578125,-0.015625 0.859375,-0.015625 0.28125,0 0.546875,0.015625 0.828125,0.015625 C 3.4375,-0.015625 3.734375,0 4.015625,0 c 0.09375,0 0.21875,0 0.21875,-0.203125 0,-0.109375 -0.078125,-0.109375 -0.34375,-0.109375 -0.234375,0 -0.375,0 -0.625,-0.015625 -0.296875,-0.03125 -0.375,-0.0625 -0.375,-0.21875 0,-0.015625 0,-0.0625 0.046875,-0.203125 z m 0,0"
                   id="id-ada1fe04-3684-4345-a6d9-8deaebe0bbc7" />
              </g>
            </g>
          </g>
        </g>
      </g>
    </g>
  </g>
  <g
     inkscape:label="Latch"
     id="g2957"
     transform="translate(55,-15)"
     inkscape:export-xdpi="347.51132"
     inkscape:export-ydpi="347.51132">
    <rect
       height="50"
       rx="None"
       ry="None"
       style="fill:none;stroke:#000000;stroke-width:1.5;stroke-linecap:round;stroke-linejoin:round;stroke-dasharray:none"
       width="40"
       x="150"
       y="265"
       inkscape:label="rectangle"
       id="rect2870" />
    <g
       inkscape:label="Q"
       id="g2891">
      <g
         inkscape:label="Q"
         transform="rotate(180,190,275)"
         id="g2874">
        <path
           d="M 190,275 H 180"
           style="fill:none;stroke:#000000;stroke-width:1;stroke-linecap:round;stroke-linejoin:round;stroke-dasharray:none"
           inkscape:label="Q"
           id="path2872" />
      </g>
      <g
         inkscape:label="Layer 1"
         inkscape:groupmode="layer"
         id="g2889"
         transform="matrix(0.663596,0,0,0.663596,-82.486945,-96.613639)">
        <g
           transform="matrix(1.33333,0,0,1.33333,395.406,554.021)"
           ns0:version="1.1.0"
           ns0:texconverter="pdflatex"
           ns0:pdfconverter="inkscape"
           ns0:text=" $Q$"
           ns0:preamble="/home/fernando/.config/inkscape/extensions/logicGates/logicGatesPreamble.tex"
           ns0:scale="1.0"
           ns0:alignment="middle center"
           ns0:inkscapeversion="1.0.1"
           ns0:jacobian_sqrt="1.33333"
           id="g2887">
          <defs
             id="id-1663855b-0e32-4ee7-9805-942bffb97f37">
            <g
               id="id-953f2e0f-1311-4cda-ae60-2efa37bd40f3">
              <symbol
                 overflow="visible"
                 id="id-f5e097dd-0b2f-4e40-ac3f-dd7719578750">
                <path
                   style="stroke:none"
                   d=""
                   id="id-d506da3a-8f84-454f-94f8-d8b7209bf1d7" />
              </symbol>
              <symbol
                 overflow="visible"
                 id="id-8d0106f3-7c7a-4f55-8d0b-396b753fc5fe">
                <path
                   style="stroke:none"
                   d="M 4.359375,-0.0625 C 5.90625,-0.640625 7.375,-2.421875 7.375,-4.34375 c 0,-1.609375 -1.0625,-2.6875 -2.546875,-2.6875 -2.140625,0 -4.34375,2.265625 -4.34375,4.59375 0,1.65625 1.125,2.65625 2.5625,2.65625 0.25,0 0.578125,-0.046875 0.96875,-0.15625 -0.03125,0.625 -0.03125,0.640625 -0.03125,0.78125 0,0.3125 0,1.09375 0.828125,1.09375 1.171875,0 1.65625,-1.828125 1.65625,-1.9375 0,-0.0625 -0.0625,-0.09375 -0.109375,-0.09375 -0.078125,0 -0.09375,0.046875 -0.125,0.109375 C 6,0.71875 5.421875,0.96875 5.078125,0.96875 c -0.46875,0 -0.609375,-0.265625 -0.71875,-1.03125 z m -1.875,-0.078125 c -0.78125,-0.3125 -1.125,-1.078125 -1.125,-1.984375 0,-0.6875 0.265625,-2.109375 1.015625,-3.171875 C 3.109375,-6.3125 4.046875,-6.78125 4.78125,-6.78125 5.765625,-6.78125 6.5,-6 6.5,-4.671875 c 0,1 -0.515625,3.34375 -2.1875,4.265625 -0.046875,-0.34375 -0.140625,-1.0625 -0.875,-1.0625 -0.53125,0 -1.015625,0.484375 -1.015625,1.015625 0,0.1875 0.0625,0.296875 0.0625,0.3125 z M 3.09375,-0.03125 c -0.140625,0 -0.453125,0 -0.453125,-0.421875 0,-0.40625 0.375,-0.796875 0.796875,-0.796875 0.421875,0 0.609375,0.234375 0.609375,0.84375 0,0.140625 -0.015625,0.15625 -0.109375,0.203125 C 3.671875,-0.09375 3.375,-0.03125 3.09375,-0.03125 Z m 0,0"
                   id="id-2d6b761d-c360-4704-bb63-2af482aa9483" />
              </symbol>
            </g>
          </defs>
          <g
             id="id-cffdef0f-c003-4f49-a8f2-32c18afdf0f0"
             transform="translate(-149.196,-127.734)">
            <g
               style="fill:#000000;fill-opacity:1"
               id="id-b455f665-d0d0-4d19-b0b7-0cd436dee7f8">
              <g
                 transform="translate(148.712,134.765)"
                 id="g2883">
                <path
                   style="stroke:none"
                   d="M 4.359375,-0.0625 C 5.90625,-0.640625 7.375,-2.421875 7.375,-4.34375 c 0,-1.609375 -1.0625,-2.6875 -2.546875,-2.6875 -2.140625,0 -4.34375,2.265625 -4.34375,4.59375 0,1.65625 1.125,2.65625 2.5625,2.65625 0.25,0 0.578125,-0.046875 0.96875,-0.15625 -0.03125,0.625 -0.03125,0.640625 -0.03125,0.78125 0,0.3125 0,1.09375 0.828125,1.09375 1.171875,0 1.65625,-1.828125 1.65625,-1.9375 0,-0.0625 -0.0625,-0.09375 -0.109375,-0.09375 -0.078125,0 -0.09375,0.046875 -0.125,0.109375 C 6,0.71875 5.421875,0.96875 5.078125,0.96875 c -0.46875,0 -0.609375,-0.265625 -0.71875,-1.03125 z m -1.875,-0.078125 c -0.78125,-0.3125 -1.125,-1.078125 -1.125,-1.984375 0,-0.6875 0.265625,-2.109375 1.015625,-3.171875 C 3.109375,-6.3125 4.046875,-6.78125 4.78125,-6.78125 5.765625,-6.78125 6.5,-6 6.5,-4.671875 c 0,1 -0.515625,3.34375 -2.1875,4.265625 -0.046875,-0.34375 -0.140625,-1.0625 -0.875,-1.0625 -0.53125,0 -1.015625,0.484375 -1.015625,1.015625 0,0.1875 0.0625,0.296875 0.0625,0.3125 z M 3.09375,-0.03125 c -0.140625,0 -0.453125,0 -0.453125,-0.421875 0,-0.40625 0.375,-0.796875 0.796875,-0.796875 0.421875,0 0.609375,0.234375 0.609375,0.84375 0,0.140625 -0.015625,0.15625 -0.109375,0.203125 C 3.671875,-0.09375 3.375,-0.03125 3.09375,-0.03125 Z m 0,0"
                   id="id-cb908d93-703e-4c60-ad6f-fb82c5376124" />
              </g>
            </g>
          </g>
        </g>
      </g>
    </g>
    <g
       inkscape:label="notQ"
       id="g2913">
      <g
         inkscape:label="notQ"
         transform="rotate(180,190,305)"
         id="g2895">
        <path
           d="M 190,305 H 180"
           style="fill:none;stroke:#000000;stroke-width:1;stroke-linecap:round;stroke-linejoin:round;stroke-dasharray:none"
           inkscape:label="notQ"
           id="path2893" />
      </g>
      <g
         inkscape:label="Layer 1"
         inkscape:groupmode="layer"
         id="g2911"
         transform="matrix(0.663596,0,0,0.663596,-82.923672,-66.613527)">
        <g
           transform="matrix(1.33333,0,0,1.33333,394.747,552.975)"
           ns0:version="1.1.0"
           ns0:texconverter="pdflatex"
           ns0:pdfconverter="inkscape"
           ns0:text=" $\\NOT{Q}$"
           ns0:preamble="/home/fernando/.config/inkscape/extensions/logicGates/logicGatesPreamble.tex"
           ns0:scale="1.0"
           ns0:alignment="middle center"
           ns0:inkscapeversion="1.0.1"
           ns0:jacobian_sqrt="1.33333"
           id="g2909">
          <defs
             id="id-4cbc48cb-65d5-4b33-b584-00607da26901">
            <g
               id="id-e4445b22-acc4-4058-a2c8-f77d13c78c86">
              <symbol
                 overflow="visible"
                 id="id-800f732c-ce1d-4bb3-870a-67b72bdf2d7a">
                <path
                   style="stroke:none"
                   d=""
                   id="id-cc01ea4f-f3e5-4cc4-8f44-3b66a92bf735" />
              </symbol>
              <symbol
                 overflow="visible"
                 id="id-dc0dbda3-e382-42b0-8492-5d70cd218021">
                <path
                   style="stroke:none"
                   d="M 4.359375,-0.0625 C 5.90625,-0.640625 7.375,-2.421875 7.375,-4.34375 c 0,-1.609375 -1.0625,-2.6875 -2.546875,-2.6875 -2.140625,0 -4.34375,2.265625 -4.34375,4.59375 0,1.65625 1.125,2.65625 2.5625,2.65625 0.25,0 0.578125,-0.046875 0.96875,-0.15625 -0.03125,0.625 -0.03125,0.640625 -0.03125,0.78125 0,0.3125 0,1.09375 0.828125,1.09375 1.171875,0 1.65625,-1.828125 1.65625,-1.9375 0,-0.0625 -0.0625,-0.09375 -0.109375,-0.09375 -0.078125,0 -0.09375,0.046875 -0.125,0.109375 C 6,0.71875 5.421875,0.96875 5.078125,0.96875 c -0.46875,0 -0.609375,-0.265625 -0.71875,-1.03125 z m -1.875,-0.078125 c -0.78125,-0.3125 -1.125,-1.078125 -1.125,-1.984375 0,-0.6875 0.265625,-2.109375 1.015625,-3.171875 C 3.109375,-6.3125 4.046875,-6.78125 4.78125,-6.78125 5.765625,-6.78125 6.5,-6 6.5,-4.671875 c 0,1 -0.515625,3.34375 -2.1875,4.265625 -0.046875,-0.34375 -0.140625,-1.0625 -0.875,-1.0625 -0.53125,0 -1.015625,0.484375 -1.015625,1.015625 0,0.1875 0.0625,0.296875 0.0625,0.3125 z M 3.09375,-0.03125 c -0.140625,0 -0.453125,0 -0.453125,-0.421875 0,-0.40625 0.375,-0.796875 0.796875,-0.796875 0.421875,0 0.609375,0.234375 0.609375,0.84375 0,0.140625 -0.015625,0.15625 -0.109375,0.203125 C 3.671875,-0.09375 3.375,-0.03125 3.09375,-0.03125 Z m 0,0"
                   id="id-86e51ec8-9c81-4c4b-8170-28cdc3fe97df" />
              </symbol>
            </g>
          </defs>
          <g
             id="id-b6d22f9e-b29f-4512-983b-f8e1048fca38"
             transform="translate(-148.711,-126.364)">
            <path
               style="fill:none;stroke:#000000;stroke-width:0.398;stroke-linecap:butt;stroke-linejoin:miter;stroke-miterlimit:10;stroke-opacity:1"
               d="M -0.0010625,-5e-4 H 7.877844"
               transform="matrix(1,0,0,-1,148.712,126.562)"
               id="id-9292e7dd-1374-4a88-8a18-bbe33f4d7862" />
            <g
               style="fill:#000000;fill-opacity:1"
               id="id-a325ed80-20e4-48c7-a49b-6e4eebd82e08">
              <g
                 transform="translate(148.712,134.765)"
                 id="g2905">
                <path
                   style="stroke:none"
                   d="M 4.359375,-0.0625 C 5.90625,-0.640625 7.375,-2.421875 7.375,-4.34375 c 0,-1.609375 -1.0625,-2.6875 -2.546875,-2.6875 -2.140625,0 -4.34375,2.265625 -4.34375,4.59375 0,1.65625 1.125,2.65625 2.5625,2.65625 0.25,0 0.578125,-0.046875 0.96875,-0.15625 -0.03125,0.625 -0.03125,0.640625 -0.03125,0.78125 0,0.3125 0,1.09375 0.828125,1.09375 1.171875,0 1.65625,-1.828125 1.65625,-1.9375 0,-0.0625 -0.0625,-0.09375 -0.109375,-0.09375 -0.078125,0 -0.09375,0.046875 -0.125,0.109375 C 6,0.71875 5.421875,0.96875 5.078125,0.96875 c -0.46875,0 -0.609375,-0.265625 -0.71875,-1.03125 z m -1.875,-0.078125 c -0.78125,-0.3125 -1.125,-1.078125 -1.125,-1.984375 0,-0.6875 0.265625,-2.109375 1.015625,-3.171875 C 3.109375,-6.3125 4.046875,-6.78125 4.78125,-6.78125 5.765625,-6.78125 6.5,-6 6.5,-4.671875 c 0,1 -0.515625,3.34375 -2.1875,4.265625 -0.046875,-0.34375 -0.140625,-1.0625 -0.875,-1.0625 -0.53125,0 -1.015625,0.484375 -1.015625,1.015625 0,0.1875 0.0625,0.296875 0.0625,0.3125 z M 3.09375,-0.03125 c -0.140625,0 -0.453125,0 -0.453125,-0.421875 0,-0.40625 0.375,-0.796875 0.796875,-0.796875 0.421875,0 0.609375,0.234375 0.609375,0.84375 0,0.140625 -0.015625,0.15625 -0.109375,0.203125 C 3.671875,-0.09375 3.375,-0.03125 3.09375,-0.03125 Z m 0,0"
                   id="id-c194c934-9353-4bd8-8972-8c96fe76e500" />
              </g>
            </g>
          </g>
        </g>
      </g>
    </g>
    <g
       inkscape:label="input"
       id="g2934">
      <g
         inkscape:label="input"
         id="g2917">
        <path
           d="M 150,275 H 140"
           style="fill:none;stroke:#000000;stroke-width:1;stroke-linecap:round;stroke-linejoin:round;stroke-dasharray:none"
           inkscape:label="input"
           id="path2915" />
      </g>
      <g
         inkscape:label="Layer 1"
         inkscape:groupmode="layer"
         id="g2932"
         transform="matrix(0.663596,0,0,0.663596,-108.95666,-96.613642)">
        <g
           transform="matrix(1.33333,0,0,1.33333,396.26,555.313)"
           ns0:version="1.1.0"
           ns0:texconverter="pdflatex"
           ns0:pdfconverter="inkscape"
           ns0:text=" $J$"
           ns0:preamble="/home/fernando/.config/inkscape/extensions/logicGates/logicGatesPreamble.tex"
           ns0:scale="1.0"
           ns0:alignment="middle center"
           ns0:inkscapeversion="1.0.1"
           ns0:jacobian_sqrt="1.33333"
           id="g2930">
          <defs
             id="id-f8876013-e2ab-48b5-8131-d8c9d92abc2e">
            <g
               id="id-1e67a53f-8e56-4917-89a5-b786ccddf784">
              <symbol
                 overflow="visible"
                 id="id-874dc245-8e29-4d8c-b6cc-1b967002440c">
                <path
                   style="stroke:none"
                   d=""
                   id="id-3d11d318-5ba9-4758-9ab0-ce99a7ce79c4" />
              </symbol>
              <symbol
                 overflow="visible"
                 id="id-7e0d8ad7-4f5e-4cf9-ae6e-9d677faae27e">
                <path
                   style="stroke:none"
                   d="M 5.390625,-6.078125 C 5.46875,-6.40625 5.5,-6.5 6.046875,-6.5 c 0.15625,0 0.265625,0 0.265625,-0.1875 0,-0.09375 -0.0625,-0.125 -0.140625,-0.125 -0.25,0 -0.859375,0.03125 -1.109375,0.03125 -0.328125,0 -1.140625,-0.03125 -1.46875,-0.03125 -0.078125,0 -0.203125,0 -0.203125,0.203125 C 3.390625,-6.5 3.46875,-6.5 3.734375,-6.5 c 0.21875,0 0.328125,0 0.578125,0.015625 0.234375,0.03125 0.296875,0.0625 0.296875,0.203125 0,0.0625 -0.015625,0.125 -0.03125,0.203125 L 3.421875,-1.5 C 3.1875,-0.53125 2.515625,0 2,0 1.734375,0 1.203125,-0.09375 1.046875,-0.625 c 0.03125,0.015625 0.09375,0.015625 0.125,0.015625 0.390625,0 0.640625,-0.34375 0.640625,-0.640625 0,-0.3125 -0.265625,-0.421875 -0.4375,-0.421875 -0.171875,0 -0.671875,0.125 -0.671875,0.796875 0,0.625 0.53125,1.09375 1.328125,1.09375 0.90625,0 1.953125,-0.65625 2.203125,-1.640625 z m 0,0"
                   id="id-653bb0e5-dc4e-4b13-9513-72c368c3fb9e" />
              </symbol>
            </g>
          </defs>
          <g
             id="id-c08df1cf-984f-4feb-b954-604c4bc496cd"
             transform="translate(-149.415,-127.953)">
            <g
               style="fill:#000000;fill-opacity:1"
               id="id-2d0c00eb-86e4-4c35-941a-9a8c71bc49df">
              <g
                 transform="translate(148.712,134.765)"
                 id="g2926">
                <path
                   style="stroke:none"
                   d="M 5.390625,-6.078125 C 5.46875,-6.40625 5.5,-6.5 6.046875,-6.5 c 0.15625,0 0.265625,0 0.265625,-0.1875 0,-0.09375 -0.0625,-0.125 -0.140625,-0.125 -0.25,0 -0.859375,0.03125 -1.109375,0.03125 -0.328125,0 -1.140625,-0.03125 -1.46875,-0.03125 -0.078125,0 -0.203125,0 -0.203125,0.203125 C 3.390625,-6.5 3.46875,-6.5 3.734375,-6.5 c 0.21875,0 0.328125,0 0.578125,0.015625 0.234375,0.03125 0.296875,0.0625 0.296875,0.203125 0,0.0625 -0.015625,0.125 -0.03125,0.203125 L 3.421875,-1.5 C 3.1875,-0.53125 2.515625,0 2,0 1.734375,0 1.203125,-0.09375 1.046875,-0.625 c 0.03125,0.015625 0.09375,0.015625 0.125,0.015625 0.390625,0 0.640625,-0.34375 0.640625,-0.640625 0,-0.3125 -0.265625,-0.421875 -0.4375,-0.421875 -0.171875,0 -0.671875,0.125 -0.671875,0.796875 0,0.625 0.53125,1.09375 1.328125,1.09375 0.90625,0 1.953125,-0.65625 2.203125,-1.640625 z m 0,0"
                   id="id-b22ae091-eec6-4dad-95e3-a0a5597ed310" />
              </g>
            </g>
          </g>
        </g>
      </g>
    </g>
    <g
       inkscape:label="input"
       id="g2955">
      <g
         inkscape:label="input"
         id="g2938">
        <path
           d="M 150,305 H 140"
           style="fill:none;stroke:#000000;stroke-width:1;stroke-linecap:round;stroke-linejoin:round;stroke-dasharray:none"
           inkscape:label="input"
           id="path2936" />
      </g>
      <g
         inkscape:label="Layer 1"
         inkscape:groupmode="layer"
         id="g2953"
         transform="matrix(0.663596,0,0,0.663596,-107.6851,-66.613089)">
        <g
           transform="matrix(1.33333,0,0,1.33333,394.344,555.458)"
           ns0:version="1.1.0"
           ns0:texconverter="pdflatex"
           ns0:pdfconverter="inkscape"
           ns0:text=" $K$"
           ns0:preamble="/home/fernando/.config/inkscape/extensions/logicGates/logicGatesPreamble.tex"
           ns0:scale="1.0"
           ns0:alignment="middle center"
           ns0:inkscapeversion="1.0.1"
           ns0:jacobian_sqrt="1.33333"
           id="g2951">
          <defs
             id="id-5a400ccb-f79d-4ec8-ab53-a9076baf860f">
            <g
               id="id-8cced5a3-cd9a-45e5-b38f-a279901ee37a">
              <symbol
                 overflow="visible"
                 id="id-cb542c2d-079a-40b9-9fd3-55a3c28a089c">
                <path
                   style="stroke:none"
                   d=""
                   id="id-fff7c968-6023-42fd-af89-b4c75b43c605" />
              </symbol>
              <symbol
                 overflow="visible"
                 id="id-e56cfb04-e808-44f5-b72c-261eeb2448cc">
                <path
                   style="stroke:none"
                   d="M 5.078125,-4.03125 C 5.0625,-4.0625 5.03125,-4.140625 5.03125,-4.171875 c 0,0 0.171875,-0.140625 0.28125,-0.21875 l 1.75,-1.34375 C 8,-6.4375 8.390625,-6.46875 8.6875,-6.5 8.765625,-6.515625 8.859375,-6.515625 8.859375,-6.703125 8.859375,-6.734375 8.828125,-6.8125 8.75,-6.8125 c -0.21875,0 -0.46875,0.03125 -0.703125,0.03125 -0.359375,0 -0.75,-0.03125 -1.109375,-0.03125 -0.0625,0 -0.1875,0 -0.1875,0.203125 0,0.0625 0.046875,0.09375 0.125,0.109375 0.21875,0.015625 0.296875,0.0625 0.296875,0.203125 0,0.1875 -0.296875,0.421875 -0.359375,0.46875 L 2.9375,-2.84375 3.734375,-6.046875 C 3.8125,-6.40625 3.84375,-6.5 4.5625,-6.5 c 0.25,0 0.34375,0 0.34375,-0.203125 0,-0.078125 -0.078125,-0.109375 -0.140625,-0.109375 -0.28125,0 -1,0.03125 -1.28125,0.03125 C 3.203125,-6.78125 2.5,-6.8125 2.203125,-6.8125 2.140625,-6.8125 2,-6.8125 2,-6.625 2,-6.5 2.09375,-6.5 2.296875,-6.5 c 0.125,0 0.3125,0.015625 0.421875,0.015625 0.15625,0.03125 0.21875,0.046875 0.21875,0.171875 0,0.03125 0,0.0625 -0.03125,0.1875 L 1.5625,-0.78125 c -0.09375,0.390625 -0.109375,0.46875 -0.90625,0.46875 -0.171875,0 -0.28125,0 -0.28125,0.1875 C 0.375,0 0.5,0 0.53125,0 0.8125,0 1.515625,-0.03125 1.796875,-0.03125 2,-0.03125 2.21875,-0.015625 2.4375,-0.015625 2.65625,-0.015625 2.875,0 3.078125,0 3.15625,0 3.28125,0 3.28125,-0.203125 3.28125,-0.3125 3.1875,-0.3125 3,-0.3125 c -0.375,0 -0.640625,0 -0.640625,-0.171875 0,-0.078125 0.046875,-0.296875 0.078125,-0.4375 C 2.578125,-1.453125 2.71875,-1.96875 2.84375,-2.5 l 1.484375,-1.15625 1.15625,2.6875 c 0.125,0.265625 0.125,0.296875 0.125,0.34375 0,0.3125 -0.4375,0.3125 -0.53125,0.3125 -0.109375,0 -0.21875,0 -0.21875,0.203125 C 4.859375,0 4.984375,0 5,0 5.40625,0 5.828125,-0.03125 6.21875,-0.03125 6.4375,-0.03125 6.984375,0 7.203125,0 7.25,0 7.375,0 7.375,-0.203125 7.375,-0.3125 7.265625,-0.3125 7.171875,-0.3125 c -0.40625,0 -0.53125,-0.09375 -0.6875,-0.4375 z m 0,0"
                   id="id-c952a08a-996d-419f-a9cb-440b1b0e54b4" />
              </symbol>
            </g>
          </defs>
          <g
             id="id-0c2e7dcc-e3ea-47e2-a751-107c11426bf7"
             transform="translate(-149.087,-127.953)">
            <g
               style="fill:#000000;fill-opacity:1"
               id="id-846f5580-8021-4626-86d5-97060da1078e">
              <g
                 transform="translate(148.712,134.765)"
                 id="g2947">
                <path
                   style="stroke:none"
                   d="M 5.078125,-4.03125 C 5.0625,-4.0625 5.03125,-4.140625 5.03125,-4.171875 c 0,0 0.171875,-0.140625 0.28125,-0.21875 l 1.75,-1.34375 C 8,-6.4375 8.390625,-6.46875 8.6875,-6.5 8.765625,-6.515625 8.859375,-6.515625 8.859375,-6.703125 8.859375,-6.734375 8.828125,-6.8125 8.75,-6.8125 c -0.21875,0 -0.46875,0.03125 -0.703125,0.03125 -0.359375,0 -0.75,-0.03125 -1.109375,-0.03125 -0.0625,0 -0.1875,0 -0.1875,0.203125 0,0.0625 0.046875,0.09375 0.125,0.109375 0.21875,0.015625 0.296875,0.0625 0.296875,0.203125 0,0.1875 -0.296875,0.421875 -0.359375,0.46875 L 2.9375,-2.84375 3.734375,-6.046875 C 3.8125,-6.40625 3.84375,-6.5 4.5625,-6.5 c 0.25,0 0.34375,0 0.34375,-0.203125 0,-0.078125 -0.078125,-0.109375 -0.140625,-0.109375 -0.28125,0 -1,0.03125 -1.28125,0.03125 C 3.203125,-6.78125 2.5,-6.8125 2.203125,-6.8125 2.140625,-6.8125 2,-6.8125 2,-6.625 2,-6.5 2.09375,-6.5 2.296875,-6.5 c 0.125,0 0.3125,0.015625 0.421875,0.015625 0.15625,0.03125 0.21875,0.046875 0.21875,0.171875 0,0.03125 0,0.0625 -0.03125,0.1875 L 1.5625,-0.78125 c -0.09375,0.390625 -0.109375,0.46875 -0.90625,0.46875 -0.171875,0 -0.28125,0 -0.28125,0.1875 C 0.375,0 0.5,0 0.53125,0 0.8125,0 1.515625,-0.03125 1.796875,-0.03125 2,-0.03125 2.21875,-0.015625 2.4375,-0.015625 2.65625,-0.015625 2.875,0 3.078125,0 3.15625,0 3.28125,0 3.28125,-0.203125 3.28125,-0.3125 3.1875,-0.3125 3,-0.3125 c -0.375,0 -0.640625,0 -0.640625,-0.171875 0,-0.078125 0.046875,-0.296875 0.078125,-0.4375 C 2.578125,-1.453125 2.71875,-1.96875 2.84375,-2.5 l 1.484375,-1.15625 1.15625,2.6875 c 0.125,0.265625 0.125,0.296875 0.125,0.34375 0,0.3125 -0.4375,0.3125 -0.53125,0.3125 -0.109375,0 -0.21875,0 -0.21875,0.203125 C 4.859375,0 4.984375,0 5,0 5.40625,0 5.828125,-0.03125 6.21875,-0.03125 6.4375,-0.03125 6.984375,0 7.203125,0 7.25,0 7.375,0 7.375,-0.203125 7.375,-0.3125 7.265625,-0.3125 7.171875,-0.3125 c -0.40625,0 -0.53125,-0.09375 -0.6875,-0.4375 z m 0,0"
                   id="id-49409711-4fc0-486b-abc5-5681a08442b9" />
              </g>
            </g>
          </g>
        </g>
      </g>
    </g>
  </g>
</svg>
