<?xml version="1.0" encoding="UTF-8" standalone="no"?>
<!-- Created with Inkscape (http://www.inkscape.org/) -->

<svg
   xmlns:ns0="http://www.iki.fi/pav/software/textext/"
   xmlns:dc="http://purl.org/dc/elements/1.1/"
   xmlns:cc="http://creativecommons.org/ns#"
   xmlns:rdf="http://www.w3.org/1999/02/22-rdf-syntax-ns#"
   xmlns:svg="http://www.w3.org/2000/svg"
   xmlns="http://www.w3.org/2000/svg"
   xmlns:sodipodi="http://sodipodi.sourceforge.net/DTD/sodipodi-0.dtd"
   xmlns:inkscape="http://www.inkscape.org/namespaces/inkscape"
   width="210mm"
   height="297mm"
   viewBox="0 0 793.7008056641 1122.51965332"
   version="1.1"
   id="svg2"
   inkscape:version="0.92.1 unknown"
   sodipodi:docname="Latch_asynchronousInputs.svg">
  <sodipodi:namedview
     pagecolor="#ffffff"
     bordercolor="#666666"
     borderopacity="1"
     objecttolerance="10"
     gridtolerance="10"
     guidetolerance="10"
     inkscape:pageopacity="0"
     inkscape:pageshadow="2"
     inkscape:window-width="1600"
     inkscape:window-height="882"
     id="namedview4"
     showgrid="true"
     inkscape:zoom="2.441147018599"
     inkscape:cx="217.7549741615"
     inkscape:cy="945.6040410874"
     inkscape:window-x="1916"
     inkscape:window-y="-6"
     inkscape:window-maximized="1"
     inkscape:current-layer="svg2"
     inkscape:snap-text-baseline="true">
    <inkscape:grid
       type="xygrid"
       id="grid5500" />
  </sodipodi:namedview>
  <metadata
     id="metadata8">
    <rdf:RDF>
      <cc:Work
         rdf:about="">
        <dc:format>image/svg+xml</dc:format>
        <dc:type
           rdf:resource="http://purl.org/dc/dcmitype/StillImage" />
        <dc:title></dc:title>
      </cc:Work>
    </rdf:RDF>
  </metadata>
  <defs
     id="defs6">
    <marker
       id="arrowVoltageEnd"
       orient="auto"
       refX="0"
       refY="0"
       style="overflow:visible"
       inkscape:stockid="arrowVoltageEnd">
      <path
         inkscape:connector-curvature="0"
         d="M 0,0 5,-5 -12.5,0 5,5 Z"
         style="fill:#217b21;fill-rule:evenodd;stroke:#217b21;stroke-width:1"
         transform="matrix(-0.25,0,0,-0.25,-1.823125,0)"
         id="path4141" />
    </marker>
    <marker
       id="arrowVoltageStart"
       orient="auto"
       refX="0"
       refY="0"
       style="overflow:visible"
       inkscape:stockid="arrowVoltageStart">
      <path
         inkscape:connector-curvature="0"
         d="M 0,0 5,-5 -12.5,0 5,5 Z"
         style="fill:#217b21;fill-rule:evenodd;stroke:#217b21;stroke-width:1"
         transform="matrix(0.25,0,0,0.25,1.823125,0)"
         id="path4138" />
    </marker>
    <marker
       id="marker4656"
       orient="auto"
       refX="0"
       refY="0"
       style="overflow:visible"
       inkscape:stockid="arrowVoltageEnd">
      <path
         inkscape:connector-curvature="0"
         d="M 0,0 5,-5 -12.5,0 5,5 Z"
         style="fill:#217b21;fill-rule:evenodd;stroke:#217b21;stroke-width:1"
         transform="matrix(-0.25,0,0,-0.25,-1.823125,0)"
         id="path4654" />
    </marker>
    <marker
       id="marker4660"
       orient="auto"
       refX="0"
       refY="0"
       style="overflow:visible"
       inkscape:stockid="arrowVoltageStart">
      <path
         inkscape:connector-curvature="0"
         d="M 0,0 5,-5 -12.5,0 5,5 Z"
         style="fill:#217b21;fill-rule:evenodd;stroke:#217b21;stroke-width:1"
         transform="matrix(0.25,0,0,0.25,1.823125,0)"
         id="path4658" />
    </marker>
    <marker
       id="arrowVoltageEnd-1"
       orient="auto"
       refX="0"
       refY="0"
       style="overflow:visible"
       inkscape:stockid="arrowVoltageEnd">
      <path
         d="M 0,0 5,-5 -12.5,0 5,5 Z"
         style="fill:#217b21;fill-rule:evenodd;stroke:#217b21;stroke-width:1"
         transform="matrix(-0.25,0,0,-0.25,-1.823125,0)"
         id="path4141-2"
         inkscape:connector-curvature="0" />
    </marker>
    <marker
       id="arrowVoltageStart-7"
       orient="auto"
       refX="0"
       refY="0"
       style="overflow:visible"
       inkscape:stockid="arrowVoltageStart">
      <path
         d="M 0,0 5,-5 -12.5,0 5,5 Z"
         style="fill:#217b21;fill-rule:evenodd;stroke:#217b21;stroke-width:1"
         transform="matrix(0.25,0,0,0.25,1.823125,0)"
         id="path4138-0"
         inkscape:connector-curvature="0" />
    </marker>
    <marker
       id="marker4773"
       orient="auto"
       refX="0"
       refY="0"
       style="overflow:visible"
       inkscape:stockid="arrowVoltageEnd">
      <path
         d="M 0,0 5,-5 -12.5,0 5,5 Z"
         style="fill:#217b21;fill-rule:evenodd;stroke:#217b21;stroke-width:1"
         transform="matrix(-0.25,0,0,-0.25,-1.823125,0)"
         id="path4771"
         inkscape:connector-curvature="0" />
    </marker>
    <marker
       id="marker4777"
       orient="auto"
       refX="0"
       refY="0"
       style="overflow:visible"
       inkscape:stockid="arrowVoltageStart">
      <path
         d="M 0,0 5,-5 -12.5,0 5,5 Z"
         style="fill:#217b21;fill-rule:evenodd;stroke:#217b21;stroke-width:1"
         transform="matrix(0.25,0,0,0.25,1.823125,0)"
         id="path4775"
         inkscape:connector-curvature="0" />
    </marker>
  </defs>
  <g
     inkscape:label="Latch"
     id="g11492"
     transform="translate(65,-7.480346679688)">
    <rect
       height="40"
       rx="None"
       ry="None"
       style="fill:none;stroke:#000000;stroke-width:1.5;stroke-linecap:round;stroke-linejoin:round;stroke-dasharray:none"
       width="40"
       x="10"
       y="120"
       inkscape:label="rectangle"
       id="rect11430" />
    <g
       inkscape:label="Q"
       id="g11440">
      <g
         inkscape:label="Q"
         transform="rotate(-180,50,130)"
         id="g11434">
        <path
           d="M 50,130 H 40"
           style="fill:none;stroke:#000000;stroke-width:1;stroke-linecap:round;stroke-linejoin:round;stroke-dasharray:none"
           inkscape:label="Q"
           id="path11432"
           inkscape:connector-curvature="0" />
      </g>
      <g
         id="g11438"
         xml:space="preserve"
         stroke-miterlimit="10.433"
         font-style="normal"
         font-variant="normal"
         font-weight="normal"
         font-stretch="normal"
         font-size-adjust="none"
         letter-spacing="normal"
         word-spacing="normal"
         ns0:text=" Q"
         ns0:preamble="/home/fernando/.config/inkscape/extensions/textextLib/CircuitSymbolsLatexPreamble.tex"
         transform="matrix(0.745562,0,0,-0.745562,-124.491331,487.702009)"
         style="font-style:normal;font-variant:normal;font-weight:normal;font-stretch:normal;letter-spacing:normal;word-spacing:normal;text-anchor:start;fill:none;fill-opacity:1;fill-rule:evenodd;stroke:#000000;stroke-linecap:butt;stroke-linejoin:miter;stroke-miterlimit:10.4329996109;stroke-dasharray:none;stroke-dashoffset:0;stroke-opacity:1"><path
           d="m 228.59,477.3 0.11,0.06 0.1,0.05 0.11,0.06 0.1,0.07 0.1,0.06 0.1,0.08 0.09,0.07 0.1,0.08 0.09,0.08 0.08,0.09 0.09,0.09 0.08,0.09 0.08,0.1 0.07,0.1 0.08,0.1 0.07,0.11 0.06,0.11 0.06,0.11 0.06,0.11 0.06,0.12 0.05,0.12 0.04,0.12 0.05,0.12 0.03,0.13 0.04,0.13 0.03,0.13 0.03,0.13 0.02,0.13 0.01,0.14 0.02,0.13 v 0.14 0.14 c 0,2.03 -1.5,3.64 -3.31,3.64 v -0.25 c 0.97,0 2.32,-0.85 2.32,-3.39 0,-0.77 -0.12,-2.17 -1.17,-2.95 -0.22,0.56 -0.54,1.05 -1.13,1.05 v -0.21 c 0.54,0 0.76,-0.42 0.87,-1 v 0 c -0.34,-0.19 -0.66,-0.22 -0.88,-0.22 -0.51,0 -0.59,0.45 -0.59,0.6 0,0.29 0.21,0.62 0.6,0.62 v 0.21 c -0.51,0 -0.81,-0.42 -0.81,-0.83 0,-0.27 0.13,-0.46 0.14,-0.48 v 0 c -0.54,0.2 -1.66,0.93 -1.66,3.21 0,2.58 1.4,3.39 2.31,3.39 v 0.25 c -1.78,0 -3.3,-1.59 -3.3,-3.64 0,-2 1.5,-3.58 3.31,-3.58 0.31,0 0.66,0.06 0.95,0.15 0.15,-0.95 0.29,-1.86 1.21,-1.86 1.02,0 1.2,1.32 1.2,1.83 0,0.09 0,0.2 -0.1,0.2 -0.09,0 -0.1,-0.07 -0.11,-0.17 -0.06,-0.54 -0.48,-0.84 -0.91,-0.84 -0.47,0 -0.72,0.34 -0.95,0.97 z"
           style="fill:#000000;stroke-width:0"
           id="path11436"
           inkscape:connector-curvature="0" /></g>    </g>
    <g
       inkscape:label="notQ"
       id="g11452">
      <g
         inkscape:label="notQ"
         transform="rotate(-180,50,150)"
         id="g11444">
        <path
           d="M 50,150 H 40"
           style="fill:none;stroke:#000000;stroke-width:1;stroke-linecap:round;stroke-linejoin:round;stroke-dasharray:none"
           inkscape:label="notQ"
           id="path11442"
           inkscape:connector-curvature="0" />
      </g>
      <g
         id="g11450"
         xml:space="preserve"
         stroke-miterlimit="10.433"
         font-style="normal"
         font-variant="normal"
         font-weight="normal"
         font-stretch="normal"
         font-size-adjust="none"
         letter-spacing="normal"
         word-spacing="normal"
         ns0:text=" \\NOT{Q}"
         ns0:preamble="/home/fernando/.config/inkscape/extensions/textextLib/CircuitSymbolsLatexPreamble.tex"
         transform="matrix(0.745562,0,0,-0.745562,-124.588254,507.702009)"
         style="font-style:normal;font-variant:normal;font-weight:normal;font-stretch:normal;letter-spacing:normal;word-spacing:normal;text-anchor:start;fill:none;fill-opacity:1;fill-rule:evenodd;stroke:#000000;stroke-linecap:butt;stroke-linejoin:miter;stroke-miterlimit:10.4329996109;stroke-dasharray:none;stroke-dashoffset:0;stroke-opacity:1"><line
           x1="223.4299926758"
           y1="485.4400024414"
           x2="231.3099975586"
           y2="485.4400024414"
           id="line11446"
           style="stroke-width:0.3980000019" /><path
           d="m 227.79,477.3 0.14,0.05 0.15,0.07 0.14,0.07 0.14,0.08 0.14,0.08 0.14,0.09 0.14,0.1 0.13,0.1 0.13,0.11 0.13,0.11 0.13,0.12 0.12,0.12 0.12,0.13 0.11,0.13 0.11,0.13 0.11,0.14 0.1,0.14 0.1,0.15 0.09,0.15 0.09,0.16 0.08,0.15 0.08,0.16 0.07,0.17 0.06,0.16 0.06,0.17 0.05,0.17 0.04,0.17 0.04,0.18 0.03,0.17 0.02,0.18 0.01,0.18 v 0.18 c 0,1.6 -1.05,2.67 -2.53,2.67 l -0.06,-0.25 c 0.99,0 1.72,-0.78 1.72,-2.11 0,-0.99 -0.51,-3.31 -2.18,-4.25 -0.05,0.35 -0.15,1.07 -0.88,1.07 v -0.21 c 0.42,0 0.61,-0.24 0.61,-0.85 0,-0.15 -0.01,-0.16 -0.11,-0.2 -0.26,-0.11 -0.56,-0.17 -0.83,-0.17 v 0 c -0.14,0 -0.46,0 -0.46,0.42 0,0.4 0.38,0.8 0.79,0.8 v 0.21 c -0.52,0 -1.01,-0.49 -1.01,-1.01 0,-0.2 0.06,-0.31 0.06,-0.32 v 0 c -0.78,0.31 -1.12,1.09 -1.12,1.98 0,0.69 0.26,2.1 1.02,3.17 0.73,1.01 1.66,1.47 2.39,1.47 l 0.06,0.25 c -2.15,0 -4.34,-2.26 -4.34,-4.57 0,-1.65 1.11,-2.65 2.55,-2.65 0.24,0 0.58,0.04 0.97,0.15 -0.04,-0.62 -0.04,-0.64 -0.04,-0.77 0,-0.32 0,-1.09 0.83,-1.09 1.18,0 1.66,1.82 1.66,1.92 0,0.07 -0.07,0.1 -0.11,0.1 -0.08,0 -0.1,-0.04 -0.12,-0.1 -0.24,-0.71 -0.82,-0.96 -1.16,-0.96 -0.46,0 -0.61,0.27 -0.71,1.03 z"
           style="fill:#000000;stroke-width:0"
           id="path11448"
           inkscape:connector-curvature="0" /></g>    </g>
    <g
       inkscape:label="input"
       id="g11466">
      <g
         inkscape:label="input"
         transform="rotate(90,30,120)"
         id="g11456">
        <path
           d="M 30,120 H 20"
           style="fill:none;stroke:#000000;stroke-width:1;stroke-linecap:round;stroke-linejoin:round;stroke-dasharray:none"
           inkscape:label="input"
           id="path11454"
           inkscape:connector-curvature="0" />
      </g>
      <g
         id="g11464"
         xml:space="preserve"
         stroke-miterlimit="10.433"
         font-style="normal"
         font-variant="normal"
         font-weight="normal"
         font-stretch="normal"
         font-size-adjust="none"
         letter-spacing="normal"
         word-spacing="normal"
         ns0:text=" PRE"
         ns0:preamble="/home/fernando/.config/inkscape/extensions/textextLib/CircuitSymbolsLatexPreamble.tex"
         transform="matrix(0.497041,0,0,-0.497041,-86.260375,362.257785)"
         style="font-style:normal;font-variant:normal;font-weight:normal;font-stretch:normal;letter-spacing:normal;word-spacing:normal;text-anchor:start;fill:none;fill-opacity:1;fill-rule:evenodd;stroke:#000000;stroke-linecap:butt;stroke-linejoin:miter;stroke-miterlimit:10.4329996109;stroke-dasharray:none;stroke-dashoffset:0;stroke-opacity:1"><path
           d="m 225.69,480.37 -0.03,0.26 v 2.69 c 0,0.32 0.02,0.39 0.49,0.39 h 0.88 c 1.59,0 1.59,-1.05 1.59,-1.54 0,-0.47 0,-1.54 -1.59,-1.54 h -1.37 l 0.03,-0.26 h 1.68 c 1.2,0 2.27,0.81 2.27,1.8 0,0.98 -0.99,1.85 -2.35,1.85 h -3.51 v -0.31 h 0.24 c 0.77,0 0.78,-0.11 0.78,-0.47 v -5.23 c 0,-0.36 -0.01,-0.47 -0.78,-0.47 h -0.24 v -0.31 c 0.35,0.04 1.09,0.04 1.46,0.04 0.38,0 1.13,0 1.47,-0.04 v 0.31 h -0.23 c -0.77,0 -0.79,0.11 -0.79,0.47 z"
           style="fill:#000000;stroke-width:0"
           id="path11458"
           inkscape:connector-curvature="0" /><path
           d="m 234.54,480.61 0.09,0.03 0.09,0.02 0.09,0.03 0.08,0.03 0.09,0.03 0.08,0.03 0.08,0.04 0.08,0.04 0.08,0.04 0.07,0.04 0.08,0.04 0.07,0.05 0.06,0.04 0.07,0.05 0.06,0.05 0.06,0.05 0.06,0.05 0.06,0.06 0.05,0.05 0.05,0.06 0.04,0.06 0.04,0.06 0.04,0.06 0.04,0.07 0.03,0.06 0.02,0.07 0.03,0.06 0.02,0.07 0.01,0.07 0.01,0.07 0.01,0.07 v 0.07 c 0,0.95 -1.13,1.79 -2.6,1.79 h -3.12 v -0.31 h 0.24 c 0.77,0 0.79,-0.11 0.79,-0.47 v -5.23 c 0,-0.36 -0.02,-0.47 -0.79,-0.47 h -0.24 v -0.31 c 0.36,0.04 1.06,0.04 1.45,0.04 0.39,0 1.1,0 1.46,-0.04 v 0.31 h -0.24 c -0.77,0 -0.79,0.11 -0.79,0.47 v 2.51 0.22 2.58 c 0,0.22 0,0.34 0.22,0.37 0.1,0.02 0.39,0.02 0.59,0.02 0.89,0 2.01,-0.04 2.01,-1.48 0,-0.68 -0.24,-1.49 -1.72,-1.49 h -1.1 v -0.22 h 1.15 c 0.15,0 0.57,0 0.92,-0.34 0.38,-0.35 0.38,-0.66 0.38,-1.33 0,-0.64 0,-1.04 0.41,-1.42 0.41,-0.35 0.95,-0.41 1.25,-0.41 0.78,0 0.94,0.81 0.94,1.09 0,0.06 0,0.17 -0.12,0.17 -0.11,0 -0.11,-0.09 -0.12,-0.16 -0.06,-0.71 -0.41,-0.89 -0.66,-0.89 -0.49,0 -0.57,0.51 -0.71,1.44 l -0.13,0.79 c -0.18,0.64 -0.66,0.96 -1.21,1.15 z"
           style="fill:#000000;stroke-width:0"
           id="path11460"
           inkscape:connector-curvature="0" /><path
           d="m 238.9,478.01 v -0.03 -0.03 -0.03 -0.03 l -0.01,-0.03 v -0.03 -0.02 l -0.01,-0.02 v -0.03 l -0.01,-0.02 -0.01,-0.02 -0.01,-0.02 -0.01,-0.01 -0.01,-0.02 -0.02,-0.01 -0.02,-0.02 -0.02,-0.01 -0.02,-0.01 -0.01,-0.01 h -0.01 l -0.02,-0.01 h -0.01 l -0.02,-0.01 h -0.01 l -0.02,-0.01 h -0.02 -0.01 l -0.02,-0.01 h -0.02 -0.02 l -0.02,-0.01 h -0.02 -0.03 -0.02 l -0.02,-0.01 h -0.03 -0.03 -0.02 -0.03 -0.03 -0.03 l -0.03,-0.01 h -0.03 -0.04 -0.03 -0.04 -0.24 v -0.31 h 5.75 l 0.41,2.57 h -0.25 c -0.24,-1.53 -0.47,-2.26 -2.18,-2.26 h -1.33 c -0.47,0 -0.48,0.07 -0.48,0.4 v 2.65 h 0.89 c 0.97,0 1.08,-0.32 1.08,-1.16 H 242 v 2.63 h -0.24 c 0,-0.85 -0.11,-1.16 -1.08,-1.16 h -0.89 v 2.39 c 0,0.32 0.01,0.39 0.48,0.39 h 1.29 c 1.52,0 1.79,-0.54 1.95,-1.92 h 0.24 l -0.27,2.23 h -5.61 v -0.31 h 0.24 c 0.77,0 0.79,-0.11 0.79,-0.47 z"
           style="fill:#000000;stroke-width:0"
           id="path11462"
           inkscape:connector-curvature="0" /></g>    </g>
    <g
       inkscape:label="input"
       id="g11480">
      <g
         inkscape:label="input"
         transform="rotate(-90,30,160)"
         id="g11470">
        <path
           d="M 30,160 H 20"
           style="fill:none;stroke:#000000;stroke-width:1;stroke-linecap:round;stroke-linejoin:round;stroke-dasharray:none"
           inkscape:label="input"
           id="path11468"
           inkscape:connector-curvature="0" />
      </g>
      <g
         id="g11478"
         xml:space="preserve"
         stroke-miterlimit="10.433"
         font-style="normal"
         font-variant="normal"
         font-weight="normal"
         font-stretch="normal"
         font-size-adjust="none"
         letter-spacing="normal"
         word-spacing="normal"
         ns0:text=" CLR"
         ns0:preamble="/home/fernando/.config/inkscape/extensions/textextLib/CircuitSymbolsLatexPreamble.tex"
         transform="matrix(0.497041,0,0,-0.497041,-86.339902,395.418498)"
         style="font-style:normal;font-variant:normal;font-weight:normal;font-stretch:normal;letter-spacing:normal;word-spacing:normal;text-anchor:start;fill:none;fill-opacity:1;fill-rule:evenodd;stroke:#000000;stroke-linecap:butt;stroke-linejoin:miter;stroke-miterlimit:10.4329996109;stroke-dasharray:none;stroke-dashoffset:0;stroke-opacity:1"><path
           d="m 223.99,480.63 v -0.19 l 0.02,-0.19 0.02,-0.18 0.03,-0.18 0.04,-0.18 0.05,-0.18 0.06,-0.16 0.06,-0.17 0.07,-0.16 0.08,-0.16 0.08,-0.15 0.1,-0.15 0.1,-0.14 0.1,-0.13 0.11,-0.13 0.12,-0.13 0.12,-0.12 0.12,-0.11 0.14,-0.1 0.13,-0.1 0.14,-0.09 0.15,-0.09 0.15,-0.08 0.15,-0.07 0.16,-0.06 0.16,-0.06 0.16,-0.04 0.16,-0.04 0.17,-0.03 0.17,-0.03 0.17,-0.01 h 0.17 c 1.62,0 2.6,1.38 2.6,2.53 0,0.1 0,0.17 -0.13,0.17 -0.11,0 -0.11,-0.06 -0.12,-0.16 -0.08,-1.42 -1.15,-2.24 -2.23,-2.24 -0.61,0 -2.56,0.34 -2.56,3.3 0,2.97 1.94,3.31 2.55,3.31 1.09,0 1.97,-0.9 2.17,-2.35 0.02,-0.14 0.02,-0.17 0.16,-0.17 0.16,0 0.16,0.03 0.16,0.24 V 484 c 0,0.17 0,0.24 -0.11,0.24 -0.04,0 -0.08,0 -0.16,-0.12 l -0.5,-0.74 c -0.37,0.36 -0.87,0.86 -1.83,0.86 -1.86,0 -3.46,-1.58 -3.46,-3.61 z"
           style="fill:#000000;stroke-width:0"
           id="path11472"
           inkscape:connector-curvature="0" /><path
           d="m 236.42,479.8 h -0.25 c -0.11,-1.01 -0.25,-2.26 -2,-2.26 h -0.82 c -0.47,0 -0.48,0.07 -0.48,0.4 v 5.29 c 0,0.34 0,0.48 0.94,0.48 h 0.33 v 0.31 c -0.36,-0.03 -1.26,-0.03 -1.67,-0.03 -0.39,0 -1.17,0 -1.51,0.03 v -0.31 h 0.23 c 0.77,0 0.79,-0.11 0.79,-0.47 v -5.23 c 0,-0.36 -0.02,-0.47 -0.79,-0.47 h -0.23 v -0.31 h 5.18 z"
           style="fill:#000000;stroke-width:0"
           id="path11474"
           inkscape:connector-curvature="0" /><path
           d="m 241.18,480.61 0.09,0.03 0.09,0.02 0.09,0.03 0.08,0.03 0.09,0.03 0.08,0.03 0.08,0.04 0.08,0.04 0.08,0.04 0.07,0.04 0.08,0.04 0.07,0.05 0.06,0.04 0.07,0.05 0.06,0.05 0.06,0.05 0.06,0.05 0.06,0.06 0.05,0.05 0.05,0.06 0.04,0.06 0.04,0.06 0.04,0.06 0.04,0.07 0.03,0.06 0.03,0.07 0.02,0.06 0.02,0.07 0.01,0.07 0.01,0.07 0.01,0.07 v 0.07 c 0,0.95 -1.13,1.79 -2.59,1.79 h -3.13 v -0.31 h 0.24 c 0.77,0 0.79,-0.11 0.79,-0.47 v -5.23 c 0,-0.36 -0.02,-0.47 -0.79,-0.47 h -0.24 v -0.31 c 0.36,0.04 1.07,0.04 1.45,0.04 0.39,0 1.1,0 1.46,-0.04 v 0.31 h -0.24 c -0.77,0 -0.79,0.11 -0.79,0.47 v 2.51 0.22 2.58 c 0,0.22 0,0.34 0.22,0.37 0.1,0.02 0.39,0.02 0.59,0.02 0.89,0 2.01,-0.04 2.01,-1.48 0,-0.68 -0.24,-1.49 -1.71,-1.49 h -1.11 v -0.22 h 1.15 c 0.15,0 0.57,0 0.92,-0.34 0.38,-0.35 0.38,-0.66 0.38,-1.33 0,-0.64 0,-1.04 0.41,-1.42 0.41,-0.35 0.95,-0.41 1.25,-0.41 0.78,0 0.95,0.81 0.95,1.09 0,0.06 0,0.17 -0.13,0.17 -0.11,0 -0.11,-0.09 -0.12,-0.16 -0.06,-0.71 -0.41,-0.89 -0.66,-0.89 -0.49,0 -0.57,0.51 -0.71,1.44 l -0.12,0.79 c -0.18,0.64 -0.67,0.96 -1.22,1.15 z"
           style="fill:#000000;stroke-width:0"
           id="path11476"
           inkscape:connector-curvature="0" /></g>    </g>
    <g
       inkscape:label="input"
       id="g11490">
      <g
         inkscape:label="input"
         id="g11484">
        <path
           d="M 10,130 H 0"
           style="fill:none;stroke:#000000;stroke-width:1;stroke-linecap:round;stroke-linejoin:round;stroke-dasharray:none"
           inkscape:label="input"
           id="path11482"
           inkscape:connector-curvature="0" />
      </g>
      <g
         id="g11488"
         xml:space="preserve"
         stroke-miterlimit="10.433"
         font-style="normal"
         font-variant="normal"
         font-weight="normal"
         font-stretch="normal"
         font-size-adjust="none"
         letter-spacing="normal"
         word-spacing="normal"
         ns0:text=" D"
         ns0:preamble="/home/fernando/.config/inkscape/extensions/textextLib/CircuitSymbolsLatexPreamble.tex"
         transform="matrix(0.745562,0,0,-0.745562,-154.321864,488.335736)"
         style="font-style:normal;font-variant:normal;font-weight:normal;font-stretch:normal;letter-spacing:normal;word-spacing:normal;text-anchor:start;fill:none;fill-opacity:1;fill-rule:evenodd;stroke:#000000;stroke-linecap:butt;stroke-linejoin:miter;stroke-miterlimit:10.4329996109;stroke-dasharray:none;stroke-dashoffset:0;stroke-opacity:1"><path
           d="m 223.78,484.02 v -0.31 h 0.24 c 0.77,0 0.78,-0.11 0.78,-0.47 v -5.23 c 0,-0.36 -0.01,-0.47 -0.78,-0.47 h -0.24 v -0.31 h 3.64 l -0.27,0.31 h -1 c -0.47,0 -0.49,0.07 -0.49,0.4 v 5.38 c 0,0.32 0.02,0.39 0.49,0.39 h 0.99 c 0.62,0 1.31,-0.22 1.81,-0.92 0.43,-0.59 0.52,-1.44 0.52,-2.22 0,-1.1 -0.19,-1.7 -0.55,-2.18 -0.19,-0.27 -0.76,-0.85 -1.77,-0.85 l 0.27,-0.31 c 1.67,0 3.05,1.47 3.05,3.34 0,1.89 -1.35,3.45 -3.05,3.45 z"
           style="fill:#000000;stroke-width:0"
           id="path11486"
           inkscape:connector-curvature="0" /></g>    </g>
  </g>
  <g
     id="g11910"
     inkscape:label="Latch"
     transform="translate(165,-7.480346679688)">
    <rect
       id="rect11844"
       inkscape:label="rectangle"
       y="120"
       x="10"
       width="40"
       style="fill:none;stroke:#000000;stroke-width:1.5;stroke-linecap:round;stroke-linejoin:round;stroke-dasharray:none"
       ry="None"
       rx="None"
       height="40" />
    <g
       id="g11854"
       inkscape:label="Q">
      <g
         id="g11848"
         transform="rotate(-180,50,130)"
         inkscape:label="Q">
        <path
           id="path11846"
           inkscape:label="Q"
           style="fill:none;stroke:#000000;stroke-width:1;stroke-linecap:round;stroke-linejoin:round;stroke-dasharray:none"
           d="M 50,130 H 40"
           inkscape:connector-curvature="0" />
      </g>
      <g
         transform="matrix(0.745562,0,0,-0.745562,-124.491331,487.702009)"
         ns0:preamble="/home/fernando/.config/inkscape/extensions/textextLib/CircuitSymbolsLatexPreamble.tex"
         ns0:text=" Q"
         word-spacing="normal"
         letter-spacing="normal"
         font-size-adjust="none"
         font-stretch="normal"
         font-weight="normal"
         font-variant="normal"
         font-style="normal"
         stroke-miterlimit="10.433"
         xml:space="preserve"
         id="g11852"
         style="font-style:normal;font-variant:normal;font-weight:normal;font-stretch:normal;letter-spacing:normal;word-spacing:normal;text-anchor:start;fill:none;fill-opacity:1;fill-rule:evenodd;stroke:#000000;stroke-linecap:butt;stroke-linejoin:miter;stroke-miterlimit:10.4329996109;stroke-dasharray:none;stroke-dashoffset:0;stroke-opacity:1"><path
           id="path11850"
           style="fill:#000000;stroke-width:0"
           d="m 228.59,477.3 0.11,0.06 0.1,0.05 0.11,0.06 0.1,0.07 0.1,0.06 0.1,0.08 0.09,0.07 0.1,0.08 0.09,0.08 0.08,0.09 0.09,0.09 0.08,0.09 0.08,0.1 0.07,0.1 0.08,0.1 0.07,0.11 0.06,0.11 0.06,0.11 0.06,0.11 0.06,0.12 0.05,0.12 0.04,0.12 0.05,0.12 0.03,0.13 0.04,0.13 0.03,0.13 0.03,0.13 0.02,0.13 0.01,0.14 0.02,0.13 v 0.14 0.14 c 0,2.03 -1.5,3.64 -3.31,3.64 v -0.25 c 0.97,0 2.32,-0.85 2.32,-3.39 0,-0.77 -0.12,-2.17 -1.17,-2.95 -0.22,0.56 -0.54,1.05 -1.13,1.05 v -0.21 c 0.54,0 0.76,-0.42 0.87,-1 v 0 c -0.34,-0.19 -0.66,-0.22 -0.88,-0.22 -0.51,0 -0.59,0.45 -0.59,0.6 0,0.29 0.21,0.62 0.6,0.62 v 0.21 c -0.51,0 -0.81,-0.42 -0.81,-0.83 0,-0.27 0.13,-0.46 0.14,-0.48 v 0 c -0.54,0.2 -1.66,0.93 -1.66,3.21 0,2.58 1.4,3.39 2.31,3.39 v 0.25 c -1.78,0 -3.3,-1.59 -3.3,-3.64 0,-2 1.5,-3.58 3.31,-3.58 0.31,0 0.66,0.06 0.95,0.15 0.15,-0.95 0.29,-1.86 1.21,-1.86 1.02,0 1.2,1.32 1.2,1.83 0,0.09 0,0.2 -0.1,0.2 -0.09,0 -0.1,-0.07 -0.11,-0.17 -0.06,-0.54 -0.48,-0.84 -0.91,-0.84 -0.47,0 -0.72,0.34 -0.95,0.97 z"
           inkscape:connector-curvature="0" /></g>    </g>
    <g
       id="g11866"
       inkscape:label="notQ">
      <g
         id="g11858"
         transform="rotate(-180,50,150)"
         inkscape:label="notQ">
        <path
           id="path11856"
           inkscape:label="notQ"
           style="fill:none;stroke:#000000;stroke-width:1;stroke-linecap:round;stroke-linejoin:round;stroke-dasharray:none"
           d="M 50,150 H 40"
           inkscape:connector-curvature="0" />
      </g>
      <g
         transform="matrix(0.745562,0,0,-0.745562,-124.588254,507.702009)"
         ns0:preamble="/home/fernando/.config/inkscape/extensions/textextLib/CircuitSymbolsLatexPreamble.tex"
         ns0:text=" \\NOT{Q}"
         word-spacing="normal"
         letter-spacing="normal"
         font-size-adjust="none"
         font-stretch="normal"
         font-weight="normal"
         font-variant="normal"
         font-style="normal"
         stroke-miterlimit="10.433"
         xml:space="preserve"
         id="g11864"
         style="font-style:normal;font-variant:normal;font-weight:normal;font-stretch:normal;letter-spacing:normal;word-spacing:normal;text-anchor:start;fill:none;fill-opacity:1;fill-rule:evenodd;stroke:#000000;stroke-linecap:butt;stroke-linejoin:miter;stroke-miterlimit:10.4329996109;stroke-dasharray:none;stroke-dashoffset:0;stroke-opacity:1"><line
           id="line11860"
           y2="485.4400024414"
           x2="231.3099975586"
           y1="485.4400024414"
           x1="223.4299926758"
           style="stroke-width:0.3980000019" /><path
           id="path11862"
           style="fill:#000000;stroke-width:0"
           d="m 227.79,477.3 0.14,0.05 0.15,0.07 0.14,0.07 0.14,0.08 0.14,0.08 0.14,0.09 0.14,0.1 0.13,0.1 0.13,0.11 0.13,0.11 0.13,0.12 0.12,0.12 0.12,0.13 0.11,0.13 0.11,0.13 0.11,0.14 0.1,0.14 0.1,0.15 0.09,0.15 0.09,0.16 0.08,0.15 0.08,0.16 0.07,0.17 0.06,0.16 0.06,0.17 0.05,0.17 0.04,0.17 0.04,0.18 0.03,0.17 0.02,0.18 0.01,0.18 v 0.18 c 0,1.6 -1.05,2.67 -2.53,2.67 l -0.06,-0.25 c 0.99,0 1.72,-0.78 1.72,-2.11 0,-0.99 -0.51,-3.31 -2.18,-4.25 -0.05,0.35 -0.15,1.07 -0.88,1.07 v -0.21 c 0.42,0 0.61,-0.24 0.61,-0.85 0,-0.15 -0.01,-0.16 -0.11,-0.2 -0.26,-0.11 -0.56,-0.17 -0.83,-0.17 v 0 c -0.14,0 -0.46,0 -0.46,0.42 0,0.4 0.38,0.8 0.79,0.8 v 0.21 c -0.52,0 -1.01,-0.49 -1.01,-1.01 0,-0.2 0.06,-0.31 0.06,-0.32 v 0 c -0.78,0.31 -1.12,1.09 -1.12,1.98 0,0.69 0.26,2.1 1.02,3.17 0.73,1.01 1.66,1.47 2.39,1.47 l 0.06,0.25 c -2.15,0 -4.34,-2.26 -4.34,-4.57 0,-1.65 1.11,-2.65 2.55,-2.65 0.24,0 0.58,0.04 0.97,0.15 -0.04,-0.62 -0.04,-0.64 -0.04,-0.77 0,-0.32 0,-1.09 0.83,-1.09 1.18,0 1.66,1.82 1.66,1.92 0,0.07 -0.07,0.1 -0.11,0.1 -0.08,0 -0.1,-0.04 -0.12,-0.1 -0.24,-0.71 -0.82,-0.96 -1.16,-0.96 -0.46,0 -0.61,0.27 -0.71,1.03 z"
           inkscape:connector-curvature="0" /></g>    </g>
    <g
       id="g11882"
       inkscape:label="input">
      <g
         id="g11872"
         transform="rotate(90,30,120)"
         inkscape:label="input">
        <path
           id="path11868"
           inkscape:label="input"
           style="fill:none;stroke:#000000;stroke-width:1;stroke-linecap:round;stroke-linejoin:round;stroke-dasharray:none"
           d="M 24.5,120 H 20"
           inkscape:connector-curvature="0" />
        <circle
           id="path11870"
           inkscape:label="input"
           style="fill:none;stroke:#000000;stroke-width:1.2000000477;stroke-linecap:round;stroke-linejoin:round;stroke-dasharray:none"
           cx="27"
           cy="120"
           r="2" />
      </g>
      <g
         transform="matrix(0.497041,0,0,-0.497041,-86.260375,362.257785)"
         ns0:preamble="/home/fernando/.config/inkscape/extensions/textextLib/CircuitSymbolsLatexPreamble.tex"
         ns0:text=" PRE"
         word-spacing="normal"
         letter-spacing="normal"
         font-size-adjust="none"
         font-stretch="normal"
         font-weight="normal"
         font-variant="normal"
         font-style="normal"
         stroke-miterlimit="10.433"
         xml:space="preserve"
         id="g11880"
         style="font-style:normal;font-variant:normal;font-weight:normal;font-stretch:normal;letter-spacing:normal;word-spacing:normal;text-anchor:start;fill:none;fill-opacity:1;fill-rule:evenodd;stroke:#000000;stroke-linecap:butt;stroke-linejoin:miter;stroke-miterlimit:10.4329996109;stroke-dasharray:none;stroke-dashoffset:0;stroke-opacity:1"><path
           id="path11874"
           style="fill:#000000;stroke-width:0"
           d="m 225.69,480.37 -0.03,0.26 v 2.69 c 0,0.32 0.02,0.39 0.49,0.39 h 0.88 c 1.59,0 1.59,-1.05 1.59,-1.54 0,-0.47 0,-1.54 -1.59,-1.54 h -1.37 l 0.03,-0.26 h 1.68 c 1.2,0 2.27,0.81 2.27,1.8 0,0.98 -0.99,1.85 -2.35,1.85 h -3.51 v -0.31 h 0.24 c 0.77,0 0.78,-0.11 0.78,-0.47 v -5.23 c 0,-0.36 -0.01,-0.47 -0.78,-0.47 h -0.24 v -0.31 c 0.35,0.04 1.09,0.04 1.46,0.04 0.38,0 1.13,0 1.47,-0.04 v 0.31 h -0.23 c -0.77,0 -0.79,0.11 -0.79,0.47 z"
           inkscape:connector-curvature="0" /><path
           id="path11876"
           style="fill:#000000;stroke-width:0"
           d="m 234.54,480.61 0.09,0.03 0.09,0.02 0.09,0.03 0.08,0.03 0.09,0.03 0.08,0.03 0.08,0.04 0.08,0.04 0.08,0.04 0.07,0.04 0.08,0.04 0.07,0.05 0.06,0.04 0.07,0.05 0.06,0.05 0.06,0.05 0.06,0.05 0.06,0.06 0.05,0.05 0.05,0.06 0.04,0.06 0.04,0.06 0.04,0.06 0.04,0.07 0.03,0.06 0.02,0.07 0.03,0.06 0.02,0.07 0.01,0.07 0.01,0.07 0.01,0.07 v 0.07 c 0,0.95 -1.13,1.79 -2.6,1.79 h -3.12 v -0.31 h 0.24 c 0.77,0 0.79,-0.11 0.79,-0.47 v -5.23 c 0,-0.36 -0.02,-0.47 -0.79,-0.47 h -0.24 v -0.31 c 0.36,0.04 1.06,0.04 1.45,0.04 0.39,0 1.1,0 1.46,-0.04 v 0.31 h -0.24 c -0.77,0 -0.79,0.11 -0.79,0.47 v 2.51 0.22 2.58 c 0,0.22 0,0.34 0.22,0.37 0.1,0.02 0.39,0.02 0.59,0.02 0.89,0 2.01,-0.04 2.01,-1.48 0,-0.68 -0.24,-1.49 -1.72,-1.49 h -1.1 v -0.22 h 1.15 c 0.15,0 0.57,0 0.92,-0.34 0.38,-0.35 0.38,-0.66 0.38,-1.33 0,-0.64 0,-1.04 0.41,-1.42 0.41,-0.35 0.95,-0.41 1.25,-0.41 0.78,0 0.94,0.81 0.94,1.09 0,0.06 0,0.17 -0.12,0.17 -0.11,0 -0.11,-0.09 -0.12,-0.16 -0.06,-0.71 -0.41,-0.89 -0.66,-0.89 -0.49,0 -0.57,0.51 -0.71,1.44 l -0.13,0.79 c -0.18,0.64 -0.66,0.96 -1.21,1.15 z"
           inkscape:connector-curvature="0" /><path
           id="path11878"
           style="fill:#000000;stroke-width:0"
           d="m 238.9,478.01 v -0.03 -0.03 -0.03 -0.03 l -0.01,-0.03 v -0.03 -0.02 l -0.01,-0.02 v -0.03 l -0.01,-0.02 -0.01,-0.02 -0.01,-0.02 -0.01,-0.01 -0.01,-0.02 -0.02,-0.01 -0.02,-0.02 -0.02,-0.01 -0.02,-0.01 -0.01,-0.01 h -0.01 l -0.02,-0.01 h -0.01 l -0.02,-0.01 h -0.01 l -0.02,-0.01 h -0.02 -0.01 l -0.02,-0.01 h -0.02 -0.02 l -0.02,-0.01 h -0.02 -0.03 -0.02 l -0.02,-0.01 h -0.03 -0.03 -0.02 -0.03 -0.03 -0.03 l -0.03,-0.01 h -0.03 -0.04 -0.03 -0.04 -0.24 v -0.31 h 5.75 l 0.41,2.57 h -0.25 c -0.24,-1.53 -0.47,-2.26 -2.18,-2.26 h -1.33 c -0.47,0 -0.48,0.07 -0.48,0.4 v 2.65 h 0.89 c 0.97,0 1.08,-0.32 1.08,-1.16 H 242 v 2.63 h -0.24 c 0,-0.85 -0.11,-1.16 -1.08,-1.16 h -0.89 v 2.39 c 0,0.32 0.01,0.39 0.48,0.39 h 1.29 c 1.52,0 1.79,-0.54 1.95,-1.92 h 0.24 l -0.27,2.23 h -5.61 v -0.31 h 0.24 c 0.77,0 0.79,-0.11 0.79,-0.47 z"
           inkscape:connector-curvature="0" /></g>    </g>
    <g
       id="g11898"
       inkscape:label="input">
      <g
         id="g11888"
         transform="rotate(-90,30,160)"
         inkscape:label="input">
        <path
           id="path11884"
           inkscape:label="input"
           style="fill:none;stroke:#000000;stroke-width:1;stroke-linecap:round;stroke-linejoin:round;stroke-dasharray:none"
           d="M 24.5,160 H 20"
           inkscape:connector-curvature="0" />
        <circle
           id="path11886"
           inkscape:label="input"
           style="fill:none;stroke:#000000;stroke-width:1.2000000477;stroke-linecap:round;stroke-linejoin:round;stroke-dasharray:none"
           cx="27"
           cy="160"
           r="2" />
      </g>
      <g
         transform="matrix(0.497041,0,0,-0.497041,-86.339902,395.418498)"
         ns0:preamble="/home/fernando/.config/inkscape/extensions/textextLib/CircuitSymbolsLatexPreamble.tex"
         ns0:text=" CLR"
         word-spacing="normal"
         letter-spacing="normal"
         font-size-adjust="none"
         font-stretch="normal"
         font-weight="normal"
         font-variant="normal"
         font-style="normal"
         stroke-miterlimit="10.433"
         xml:space="preserve"
         id="g11896"
         style="font-style:normal;font-variant:normal;font-weight:normal;font-stretch:normal;letter-spacing:normal;word-spacing:normal;text-anchor:start;fill:none;fill-opacity:1;fill-rule:evenodd;stroke:#000000;stroke-linecap:butt;stroke-linejoin:miter;stroke-miterlimit:10.4329996109;stroke-dasharray:none;stroke-dashoffset:0;stroke-opacity:1"><path
           id="path11890"
           style="fill:#000000;stroke-width:0"
           d="m 223.99,480.63 v -0.19 l 0.02,-0.19 0.02,-0.18 0.03,-0.18 0.04,-0.18 0.05,-0.18 0.06,-0.16 0.06,-0.17 0.07,-0.16 0.08,-0.16 0.08,-0.15 0.1,-0.15 0.1,-0.14 0.1,-0.13 0.11,-0.13 0.12,-0.13 0.12,-0.12 0.12,-0.11 0.14,-0.1 0.13,-0.1 0.14,-0.09 0.15,-0.09 0.15,-0.08 0.15,-0.07 0.16,-0.06 0.16,-0.06 0.16,-0.04 0.16,-0.04 0.17,-0.03 0.17,-0.03 0.17,-0.01 h 0.17 c 1.62,0 2.6,1.38 2.6,2.53 0,0.1 0,0.17 -0.13,0.17 -0.11,0 -0.11,-0.06 -0.12,-0.16 -0.08,-1.42 -1.15,-2.24 -2.23,-2.24 -0.61,0 -2.56,0.34 -2.56,3.3 0,2.97 1.94,3.31 2.55,3.31 1.09,0 1.97,-0.9 2.17,-2.35 0.02,-0.14 0.02,-0.17 0.16,-0.17 0.16,0 0.16,0.03 0.16,0.24 V 484 c 0,0.17 0,0.24 -0.11,0.24 -0.04,0 -0.08,0 -0.16,-0.12 l -0.5,-0.74 c -0.37,0.36 -0.87,0.86 -1.83,0.86 -1.86,0 -3.46,-1.58 -3.46,-3.61 z"
           inkscape:connector-curvature="0" /><path
           id="path11892"
           style="fill:#000000;stroke-width:0"
           d="m 236.42,479.8 h -0.25 c -0.11,-1.01 -0.25,-2.26 -2,-2.26 h -0.82 c -0.47,0 -0.48,0.07 -0.48,0.4 v 5.29 c 0,0.34 0,0.48 0.94,0.48 h 0.33 v 0.31 c -0.36,-0.03 -1.26,-0.03 -1.67,-0.03 -0.39,0 -1.17,0 -1.51,0.03 v -0.31 h 0.23 c 0.77,0 0.79,-0.11 0.79,-0.47 v -5.23 c 0,-0.36 -0.02,-0.47 -0.79,-0.47 h -0.23 v -0.31 h 5.18 z"
           inkscape:connector-curvature="0" /><path
           id="path11894"
           style="fill:#000000;stroke-width:0"
           d="m 241.18,480.61 0.09,0.03 0.09,0.02 0.09,0.03 0.08,0.03 0.09,0.03 0.08,0.03 0.08,0.04 0.08,0.04 0.08,0.04 0.07,0.04 0.08,0.04 0.07,0.05 0.06,0.04 0.07,0.05 0.06,0.05 0.06,0.05 0.06,0.05 0.06,0.06 0.05,0.05 0.05,0.06 0.04,0.06 0.04,0.06 0.04,0.06 0.04,0.07 0.03,0.06 0.03,0.07 0.02,0.06 0.02,0.07 0.01,0.07 0.01,0.07 0.01,0.07 v 0.07 c 0,0.95 -1.13,1.79 -2.59,1.79 h -3.13 v -0.31 h 0.24 c 0.77,0 0.79,-0.11 0.79,-0.47 v -5.23 c 0,-0.36 -0.02,-0.47 -0.79,-0.47 h -0.24 v -0.31 c 0.36,0.04 1.07,0.04 1.45,0.04 0.39,0 1.1,0 1.46,-0.04 v 0.31 h -0.24 c -0.77,0 -0.79,0.11 -0.79,0.47 v 2.51 0.22 2.58 c 0,0.22 0,0.34 0.22,0.37 0.1,0.02 0.39,0.02 0.59,0.02 0.89,0 2.01,-0.04 2.01,-1.48 0,-0.68 -0.24,-1.49 -1.71,-1.49 h -1.11 v -0.22 h 1.15 c 0.15,0 0.57,0 0.92,-0.34 0.38,-0.35 0.38,-0.66 0.38,-1.33 0,-0.64 0,-1.04 0.41,-1.42 0.41,-0.35 0.95,-0.41 1.25,-0.41 0.78,0 0.95,0.81 0.95,1.09 0,0.06 0,0.17 -0.13,0.17 -0.11,0 -0.11,-0.09 -0.12,-0.16 -0.06,-0.71 -0.41,-0.89 -0.66,-0.89 -0.49,0 -0.57,0.51 -0.71,1.44 l -0.12,0.79 c -0.18,0.64 -0.67,0.96 -1.22,1.15 z"
           inkscape:connector-curvature="0" /></g>    </g>
    <g
       id="g11908"
       inkscape:label="input">
      <g
         id="g11902"
         inkscape:label="input">
        <path
           id="path11900"
           inkscape:label="input"
           style="fill:none;stroke:#000000;stroke-width:1;stroke-linecap:round;stroke-linejoin:round;stroke-dasharray:none"
           d="M 10,130 H 0"
           inkscape:connector-curvature="0" />
      </g>
      <g
         transform="matrix(0.745562,0,0,-0.745562,-154.321864,488.335736)"
         ns0:preamble="/home/fernando/.config/inkscape/extensions/textextLib/CircuitSymbolsLatexPreamble.tex"
         ns0:text=" D"
         word-spacing="normal"
         letter-spacing="normal"
         font-size-adjust="none"
         font-stretch="normal"
         font-weight="normal"
         font-variant="normal"
         font-style="normal"
         stroke-miterlimit="10.433"
         xml:space="preserve"
         id="g11906"
         style="font-style:normal;font-variant:normal;font-weight:normal;font-stretch:normal;letter-spacing:normal;word-spacing:normal;text-anchor:start;fill:none;fill-opacity:1;fill-rule:evenodd;stroke:#000000;stroke-linecap:butt;stroke-linejoin:miter;stroke-miterlimit:10.4329996109;stroke-dasharray:none;stroke-dashoffset:0;stroke-opacity:1"><path
           id="path11904"
           style="fill:#000000;stroke-width:0"
           d="m 223.78,484.02 v -0.31 h 0.24 c 0.77,0 0.78,-0.11 0.78,-0.47 v -5.23 c 0,-0.36 -0.01,-0.47 -0.78,-0.47 h -0.24 v -0.31 h 3.64 l -0.27,0.31 h -1 c -0.47,0 -0.49,0.07 -0.49,0.4 v 5.38 c 0,0.32 0.02,0.39 0.49,0.39 h 0.99 c 0.62,0 1.31,-0.22 1.81,-0.92 0.43,-0.59 0.52,-1.44 0.52,-2.22 0,-1.1 -0.19,-1.7 -0.55,-2.18 -0.19,-0.27 -0.76,-0.85 -1.77,-0.85 l 0.27,-0.31 c 1.67,0 3.05,1.47 3.05,3.34 0,1.89 -1.35,3.45 -3.05,3.45 z"
           inkscape:connector-curvature="0" /></g>    </g>
  </g>
  <text
     xml:space="preserve"
     style="font-style:normal;font-variant:normal;font-weight:normal;font-stretch:normal;font-size:5.3333334923px;line-height:6px;font-family:Verdana;-inkscape-font-specification:Verdana;text-align:center;letter-spacing:0px;word-spacing:0px;writing-mode:lr-tb;text-anchor:middle;fill:#000000;fill-opacity:1;stroke:none;stroke-width:1px;stroke-linecap:butt;stroke-linejoin:miter;stroke-opacity:1"
     x="194.9674530029"
     y="174.1996459961"
     id="text12245"><tspan
       sodipodi:role="line"
       x="194.9674530029"
       y="174.1996459961"
       id="tspan12247">PRESET and CLEAR</tspan><tspan
       sodipodi:role="line"
       x="194.9674530029"
       y="180.1996459961"
       id="tspan12251">(both active LOW)</tspan></text>
  <text
     xml:space="preserve"
     style="font-style:normal;font-variant:normal;font-weight:normal;font-stretch:normal;font-size:5.3333334923px;line-height:6px;font-family:Verdana;-inkscape-font-specification:Verdana;text-align:center;letter-spacing:0px;word-spacing:0px;writing-mode:lr-tb;text-anchor:middle;fill:#000000;fill-opacity:1;stroke:none;stroke-width:1px;stroke-linecap:butt;stroke-linejoin:miter;stroke-opacity:1"
     x="95"
     y="172.5196533203"
     id="text12245-1"><tspan
       sodipodi:role="line"
       x="95"
       y="172.5196533203"
       id="tspan12247-2">PRESET and CLEAR</tspan><tspan
       sodipodi:role="line"
       x="95"
       y="178.5196533203"
       id="tspan12251-9">(both active HIGH)</tspan></text>
</svg>
