<?xml version="1.0" encoding="UTF-8" standalone="no"?>
<svg
   xmlns:ns0="http://www.iki.fi/pav/software/textext/"
   xmlns:dc="http://purl.org/dc/elements/1.1/"
   xmlns:cc="http://creativecommons.org/ns#"
   xmlns:rdf="http://www.w3.org/1999/02/22-rdf-syntax-ns#"
   xmlns:svg="http://www.w3.org/2000/svg"
   xmlns="http://www.w3.org/2000/svg"
   xmlns:sodipodi="http://sodipodi.sourceforge.net/DTD/sodipodi-0.dtd"
   xmlns:inkscape="http://www.inkscape.org/namespaces/inkscape"
   width="210mm"
   height="297mm"
   viewBox="0 0 793.7008056641 1122.51965332"
   version="1.1"
   id="svg2"
   inkscape:version="1.0.1 (1.0.1+r73)"
   sodipodi:docname="Latch_asynchronousInputs.svg">
  <sodipodi:namedview
     pagecolor="#ffffff"
     bordercolor="#666666"
     borderopacity="1"
     objecttolerance="10"
     gridtolerance="10"
     guidetolerance="10"
     inkscape:pageopacity="0"
     inkscape:pageshadow="2"
     inkscape:window-width="1920"
     inkscape:window-height="1056"
     id="namedview4"
     showgrid="true"
     inkscape:zoom="4.2919255"
     inkscape:cx="149.01028"
     inkscape:cy="144.17536"
     inkscape:window-x="0"
     inkscape:window-y="0"
     inkscape:window-maximized="1"
     inkscape:current-layer="svg2"
     inkscape:snap-text-baseline="true"
     inkscape:document-rotation="0">
    <inkscape:grid
       type="xygrid"
       id="grid5500" />
  </sodipodi:namedview>
  <metadata
     id="metadata8">
    <rdf:RDF>
      <cc:Work
         rdf:about="">
        <dc:format>image/svg+xml</dc:format>
        <dc:type
           rdf:resource="http://purl.org/dc/dcmitype/StillImage" />
        <dc:title />
      </cc:Work>
    </rdf:RDF>
  </metadata>
  <defs
     id="defs6">
    <marker
       id="arrowVoltageEnd"
       orient="auto"
       refX="0"
       refY="0"
       style="overflow:visible"
       inkscape:stockid="arrowVoltageEnd">
      <path
         inkscape:connector-curvature="0"
         d="M 0,0 5,-5 -12.5,0 5,5 Z"
         style="fill:#217b21;fill-rule:evenodd;stroke:#217b21;stroke-width:1"
         transform="matrix(-0.25,0,0,-0.25,-1.823125,0)"
         id="path4141" />
    </marker>
    <marker
       id="arrowVoltageStart"
       orient="auto"
       refX="0"
       refY="0"
       style="overflow:visible"
       inkscape:stockid="arrowVoltageStart">
      <path
         inkscape:connector-curvature="0"
         d="M 0,0 5,-5 -12.5,0 5,5 Z"
         style="fill:#217b21;fill-rule:evenodd;stroke:#217b21;stroke-width:1"
         transform="matrix(0.25,0,0,0.25,1.823125,0)"
         id="path4138" />
    </marker>
    <marker
       id="marker4656"
       orient="auto"
       refX="0"
       refY="0"
       style="overflow:visible"
       inkscape:stockid="arrowVoltageEnd">
      <path
         inkscape:connector-curvature="0"
         d="M 0,0 5,-5 -12.5,0 5,5 Z"
         style="fill:#217b21;fill-rule:evenodd;stroke:#217b21;stroke-width:1"
         transform="matrix(-0.25,0,0,-0.25,-1.823125,0)"
         id="path4654" />
    </marker>
    <marker
       id="marker4660"
       orient="auto"
       refX="0"
       refY="0"
       style="overflow:visible"
       inkscape:stockid="arrowVoltageStart">
      <path
         inkscape:connector-curvature="0"
         d="M 0,0 5,-5 -12.5,0 5,5 Z"
         style="fill:#217b21;fill-rule:evenodd;stroke:#217b21;stroke-width:1"
         transform="matrix(0.25,0,0,0.25,1.823125,0)"
         id="path4658" />
    </marker>
    <marker
       id="arrowVoltageEnd-1"
       orient="auto"
       refX="0"
       refY="0"
       style="overflow:visible"
       inkscape:stockid="arrowVoltageEnd">
      <path
         d="M 0,0 5,-5 -12.5,0 5,5 Z"
         style="fill:#217b21;fill-rule:evenodd;stroke:#217b21;stroke-width:1"
         transform="matrix(-0.25,0,0,-0.25,-1.823125,0)"
         id="path4141-2"
         inkscape:connector-curvature="0" />
    </marker>
    <marker
       id="arrowVoltageStart-7"
       orient="auto"
       refX="0"
       refY="0"
       style="overflow:visible"
       inkscape:stockid="arrowVoltageStart">
      <path
         d="M 0,0 5,-5 -12.5,0 5,5 Z"
         style="fill:#217b21;fill-rule:evenodd;stroke:#217b21;stroke-width:1"
         transform="matrix(0.25,0,0,0.25,1.823125,0)"
         id="path4138-0"
         inkscape:connector-curvature="0" />
    </marker>
    <marker
       id="marker4773"
       orient="auto"
       refX="0"
       refY="0"
       style="overflow:visible"
       inkscape:stockid="arrowVoltageEnd">
      <path
         d="M 0,0 5,-5 -12.5,0 5,5 Z"
         style="fill:#217b21;fill-rule:evenodd;stroke:#217b21;stroke-width:1"
         transform="matrix(-0.25,0,0,-0.25,-1.823125,0)"
         id="path4771"
         inkscape:connector-curvature="0" />
    </marker>
    <marker
       id="marker4777"
       orient="auto"
       refX="0"
       refY="0"
       style="overflow:visible"
       inkscape:stockid="arrowVoltageStart">
      <path
         d="M 0,0 5,-5 -12.5,0 5,5 Z"
         style="fill:#217b21;fill-rule:evenodd;stroke:#217b21;stroke-width:1"
         transform="matrix(0.25,0,0,0.25,1.823125,0)"
         id="path4775"
         inkscape:connector-curvature="0" />
    </marker>
  </defs>
  <text
     xml:space="preserve"
     style="font-style:normal;font-variant:normal;font-weight:normal;font-stretch:normal;font-size:5.33333px;line-height:6px;font-family:Verdana;-inkscape-font-specification:Verdana;text-align:center;letter-spacing:0px;word-spacing:0px;writing-mode:lr-tb;text-anchor:middle;fill:#000000;fill-opacity:1;stroke:none;stroke-width:1px;stroke-linecap:butt;stroke-linejoin:miter;stroke-opacity:1"
     x="194.96745"
     y="176.67999"
     id="text12245"
     inkscape:export-xdpi="357.7952"
     inkscape:export-ydpi="357.7952"><tspan
       sodipodi:role="line"
       x="194.96745"
       y="176.67999"
       id="tspan12247">PRESET and CLEAR</tspan><tspan
       sodipodi:role="line"
       x="194.96745"
       y="182.67999"
       id="tspan12251">(both active LOW)</tspan></text>
  <text
     xml:space="preserve"
     style="font-style:normal;font-variant:normal;font-weight:normal;font-stretch:normal;font-size:5.33333px;line-height:6px;font-family:Verdana;-inkscape-font-specification:Verdana;text-align:center;letter-spacing:0px;word-spacing:0px;writing-mode:lr-tb;text-anchor:middle;fill:#000000;fill-opacity:1;stroke:none;stroke-width:1px;stroke-linecap:butt;stroke-linejoin:miter;stroke-opacity:1"
     x="95"
     y="175"
     id="text12245-1"
     inkscape:export-xdpi="357.7952"
     inkscape:export-ydpi="357.7952"><tspan
       sodipodi:role="line"
       x="95"
       y="175"
       id="tspan12247-2">PRESET and CLEAR</tspan><tspan
       sodipodi:role="line"
       x="95"
       y="181"
       id="tspan12251-9">(both active HIGH)</tspan></text>
  <g
     inkscape:label="Latch"
     id="g1185"
     transform="translate(-55,-15)"
     inkscape:export-xdpi="357.7952"
     inkscape:export-ydpi="357.7952">
    <rect
       height="40"
       rx="None"
       ry="None"
       style="fill:none;stroke:#000000;stroke-width:1.5;stroke-linecap:round;stroke-linejoin:round;stroke-dasharray:none"
       width="40"
       x="130"
       y="130"
       inkscape:label="rectangle"
       id="rect1058" />
    <g
       inkscape:label="Q"
       id="g1078">
      <g
         inkscape:label="Q"
         transform="rotate(180,170,140)"
         id="g1062">
        <path
           d="M 170,140 H 160"
           style="fill:none;stroke:#000000;stroke-width:1;stroke-linecap:round;stroke-linejoin:round;stroke-dasharray:none"
           inkscape:label="Q"
           id="path1060" />
      </g>
      <g
         inkscape:label="Layer 1"
         inkscape:groupmode="layer"
         id="layer1"
         transform="matrix(0.663596,0,0,0.663596,-102.48694,-231.61364)">
        <g
           transform="matrix(1.33333,0,0,1.33333,395.406,554.021)"
           ns0:version="1.1.0"
           ns0:texconverter="pdflatex"
           ns0:pdfconverter="inkscape"
           ns0:text=" $Q$"
           ns0:preamble="/home/fernando/.config/inkscape/extensions/logicGates/logicGatesPreamble.tex"
           ns0:scale="1.0"
           ns0:alignment="middle center"
           ns0:inkscapeversion="1.0.1"
           ns0:jacobian_sqrt="1.33333"
           id="g1075">
          <defs
             id="id-5d4ce04e-22a0-4b78-b1e7-152f64764038">
            <g
               id="id-2d830c7e-b9eb-4409-9989-4f2fd27b28fd">
              <symbol
                 overflow="visible"
                 id="id-afc1ff41-2bdb-426d-a09c-5413534b6e83">
                <path
                   style="stroke:none"
                   d=""
                   id="id-8fbe808d-0b4e-44ad-968f-694751a48794" />
              </symbol>
              <symbol
                 overflow="visible"
                 id="id-2df57338-c8da-436b-8a06-fc4f862eb698">
                <path
                   style="stroke:none"
                   d="M 4.359375,-0.0625 C 5.90625,-0.640625 7.375,-2.421875 7.375,-4.34375 c 0,-1.609375 -1.0625,-2.6875 -2.546875,-2.6875 -2.140625,0 -4.34375,2.265625 -4.34375,4.59375 0,1.65625 1.125,2.65625 2.5625,2.65625 0.25,0 0.578125,-0.046875 0.96875,-0.15625 -0.03125,0.625 -0.03125,0.640625 -0.03125,0.78125 0,0.3125 0,1.09375 0.828125,1.09375 1.171875,0 1.65625,-1.828125 1.65625,-1.9375 0,-0.0625 -0.0625,-0.09375 -0.109375,-0.09375 -0.078125,0 -0.09375,0.046875 -0.125,0.109375 C 6,0.71875 5.421875,0.96875 5.078125,0.96875 c -0.46875,0 -0.609375,-0.265625 -0.71875,-1.03125 z m -1.875,-0.078125 c -0.78125,-0.3125 -1.125,-1.078125 -1.125,-1.984375 0,-0.6875 0.265625,-2.109375 1.015625,-3.171875 C 3.109375,-6.3125 4.046875,-6.78125 4.78125,-6.78125 5.765625,-6.78125 6.5,-6 6.5,-4.671875 c 0,1 -0.515625,3.34375 -2.1875,4.265625 -0.046875,-0.34375 -0.140625,-1.0625 -0.875,-1.0625 -0.53125,0 -1.015625,0.484375 -1.015625,1.015625 0,0.1875 0.0625,0.296875 0.0625,0.3125 z M 3.09375,-0.03125 c -0.140625,0 -0.453125,0 -0.453125,-0.421875 0,-0.40625 0.375,-0.796875 0.796875,-0.796875 0.421875,0 0.609375,0.234375 0.609375,0.84375 0,0.140625 -0.015625,0.15625 -0.109375,0.203125 C 3.671875,-0.09375 3.375,-0.03125 3.09375,-0.03125 Z m 0,0"
                   id="id-deaa0f7f-921f-4722-93d8-11c06b86a386" />
              </symbol>
            </g>
          </defs>
          <g
             id="id-843217ad-3cdb-447b-a404-393526485e88"
             transform="translate(-149.196,-127.734)">
            <g
               style="fill:#000000;fill-opacity:1"
               id="id-7a3a3a2d-688b-451a-9326-ee009ddd114c">
              <g
                 transform="translate(148.712,134.765)"
                 id="g1071">
                <path
                   style="stroke:none"
                   d="M 4.359375,-0.0625 C 5.90625,-0.640625 7.375,-2.421875 7.375,-4.34375 c 0,-1.609375 -1.0625,-2.6875 -2.546875,-2.6875 -2.140625,0 -4.34375,2.265625 -4.34375,4.59375 0,1.65625 1.125,2.65625 2.5625,2.65625 0.25,0 0.578125,-0.046875 0.96875,-0.15625 -0.03125,0.625 -0.03125,0.640625 -0.03125,0.78125 0,0.3125 0,1.09375 0.828125,1.09375 1.171875,0 1.65625,-1.828125 1.65625,-1.9375 0,-0.0625 -0.0625,-0.09375 -0.109375,-0.09375 -0.078125,0 -0.09375,0.046875 -0.125,0.109375 C 6,0.71875 5.421875,0.96875 5.078125,0.96875 c -0.46875,0 -0.609375,-0.265625 -0.71875,-1.03125 z m -1.875,-0.078125 c -0.78125,-0.3125 -1.125,-1.078125 -1.125,-1.984375 0,-0.6875 0.265625,-2.109375 1.015625,-3.171875 C 3.109375,-6.3125 4.046875,-6.78125 4.78125,-6.78125 5.765625,-6.78125 6.5,-6 6.5,-4.671875 c 0,1 -0.515625,3.34375 -2.1875,4.265625 -0.046875,-0.34375 -0.140625,-1.0625 -0.875,-1.0625 -0.53125,0 -1.015625,0.484375 -1.015625,1.015625 0,0.1875 0.0625,0.296875 0.0625,0.3125 z M 3.09375,-0.03125 c -0.140625,0 -0.453125,0 -0.453125,-0.421875 0,-0.40625 0.375,-0.796875 0.796875,-0.796875 0.421875,0 0.609375,0.234375 0.609375,0.84375 0,0.140625 -0.015625,0.15625 -0.109375,0.203125 C 3.671875,-0.09375 3.375,-0.03125 3.09375,-0.03125 Z m 0,0"
                   id="id-f2753c32-755c-4462-836b-3cac889fbfd9" />
              </g>
            </g>
          </g>
        </g>
      </g>
    </g>
    <g
       inkscape:label="notQ"
       id="g1100">
      <g
         inkscape:label="notQ"
         transform="rotate(180,170,160)"
         id="g1082">
        <path
           d="M 170,160 H 160"
           style="fill:none;stroke:#000000;stroke-width:1;stroke-linecap:round;stroke-linejoin:round;stroke-dasharray:none"
           inkscape:label="notQ"
           id="path1080" />
      </g>
      <g
         inkscape:label="Layer 1"
         inkscape:groupmode="layer"
         id="g1098"
         transform="matrix(0.663596,0,0,0.663596,-102.92367,-211.61353)">
        <g
           transform="matrix(1.33333,0,0,1.33333,394.747,552.975)"
           ns0:version="1.1.0"
           ns0:texconverter="pdflatex"
           ns0:pdfconverter="inkscape"
           ns0:text=" $\\NOT{Q}$"
           ns0:preamble="/home/fernando/.config/inkscape/extensions/logicGates/logicGatesPreamble.tex"
           ns0:scale="1.0"
           ns0:alignment="middle center"
           ns0:inkscapeversion="1.0.1"
           ns0:jacobian_sqrt="1.33333"
           id="g1096">
          <defs
             id="id-0e9be438-c350-4e84-ba51-e4955bb38b87">
            <g
               id="id-a23f5c6d-380f-40b1-992b-371301280e49">
              <symbol
                 overflow="visible"
                 id="id-7a5cac08-5b91-47e0-9036-870cb38b29d9">
                <path
                   style="stroke:none"
                   d=""
                   id="id-78358868-6fa0-4d10-a24d-29a3e260e53b" />
              </symbol>
              <symbol
                 overflow="visible"
                 id="id-3ec174f3-824a-43fe-9cb1-ab0c9acac9ad">
                <path
                   style="stroke:none"
                   d="M 4.359375,-0.0625 C 5.90625,-0.640625 7.375,-2.421875 7.375,-4.34375 c 0,-1.609375 -1.0625,-2.6875 -2.546875,-2.6875 -2.140625,0 -4.34375,2.265625 -4.34375,4.59375 0,1.65625 1.125,2.65625 2.5625,2.65625 0.25,0 0.578125,-0.046875 0.96875,-0.15625 -0.03125,0.625 -0.03125,0.640625 -0.03125,0.78125 0,0.3125 0,1.09375 0.828125,1.09375 1.171875,0 1.65625,-1.828125 1.65625,-1.9375 0,-0.0625 -0.0625,-0.09375 -0.109375,-0.09375 -0.078125,0 -0.09375,0.046875 -0.125,0.109375 C 6,0.71875 5.421875,0.96875 5.078125,0.96875 c -0.46875,0 -0.609375,-0.265625 -0.71875,-1.03125 z m -1.875,-0.078125 c -0.78125,-0.3125 -1.125,-1.078125 -1.125,-1.984375 0,-0.6875 0.265625,-2.109375 1.015625,-3.171875 C 3.109375,-6.3125 4.046875,-6.78125 4.78125,-6.78125 5.765625,-6.78125 6.5,-6 6.5,-4.671875 c 0,1 -0.515625,3.34375 -2.1875,4.265625 -0.046875,-0.34375 -0.140625,-1.0625 -0.875,-1.0625 -0.53125,0 -1.015625,0.484375 -1.015625,1.015625 0,0.1875 0.0625,0.296875 0.0625,0.3125 z M 3.09375,-0.03125 c -0.140625,0 -0.453125,0 -0.453125,-0.421875 0,-0.40625 0.375,-0.796875 0.796875,-0.796875 0.421875,0 0.609375,0.234375 0.609375,0.84375 0,0.140625 -0.015625,0.15625 -0.109375,0.203125 C 3.671875,-0.09375 3.375,-0.03125 3.09375,-0.03125 Z m 0,0"
                   id="id-24f1d0e3-610e-4d74-81ba-762a2f0b5270" />
              </symbol>
            </g>
          </defs>
          <g
             id="id-ebb86a86-9ce3-452e-87e0-34ebe7c26af7"
             transform="translate(-148.711,-126.364)">
            <path
               style="fill:none;stroke:#000000;stroke-width:0.398;stroke-linecap:butt;stroke-linejoin:miter;stroke-miterlimit:10;stroke-opacity:1"
               d="M -0.0010625,-5e-4 H 7.877844"
               transform="matrix(1,0,0,-1,148.712,126.562)"
               id="id-a0e13d0c-76df-479e-a5cc-c95e22e7c210" />
            <g
               style="fill:#000000;fill-opacity:1"
               id="id-83c5868d-918a-4000-af68-826688bdea9f">
              <g
                 transform="translate(148.712,134.765)"
                 id="g1092">
                <path
                   style="stroke:none"
                   d="M 4.359375,-0.0625 C 5.90625,-0.640625 7.375,-2.421875 7.375,-4.34375 c 0,-1.609375 -1.0625,-2.6875 -2.546875,-2.6875 -2.140625,0 -4.34375,2.265625 -4.34375,4.59375 0,1.65625 1.125,2.65625 2.5625,2.65625 0.25,0 0.578125,-0.046875 0.96875,-0.15625 -0.03125,0.625 -0.03125,0.640625 -0.03125,0.78125 0,0.3125 0,1.09375 0.828125,1.09375 1.171875,0 1.65625,-1.828125 1.65625,-1.9375 0,-0.0625 -0.0625,-0.09375 -0.109375,-0.09375 -0.078125,0 -0.09375,0.046875 -0.125,0.109375 C 6,0.71875 5.421875,0.96875 5.078125,0.96875 c -0.46875,0 -0.609375,-0.265625 -0.71875,-1.03125 z m -1.875,-0.078125 c -0.78125,-0.3125 -1.125,-1.078125 -1.125,-1.984375 0,-0.6875 0.265625,-2.109375 1.015625,-3.171875 C 3.109375,-6.3125 4.046875,-6.78125 4.78125,-6.78125 5.765625,-6.78125 6.5,-6 6.5,-4.671875 c 0,1 -0.515625,3.34375 -2.1875,4.265625 -0.046875,-0.34375 -0.140625,-1.0625 -0.875,-1.0625 -0.53125,0 -1.015625,0.484375 -1.015625,1.015625 0,0.1875 0.0625,0.296875 0.0625,0.3125 z M 3.09375,-0.03125 c -0.140625,0 -0.453125,0 -0.453125,-0.421875 0,-0.40625 0.375,-0.796875 0.796875,-0.796875 0.421875,0 0.609375,0.234375 0.609375,0.84375 0,0.140625 -0.015625,0.15625 -0.109375,0.203125 C 3.671875,-0.09375 3.375,-0.03125 3.09375,-0.03125 Z m 0,0"
                   id="id-0b1f2df8-17d9-40db-9d09-ca2947712c36" />
              </g>
            </g>
          </g>
        </g>
      </g>
    </g>
    <g
       inkscape:label="input"
       id="g1131">
      <g
         inkscape:label="input"
         transform="rotate(90,150,130)"
         id="g1104">
        <path
           d="M 150,130 H 140"
           style="fill:none;stroke:#000000;stroke-width:1;stroke-linecap:round;stroke-linejoin:round;stroke-dasharray:none"
           inkscape:label="input"
           id="path1102" />
      </g>
      <g
         inkscape:label="Layer 1"
         inkscape:groupmode="layer"
         id="g1129"
         transform="matrix(0.398158,0,0,0.398158,-9.263253,-88.702048)">
        <g
           transform="matrix(1.33333,0,0,1.33333,386.487,555.313)"
           ns0:version="1.1.0"
           ns0:texconverter="pdflatex"
           ns0:pdfconverter="inkscape"
           ns0:text=" PRE"
           ns0:preamble="/home/fernando/.config/inkscape/extensions/logicGates/logicGatesPreamble.tex"
           ns0:scale="1.0"
           ns0:alignment="middle center"
           ns0:inkscapeversion="1.0.1"
           ns0:jacobian_sqrt="1.33333"
           id="g1127">
          <defs
             id="id-b13cf264-f8c5-4357-a4be-cfbcead6a79f">
            <g
               id="id-12a23975-5a42-4946-97cb-1fd97170d392">
              <symbol
                 overflow="visible"
                 id="id-11f1ad3d-548c-496c-a49a-9ee72a8fb8b8">
                <path
                   style="stroke:none"
                   d=""
                   id="id-ae98ef36-4b44-4bc0-8c8e-bf913a3943d8" />
              </symbol>
              <symbol
                 overflow="visible"
                 id="id-3d62d28b-f0be-432e-aa2b-5f434be8451f">
                <path
                   style="stroke:none"
                   d="m 2.265625,-3.15625 h 1.6875 c 1.1875,0 2.265625,-0.796875 2.265625,-1.796875 C 6.21875,-5.9375 5.234375,-6.8125 3.875,-6.8125 H 0.34375 V -6.5 h 0.25 c 0.765625,0 0.78125,0.109375 0.78125,0.46875 v 5.25 c 0,0.359375 -0.015625,0.46875 -0.78125,0.46875 h -0.25 V 0 c 0.359375,-0.03125 1.09375,-0.03125 1.46875,-0.03125 0.375,0 1.125,0 1.484375,0.03125 v -0.3125 h -0.25 c -0.765625,0 -0.78125,-0.109375 -0.78125,-0.46875 z m -0.03125,-0.25 v -2.6875 C 2.234375,-6.4375 2.25,-6.5 2.71875,-6.5 h 0.890625 c 1.578125,0 1.578125,1.0625 1.578125,1.546875 0,0.46875 0,1.546875 -1.578125,1.546875 z m 0,0"
                   id="id-4003ee08-0272-486e-a9e3-4cfc9683c73f" />
              </symbol>
              <symbol
                 overflow="visible"
                 id="id-c62bf884-92ed-4aea-8153-fb16e548a474">
                <path
                   style="stroke:none"
                   d="M 2.234375,-3.515625 V -6.09375 c 0,-0.234375 0,-0.359375 0.21875,-0.390625 C 2.546875,-6.5 2.84375,-6.5 3.046875,-6.5 c 0.890625,0 2,0.046875 2,1.484375 0,0.6875 -0.234375,1.5 -1.703125,1.5 z m 2.109375,0.125 C 5.296875,-3.625 6.078125,-4.234375 6.078125,-5.015625 6.078125,-5.96875 4.9375,-6.8125 3.484375,-6.8125 H 0.34375 V -6.5 h 0.25 c 0.765625,0 0.78125,0.109375 0.78125,0.46875 v 5.25 c 0,0.359375 -0.015625,0.46875 -0.78125,0.46875 h -0.25 V 0 c 0.359375,-0.03125 1.078125,-0.03125 1.453125,-0.03125 0.390625,0 1.109375,0 1.46875,0.03125 v -0.3125 h -0.25 c -0.765625,0 -0.78125,-0.109375 -0.78125,-0.46875 V -3.296875 H 3.375 c 0.15625,0 0.578125,0 0.9375,0.34375 0.375,0.34375 0.375,0.65625 0.375,1.328125 0,0.640625 0,1.046875 0.40625,1.421875 0.40625,0.359375 0.953125,0.421875 1.25,0.421875 0.78125,0 0.953125,-0.8125 0.953125,-1.09375 0,-0.0625 0,-0.171875 -0.125,-0.171875 -0.109375,0 -0.109375,0.09375 -0.125,0.15625 C 6.984375,-0.171875 6.640625,0 6.390625,0 5.90625,0 5.828125,-0.515625 5.6875,-1.4375 L 5.546875,-2.234375 C 5.375,-2.875 4.890625,-3.203125 4.34375,-3.390625 Z m 0,0"
                   id="id-914864fb-a39e-4dcf-8238-a54f71092a86" />
              </symbol>
              <symbol
                 overflow="visible"
                 id="id-6d4317a5-6f65-4682-a38e-3b94d09b7faa">
                <path
                   style="stroke:none"
                   d="m 1.359375,-0.78125 c 0,0.359375 -0.03125,0.46875 -0.796875,0.46875 H 0.328125 V 0 h 5.75 L 6.5,-2.578125 H 6.25 C 6,-1.03125 5.765625,-0.3125 4.0625,-0.3125 H 2.734375 C 2.265625,-0.3125 2.25,-0.375 2.25,-0.703125 V -3.375 h 0.890625 c 0.96875,0 1.078125,0.328125 1.078125,1.171875 h 0.25 V -4.84375 h -0.25 c 0,0.859375 -0.109375,1.171875 -1.078125,1.171875 H 2.25 v -2.40625 c 0,-0.328125 0.015625,-0.390625 0.484375,-0.390625 h 1.28125 c 1.53125,0 1.796875,0.546875 1.953125,1.9375 h 0.25 l -0.28125,-2.25 H 0.328125 v 0.3125 H 0.5625 c 0.765625,0 0.796875,0.109375 0.796875,0.46875 z m 0,0"
                   id="id-2bd2af69-a4fe-4f60-991e-d516f9d8c24c" />
              </symbol>
            </g>
          </defs>
          <g
             id="id-441e5b3e-1c89-4543-87cf-a90509093923"
             transform="translate(-149.056,-127.953)">
            <g
               style="fill:#000000;fill-opacity:1"
               id="id-2f47a4e2-ead8-497e-961a-13de58c8a1ae">
              <g
                 transform="translate(148.712,134.765)"
                 id="g1117">
                <path
                   style="stroke:none"
                   d="m 2.265625,-3.15625 h 1.6875 c 1.1875,0 2.265625,-0.796875 2.265625,-1.796875 C 6.21875,-5.9375 5.234375,-6.8125 3.875,-6.8125 H 0.34375 V -6.5 h 0.25 c 0.765625,0 0.78125,0.109375 0.78125,0.46875 v 5.25 c 0,0.359375 -0.015625,0.46875 -0.78125,0.46875 h -0.25 V 0 c 0.359375,-0.03125 1.09375,-0.03125 1.46875,-0.03125 0.375,0 1.125,0 1.484375,0.03125 v -0.3125 h -0.25 c -0.765625,0 -0.78125,-0.109375 -0.78125,-0.46875 z m -0.03125,-0.25 v -2.6875 C 2.234375,-6.4375 2.25,-6.5 2.71875,-6.5 h 0.890625 c 1.578125,0 1.578125,1.0625 1.578125,1.546875 0,0.46875 0,1.546875 -1.578125,1.546875 z m 0,0"
                   id="id-a5118ecc-2f75-4ff0-8b91-c5710920cf98" />
              </g>
              <g
                 transform="translate(155.493,134.765)"
                 id="g1120">
                <path
                   style="stroke:none"
                   d="M 2.234375,-3.515625 V -6.09375 c 0,-0.234375 0,-0.359375 0.21875,-0.390625 C 2.546875,-6.5 2.84375,-6.5 3.046875,-6.5 c 0.890625,0 2,0.046875 2,1.484375 0,0.6875 -0.234375,1.5 -1.703125,1.5 z m 2.109375,0.125 C 5.296875,-3.625 6.078125,-4.234375 6.078125,-5.015625 6.078125,-5.96875 4.9375,-6.8125 3.484375,-6.8125 H 0.34375 V -6.5 h 0.25 c 0.765625,0 0.78125,0.109375 0.78125,0.46875 v 5.25 c 0,0.359375 -0.015625,0.46875 -0.78125,0.46875 h -0.25 V 0 c 0.359375,-0.03125 1.078125,-0.03125 1.453125,-0.03125 0.390625,0 1.109375,0 1.46875,0.03125 v -0.3125 h -0.25 c -0.765625,0 -0.78125,-0.109375 -0.78125,-0.46875 V -3.296875 H 3.375 c 0.15625,0 0.578125,0 0.9375,0.34375 0.375,0.34375 0.375,0.65625 0.375,1.328125 0,0.640625 0,1.046875 0.40625,1.421875 0.40625,0.359375 0.953125,0.421875 1.25,0.421875 0.78125,0 0.953125,-0.8125 0.953125,-1.09375 0,-0.0625 0,-0.171875 -0.125,-0.171875 -0.109375,0 -0.109375,0.09375 -0.125,0.15625 C 6.984375,-0.171875 6.640625,0 6.390625,0 5.90625,0 5.828125,-0.515625 5.6875,-1.4375 L 5.546875,-2.234375 C 5.375,-2.875 4.890625,-3.203125 4.34375,-3.390625 Z m 0,0"
                   id="id-792312ac-2aa8-4454-887c-0c54c2b5f67f" />
              </g>
              <g
                 transform="translate(162.826,134.765)"
                 id="g1123">
                <path
                   style="stroke:none"
                   d="m 1.359375,-0.78125 c 0,0.359375 -0.03125,0.46875 -0.796875,0.46875 H 0.328125 V 0 h 5.75 L 6.5,-2.578125 H 6.25 C 6,-1.03125 5.765625,-0.3125 4.0625,-0.3125 H 2.734375 C 2.265625,-0.3125 2.25,-0.375 2.25,-0.703125 V -3.375 h 0.890625 c 0.96875,0 1.078125,0.328125 1.078125,1.171875 h 0.25 V -4.84375 h -0.25 c 0,0.859375 -0.109375,1.171875 -1.078125,1.171875 H 2.25 v -2.40625 c 0,-0.328125 0.015625,-0.390625 0.484375,-0.390625 h 1.28125 c 1.53125,0 1.796875,0.546875 1.953125,1.9375 h 0.25 l -0.28125,-2.25 H 0.328125 v 0.3125 H 0.5625 c 0.765625,0 0.796875,0.109375 0.796875,0.46875 z m 0,0"
                   id="id-6c879d18-6955-4025-8f80-7a3e587582a8" />
              </g>
            </g>
          </g>
        </g>
      </g>
    </g>
    <g
       inkscape:label="input"
       id="g1162">
      <g
         inkscape:label="input"
         transform="rotate(-90,150,170)"
         id="g1135">
        <path
           d="M 150,170 H 140"
           style="fill:none;stroke:#000000;stroke-width:1;stroke-linecap:round;stroke-linejoin:round;stroke-dasharray:none"
           inkscape:label="input"
           id="path1133" />
      </g>
      <g
         inkscape:label="Layer 1"
         inkscape:groupmode="layer"
         id="g1160"
         transform="matrix(0.398158,0,0,0.398158,-9.262755,-57.292901)">
        <g
           transform="matrix(1.33333,0,0,1.33333,386.562,555.167)"
           ns0:version="1.1.0"
           ns0:texconverter="pdflatex"
           ns0:pdfconverter="inkscape"
           ns0:text=" CLR"
           ns0:preamble="/home/fernando/.config/inkscape/extensions/logicGates/logicGatesPreamble.tex"
           ns0:scale="1.0"
           ns0:alignment="middle center"
           ns0:inkscapeversion="1.0.1"
           ns0:jacobian_sqrt="1.33333"
           id="g1158">
          <defs
             id="id-4aa7450c-f5f8-44db-8940-01dba6120215">
            <g
               id="id-3df646df-4c4c-4943-8b3a-c80c3df2fa1e">
              <symbol
                 overflow="visible"
                 id="id-1f4ef3b5-8e14-4b13-8e88-fe1c9902394e">
                <path
                   style="stroke:none"
                   d=""
                   id="id-5ab3c640-03e5-4921-ae8e-6eeea9b338b3" />
              </symbol>
              <symbol
                 overflow="visible"
                 id="id-369ae6bc-5260-46c6-8cf8-2dca405de4a1">
                <path
                   style="stroke:none"
                   d="m 0.5625,-3.40625 c 0,2.0625 1.609375,3.625 3.46875,3.625 1.625,0 2.59375,-1.390625 2.59375,-2.546875 C 6.625,-2.421875 6.625,-2.5 6.5,-2.5 6.390625,-2.5 6.390625,-2.4375 6.375,-2.328125 6.296875,-0.90625 5.234375,-0.09375 4.140625,-0.09375 c -0.609375,0 -2.5625,-0.328125 -2.5625,-3.3125 0,-2.96875 1.953125,-3.3125 2.5625,-3.3125 1.078125,0 1.96875,0.90625 2.171875,2.359375 C 6.328125,-4.21875 6.328125,-4.1875 6.46875,-4.1875 6.625,-4.1875 6.625,-4.21875 6.625,-4.421875 V -6.78125 c 0,-0.171875 0,-0.25 -0.109375,-0.25 -0.03125,0 -0.078125,0 -0.15625,0.125 l -0.5,0.734375 C 5.5,-6.53125 4.984375,-7.03125 4.03125,-7.03125 c -1.875,0 -3.46875,1.59375 -3.46875,3.625 z m 0,0"
                   id="id-e665d0f4-ad9d-47ac-8607-23a2e18ae8cd" />
              </symbol>
              <symbol
                 overflow="visible"
                 id="id-4459df28-8901-43d7-925c-3eb1c929b7e5">
                <path
                   style="stroke:none"
                   d="m 5.796875,-2.578125 h -0.25 c -0.109375,1.015625 -0.25,2.265625 -2,2.265625 h -0.8125 C 2.265625,-0.3125 2.25,-0.375 2.25,-0.703125 v -5.3125 C 2.25,-6.359375 2.25,-6.5 3.1875,-6.5 H 3.515625 V -6.8125 C 3.15625,-6.78125 2.25,-6.78125 1.84375,-6.78125 c -0.390625,0 -1.171875,0 -1.515625,-0.03125 V -6.5 H 0.5625 c 0.765625,0 0.796875,0.109375 0.796875,0.46875 v 5.25 c 0,0.359375 -0.03125,0.46875 -0.796875,0.46875 H 0.328125 V 0 h 5.1875 z m 0,0"
                   id="id-c53003fa-8a1e-47e5-bad5-61141f5372ac" />
              </symbol>
              <symbol
                 overflow="visible"
                 id="id-abf7e607-0866-45b2-a25e-12c0fce10901">
                <path
                   style="stroke:none"
                   d="M 2.234375,-3.515625 V -6.09375 c 0,-0.234375 0,-0.359375 0.21875,-0.390625 C 2.546875,-6.5 2.84375,-6.5 3.046875,-6.5 c 0.890625,0 2,0.046875 2,1.484375 0,0.6875 -0.234375,1.5 -1.703125,1.5 z m 2.109375,0.125 C 5.296875,-3.625 6.078125,-4.234375 6.078125,-5.015625 6.078125,-5.96875 4.9375,-6.8125 3.484375,-6.8125 H 0.34375 V -6.5 h 0.25 c 0.765625,0 0.78125,0.109375 0.78125,0.46875 v 5.25 c 0,0.359375 -0.015625,0.46875 -0.78125,0.46875 h -0.25 V 0 c 0.359375,-0.03125 1.078125,-0.03125 1.453125,-0.03125 0.390625,0 1.109375,0 1.46875,0.03125 v -0.3125 h -0.25 c -0.765625,0 -0.78125,-0.109375 -0.78125,-0.46875 V -3.296875 H 3.375 c 0.15625,0 0.578125,0 0.9375,0.34375 0.375,0.34375 0.375,0.65625 0.375,1.328125 0,0.640625 0,1.046875 0.40625,1.421875 0.40625,0.359375 0.953125,0.421875 1.25,0.421875 0.78125,0 0.953125,-0.8125 0.953125,-1.09375 0,-0.0625 0,-0.171875 -0.125,-0.171875 -0.109375,0 -0.109375,0.09375 -0.125,0.15625 C 6.984375,-0.171875 6.640625,0 6.390625,0 5.90625,0 5.828125,-0.515625 5.6875,-1.4375 L 5.546875,-2.234375 C 5.375,-2.875 4.890625,-3.203125 4.34375,-3.390625 Z m 0,0"
                   id="id-cf3e7437-e917-466b-8ae0-a8466bc13325" />
              </symbol>
            </g>
          </defs>
          <g
             id="id-edfcf382-5cd8-4bb1-b70a-2585f19fcce1"
             transform="translate(-149.275,-127.734)">
            <g
               style="fill:#000000;fill-opacity:1"
               id="id-ff3040ec-e657-45b4-ad60-aeec67e7e24a">
              <g
                 transform="translate(148.712,134.765)"
                 id="g1148">
                <path
                   style="stroke:none"
                   d="m 0.5625,-3.40625 c 0,2.0625 1.609375,3.625 3.46875,3.625 1.625,0 2.59375,-1.390625 2.59375,-2.546875 C 6.625,-2.421875 6.625,-2.5 6.5,-2.5 6.390625,-2.5 6.390625,-2.4375 6.375,-2.328125 6.296875,-0.90625 5.234375,-0.09375 4.140625,-0.09375 c -0.609375,0 -2.5625,-0.328125 -2.5625,-3.3125 0,-2.96875 1.953125,-3.3125 2.5625,-3.3125 1.078125,0 1.96875,0.90625 2.171875,2.359375 C 6.328125,-4.21875 6.328125,-4.1875 6.46875,-4.1875 6.625,-4.1875 6.625,-4.21875 6.625,-4.421875 V -6.78125 c 0,-0.171875 0,-0.25 -0.109375,-0.25 -0.03125,0 -0.078125,0 -0.15625,0.125 l -0.5,0.734375 C 5.5,-6.53125 4.984375,-7.03125 4.03125,-7.03125 c -1.875,0 -3.46875,1.59375 -3.46875,3.625 z m 0,0"
                   id="id-9c0432a2-4860-4c29-8526-176da9bcdfc5" />
              </g>
              <g
                 transform="translate(155.907,134.765)"
                 id="g1151">
                <path
                   style="stroke:none"
                   d="m 5.796875,-2.578125 h -0.25 c -0.109375,1.015625 -0.25,2.265625 -2,2.265625 h -0.8125 C 2.265625,-0.3125 2.25,-0.375 2.25,-0.703125 v -5.3125 C 2.25,-6.359375 2.25,-6.5 3.1875,-6.5 H 3.515625 V -6.8125 C 3.15625,-6.78125 2.25,-6.78125 1.84375,-6.78125 c -0.390625,0 -1.171875,0 -1.515625,-0.03125 V -6.5 H 0.5625 c 0.765625,0 0.796875,0.109375 0.796875,0.46875 v 5.25 c 0,0.359375 -0.03125,0.46875 -0.796875,0.46875 H 0.328125 V 0 h 5.1875 z m 0,0"
                   id="id-729eea06-963b-4a2a-a8fa-bc8baa2b992f" />
              </g>
              <g
                 transform="translate(162.134,134.765)"
                 id="g1154">
                <path
                   style="stroke:none"
                   d="M 2.234375,-3.515625 V -6.09375 c 0,-0.234375 0,-0.359375 0.21875,-0.390625 C 2.546875,-6.5 2.84375,-6.5 3.046875,-6.5 c 0.890625,0 2,0.046875 2,1.484375 0,0.6875 -0.234375,1.5 -1.703125,1.5 z m 2.109375,0.125 C 5.296875,-3.625 6.078125,-4.234375 6.078125,-5.015625 6.078125,-5.96875 4.9375,-6.8125 3.484375,-6.8125 H 0.34375 V -6.5 h 0.25 c 0.765625,0 0.78125,0.109375 0.78125,0.46875 v 5.25 c 0,0.359375 -0.015625,0.46875 -0.78125,0.46875 h -0.25 V 0 c 0.359375,-0.03125 1.078125,-0.03125 1.453125,-0.03125 0.390625,0 1.109375,0 1.46875,0.03125 v -0.3125 h -0.25 c -0.765625,0 -0.78125,-0.109375 -0.78125,-0.46875 V -3.296875 H 3.375 c 0.15625,0 0.578125,0 0.9375,0.34375 0.375,0.34375 0.375,0.65625 0.375,1.328125 0,0.640625 0,1.046875 0.40625,1.421875 0.40625,0.359375 0.953125,0.421875 1.25,0.421875 0.78125,0 0.953125,-0.8125 0.953125,-1.09375 0,-0.0625 0,-0.171875 -0.125,-0.171875 -0.109375,0 -0.109375,0.09375 -0.125,0.15625 C 6.984375,-0.171875 6.640625,0 6.390625,0 5.90625,0 5.828125,-0.515625 5.6875,-1.4375 L 5.546875,-2.234375 C 5.375,-2.875 4.890625,-3.203125 4.34375,-3.390625 Z m 0,0"
                   id="id-3d9e84d7-a9a6-43e3-bd64-f4814cd5c983" />
              </g>
            </g>
          </g>
        </g>
      </g>
    </g>
    <g
       inkscape:label="input"
       id="g1183">
      <g
         inkscape:label="input"
         id="g1166">
        <path
           d="M 130,140 H 120"
           style="fill:none;stroke:#000000;stroke-width:1;stroke-linecap:round;stroke-linejoin:round;stroke-dasharray:none"
           inkscape:label="input"
           id="path1164" />
      </g>
      <g
         inkscape:label="Layer 1"
         inkscape:groupmode="layer"
         id="g1181"
         transform="matrix(0.663596,0,0,0.663596,-128.0722,-231.61309)">
        <g
           transform="matrix(1.33333,0,0,1.33333,394.927,555.458)"
           ns0:version="1.1.0"
           ns0:texconverter="pdflatex"
           ns0:pdfconverter="inkscape"
           ns0:text=" $D$"
           ns0:preamble="/home/fernando/.config/inkscape/extensions/logicGates/logicGatesPreamble.tex"
           ns0:scale="1.0"
           ns0:alignment="middle center"
           ns0:inkscapeversion="1.0.1"
           ns0:jacobian_sqrt="1.33333"
           id="g1179">
          <defs
             id="id-a6e34f77-d6da-4eab-b524-612a5628468f">
            <g
               id="id-4edf8cce-d6c4-4dbb-85fb-0ed8f32cda8b">
              <symbol
                 overflow="visible"
                 id="id-9d0ccb74-f1d4-4f6f-b5ad-8f4231ccc4b2">
                <path
                   style="stroke:none"
                   d=""
                   id="id-a03542b2-0a28-4d99-bc2d-a8259de27cf4" />
              </symbol>
              <symbol
                 overflow="visible"
                 id="id-31af0245-6e3a-4de6-94f8-dcc756f28594">
                <path
                   style="stroke:none"
                   d="m 1.578125,-0.78125 c -0.09375,0.390625 -0.109375,0.46875 -0.90625,0.46875 -0.15625,0 -0.265625,0 -0.265625,0.1875 C 0.40625,0 0.484375,0 0.671875,0 h 3.3125 c 2.0625,0 4.03125,-2.109375 4.03125,-4.28125 0,-1.40625 -0.84375,-2.53125 -2.34375,-2.53125 h -3.34375 c -0.1875,0 -0.296875,0 -0.296875,0.1875 0,0.125 0.078125,0.125 0.28125,0.125 0.125,0 0.3125,0.015625 0.421875,0.015625 0.171875,0.03125 0.21875,0.046875 0.21875,0.171875 0,0.03125 0,0.0625 -0.03125,0.1875 z M 3.734375,-6.125 C 3.828125,-6.46875 3.84375,-6.5 4.28125,-6.5 h 1.0625 c 0.96875,0 1.796875,0.53125 1.796875,1.84375 0,0.484375 -0.1875,2.125 -1.046875,3.21875 -0.28125,0.375 -1.0625,1.125 -2.296875,1.125 h -1.125 c -0.140625,0 -0.15625,0 -0.21875,0 -0.09375,-0.015625 -0.125,-0.03125 -0.125,-0.109375 0,-0.03125 0,-0.046875 0.046875,-0.21875 z m 0,0"
                   id="id-cb1dc36c-2e6c-43e9-bb3a-25c4b21063c6" />
              </symbol>
            </g>
          </defs>
          <g
             id="id-21d71b57-ee1d-4701-9146-e2886438bd5a"
             transform="translate(-149.118,-127.953)">
            <g
               style="fill:#000000;fill-opacity:1"
               id="id-ee398cba-39ec-46d8-b9b3-7d5abd9bc869">
              <g
                 transform="translate(148.712,134.765)"
                 id="g1175">
                <path
                   style="stroke:none"
                   d="m 1.578125,-0.78125 c -0.09375,0.390625 -0.109375,0.46875 -0.90625,0.46875 -0.15625,0 -0.265625,0 -0.265625,0.1875 C 0.40625,0 0.484375,0 0.671875,0 h 3.3125 c 2.0625,0 4.03125,-2.109375 4.03125,-4.28125 0,-1.40625 -0.84375,-2.53125 -2.34375,-2.53125 h -3.34375 c -0.1875,0 -0.296875,0 -0.296875,0.1875 0,0.125 0.078125,0.125 0.28125,0.125 0.125,0 0.3125,0.015625 0.421875,0.015625 0.171875,0.03125 0.21875,0.046875 0.21875,0.171875 0,0.03125 0,0.0625 -0.03125,0.1875 z M 3.734375,-6.125 C 3.828125,-6.46875 3.84375,-6.5 4.28125,-6.5 h 1.0625 c 0.96875,0 1.796875,0.53125 1.796875,1.84375 0,0.484375 -0.1875,2.125 -1.046875,3.21875 -0.28125,0.375 -1.0625,1.125 -2.296875,1.125 h -1.125 c -0.140625,0 -0.15625,0 -0.21875,0 -0.09375,-0.015625 -0.125,-0.03125 -0.125,-0.109375 0,-0.03125 0,-0.046875 0.046875,-0.21875 z m 0,0"
                   id="id-6e4ae2f1-fb13-4539-bee8-aaddfaf17911" />
              </g>
            </g>
          </g>
        </g>
      </g>
    </g>
  </g>
  <g
     inkscape:label="Latch"
     id="g1569"
     transform="translate(45,-15)"
     inkscape:export-xdpi="357.7952"
     inkscape:export-ydpi="357.7952">
    <rect
       height="40"
       rx="None"
       ry="None"
       style="fill:none;stroke:#000000;stroke-width:1.5;stroke-linecap:round;stroke-linejoin:round;stroke-dasharray:none"
       width="40"
       x="130"
       y="130"
       inkscape:label="rectangle"
       id="rect1437" />
    <g
       inkscape:label="Q"
       id="g1458">
      <g
         inkscape:label="Q"
         transform="rotate(180,170,140)"
         id="g1441">
        <path
           d="M 170,140 H 160"
           style="fill:none;stroke:#000000;stroke-width:1;stroke-linecap:round;stroke-linejoin:round;stroke-dasharray:none"
           inkscape:label="Q"
           id="path1439" />
      </g>
      <g
         inkscape:label="Layer 1"
         inkscape:groupmode="layer"
         id="g1456"
         transform="matrix(0.663596,0,0,0.663596,-102.48694,-231.61364)">
        <g
           transform="matrix(1.33333,0,0,1.33333,395.406,554.021)"
           ns0:version="1.1.0"
           ns0:texconverter="pdflatex"
           ns0:pdfconverter="inkscape"
           ns0:text=" $Q$"
           ns0:preamble="/home/fernando/.config/inkscape/extensions/logicGates/logicGatesPreamble.tex"
           ns0:scale="1.0"
           ns0:alignment="middle center"
           ns0:inkscapeversion="1.0.1"
           ns0:jacobian_sqrt="1.33333"
           id="g1454">
          <defs
             id="id-360cc439-acdd-4c8d-b3d9-53e8c3041186">
            <g
               id="id-167ad5f7-a555-46dc-a682-54908ebfd844">
              <symbol
                 overflow="visible"
                 id="id-571e4d79-99fa-4baf-a40d-b936c3a83eea">
                <path
                   style="stroke:none"
                   d=""
                   id="id-193c2213-7ed6-4c81-ab95-eac77e2db945" />
              </symbol>
              <symbol
                 overflow="visible"
                 id="id-7fc96bca-a2ad-4aa6-817c-10cbf0643fc5">
                <path
                   style="stroke:none"
                   d="M 4.359375,-0.0625 C 5.90625,-0.640625 7.375,-2.421875 7.375,-4.34375 c 0,-1.609375 -1.0625,-2.6875 -2.546875,-2.6875 -2.140625,0 -4.34375,2.265625 -4.34375,4.59375 0,1.65625 1.125,2.65625 2.5625,2.65625 0.25,0 0.578125,-0.046875 0.96875,-0.15625 -0.03125,0.625 -0.03125,0.640625 -0.03125,0.78125 0,0.3125 0,1.09375 0.828125,1.09375 1.171875,0 1.65625,-1.828125 1.65625,-1.9375 0,-0.0625 -0.0625,-0.09375 -0.109375,-0.09375 -0.078125,0 -0.09375,0.046875 -0.125,0.109375 C 6,0.71875 5.421875,0.96875 5.078125,0.96875 c -0.46875,0 -0.609375,-0.265625 -0.71875,-1.03125 z m -1.875,-0.078125 c -0.78125,-0.3125 -1.125,-1.078125 -1.125,-1.984375 0,-0.6875 0.265625,-2.109375 1.015625,-3.171875 C 3.109375,-6.3125 4.046875,-6.78125 4.78125,-6.78125 5.765625,-6.78125 6.5,-6 6.5,-4.671875 c 0,1 -0.515625,3.34375 -2.1875,4.265625 -0.046875,-0.34375 -0.140625,-1.0625 -0.875,-1.0625 -0.53125,0 -1.015625,0.484375 -1.015625,1.015625 0,0.1875 0.0625,0.296875 0.0625,0.3125 z M 3.09375,-0.03125 c -0.140625,0 -0.453125,0 -0.453125,-0.421875 0,-0.40625 0.375,-0.796875 0.796875,-0.796875 0.421875,0 0.609375,0.234375 0.609375,0.84375 0,0.140625 -0.015625,0.15625 -0.109375,0.203125 C 3.671875,-0.09375 3.375,-0.03125 3.09375,-0.03125 Z m 0,0"
                   id="id-5d94daf0-6ac8-4821-8db2-fab4f0dfc2d7" />
              </symbol>
            </g>
          </defs>
          <g
             id="id-91a8e927-eda9-4431-8a01-764fae52de9b"
             transform="translate(-149.196,-127.734)">
            <g
               style="fill:#000000;fill-opacity:1"
               id="id-73181d9f-7af9-4c69-b9ca-c9b32e768387">
              <g
                 transform="translate(148.712,134.765)"
                 id="g1450">
                <path
                   style="stroke:none"
                   d="M 4.359375,-0.0625 C 5.90625,-0.640625 7.375,-2.421875 7.375,-4.34375 c 0,-1.609375 -1.0625,-2.6875 -2.546875,-2.6875 -2.140625,0 -4.34375,2.265625 -4.34375,4.59375 0,1.65625 1.125,2.65625 2.5625,2.65625 0.25,0 0.578125,-0.046875 0.96875,-0.15625 -0.03125,0.625 -0.03125,0.640625 -0.03125,0.78125 0,0.3125 0,1.09375 0.828125,1.09375 1.171875,0 1.65625,-1.828125 1.65625,-1.9375 0,-0.0625 -0.0625,-0.09375 -0.109375,-0.09375 -0.078125,0 -0.09375,0.046875 -0.125,0.109375 C 6,0.71875 5.421875,0.96875 5.078125,0.96875 c -0.46875,0 -0.609375,-0.265625 -0.71875,-1.03125 z m -1.875,-0.078125 c -0.78125,-0.3125 -1.125,-1.078125 -1.125,-1.984375 0,-0.6875 0.265625,-2.109375 1.015625,-3.171875 C 3.109375,-6.3125 4.046875,-6.78125 4.78125,-6.78125 5.765625,-6.78125 6.5,-6 6.5,-4.671875 c 0,1 -0.515625,3.34375 -2.1875,4.265625 -0.046875,-0.34375 -0.140625,-1.0625 -0.875,-1.0625 -0.53125,0 -1.015625,0.484375 -1.015625,1.015625 0,0.1875 0.0625,0.296875 0.0625,0.3125 z M 3.09375,-0.03125 c -0.140625,0 -0.453125,0 -0.453125,-0.421875 0,-0.40625 0.375,-0.796875 0.796875,-0.796875 0.421875,0 0.609375,0.234375 0.609375,0.84375 0,0.140625 -0.015625,0.15625 -0.109375,0.203125 C 3.671875,-0.09375 3.375,-0.03125 3.09375,-0.03125 Z m 0,0"
                   id="id-fe9946a7-d30c-4361-9bd9-7d9248e74393" />
              </g>
            </g>
          </g>
        </g>
      </g>
    </g>
    <g
       inkscape:label="notQ"
       id="g1480">
      <g
         inkscape:label="notQ"
         transform="rotate(180,170,160)"
         id="g1462">
        <path
           d="M 170,160 H 160"
           style="fill:none;stroke:#000000;stroke-width:1;stroke-linecap:round;stroke-linejoin:round;stroke-dasharray:none"
           inkscape:label="notQ"
           id="path1460" />
      </g>
      <g
         inkscape:label="Layer 1"
         inkscape:groupmode="layer"
         id="g1478"
         transform="matrix(0.663596,0,0,0.663596,-102.92367,-211.61353)">
        <g
           transform="matrix(1.33333,0,0,1.33333,394.747,552.975)"
           ns0:version="1.1.0"
           ns0:texconverter="pdflatex"
           ns0:pdfconverter="inkscape"
           ns0:text=" $\\NOT{Q}$"
           ns0:preamble="/home/fernando/.config/inkscape/extensions/logicGates/logicGatesPreamble.tex"
           ns0:scale="1.0"
           ns0:alignment="middle center"
           ns0:inkscapeversion="1.0.1"
           ns0:jacobian_sqrt="1.33333"
           id="g1476">
          <defs
             id="id-25b1931e-05a2-4520-8109-0cbea068e660">
            <g
               id="id-9d50b628-01fa-4522-b288-aeb9101ee91b">
              <symbol
                 overflow="visible"
                 id="id-77d31039-0761-4208-964b-ec050b8aa2ba">
                <path
                   style="stroke:none"
                   d=""
                   id="id-45dec007-76c7-49dc-beed-c05a325f3409" />
              </symbol>
              <symbol
                 overflow="visible"
                 id="id-7111458f-3075-40a1-b75b-daf40364dc28">
                <path
                   style="stroke:none"
                   d="M 4.359375,-0.0625 C 5.90625,-0.640625 7.375,-2.421875 7.375,-4.34375 c 0,-1.609375 -1.0625,-2.6875 -2.546875,-2.6875 -2.140625,0 -4.34375,2.265625 -4.34375,4.59375 0,1.65625 1.125,2.65625 2.5625,2.65625 0.25,0 0.578125,-0.046875 0.96875,-0.15625 -0.03125,0.625 -0.03125,0.640625 -0.03125,0.78125 0,0.3125 0,1.09375 0.828125,1.09375 1.171875,0 1.65625,-1.828125 1.65625,-1.9375 0,-0.0625 -0.0625,-0.09375 -0.109375,-0.09375 -0.078125,0 -0.09375,0.046875 -0.125,0.109375 C 6,0.71875 5.421875,0.96875 5.078125,0.96875 c -0.46875,0 -0.609375,-0.265625 -0.71875,-1.03125 z m -1.875,-0.078125 c -0.78125,-0.3125 -1.125,-1.078125 -1.125,-1.984375 0,-0.6875 0.265625,-2.109375 1.015625,-3.171875 C 3.109375,-6.3125 4.046875,-6.78125 4.78125,-6.78125 5.765625,-6.78125 6.5,-6 6.5,-4.671875 c 0,1 -0.515625,3.34375 -2.1875,4.265625 -0.046875,-0.34375 -0.140625,-1.0625 -0.875,-1.0625 -0.53125,0 -1.015625,0.484375 -1.015625,1.015625 0,0.1875 0.0625,0.296875 0.0625,0.3125 z M 3.09375,-0.03125 c -0.140625,0 -0.453125,0 -0.453125,-0.421875 0,-0.40625 0.375,-0.796875 0.796875,-0.796875 0.421875,0 0.609375,0.234375 0.609375,0.84375 0,0.140625 -0.015625,0.15625 -0.109375,0.203125 C 3.671875,-0.09375 3.375,-0.03125 3.09375,-0.03125 Z m 0,0"
                   id="id-f4afa66d-4282-44a9-a351-6fab53422040" />
              </symbol>
            </g>
          </defs>
          <g
             id="id-567d1b99-ca08-4287-b3b2-e19756030bbe"
             transform="translate(-148.711,-126.364)">
            <path
               style="fill:none;stroke:#000000;stroke-width:0.398;stroke-linecap:butt;stroke-linejoin:miter;stroke-miterlimit:10;stroke-opacity:1"
               d="M -0.0010625,-5e-4 H 7.877844"
               transform="matrix(1,0,0,-1,148.712,126.562)"
               id="id-85965ecc-e90a-414a-b151-fe08ad22c428" />
            <g
               style="fill:#000000;fill-opacity:1"
               id="id-133d6df9-e60c-42b7-b4be-1e549af48d98">
              <g
                 transform="translate(148.712,134.765)"
                 id="g1472">
                <path
                   style="stroke:none"
                   d="M 4.359375,-0.0625 C 5.90625,-0.640625 7.375,-2.421875 7.375,-4.34375 c 0,-1.609375 -1.0625,-2.6875 -2.546875,-2.6875 -2.140625,0 -4.34375,2.265625 -4.34375,4.59375 0,1.65625 1.125,2.65625 2.5625,2.65625 0.25,0 0.578125,-0.046875 0.96875,-0.15625 -0.03125,0.625 -0.03125,0.640625 -0.03125,0.78125 0,0.3125 0,1.09375 0.828125,1.09375 1.171875,0 1.65625,-1.828125 1.65625,-1.9375 0,-0.0625 -0.0625,-0.09375 -0.109375,-0.09375 -0.078125,0 -0.09375,0.046875 -0.125,0.109375 C 6,0.71875 5.421875,0.96875 5.078125,0.96875 c -0.46875,0 -0.609375,-0.265625 -0.71875,-1.03125 z m -1.875,-0.078125 c -0.78125,-0.3125 -1.125,-1.078125 -1.125,-1.984375 0,-0.6875 0.265625,-2.109375 1.015625,-3.171875 C 3.109375,-6.3125 4.046875,-6.78125 4.78125,-6.78125 5.765625,-6.78125 6.5,-6 6.5,-4.671875 c 0,1 -0.515625,3.34375 -2.1875,4.265625 -0.046875,-0.34375 -0.140625,-1.0625 -0.875,-1.0625 -0.53125,0 -1.015625,0.484375 -1.015625,1.015625 0,0.1875 0.0625,0.296875 0.0625,0.3125 z M 3.09375,-0.03125 c -0.140625,0 -0.453125,0 -0.453125,-0.421875 0,-0.40625 0.375,-0.796875 0.796875,-0.796875 0.421875,0 0.609375,0.234375 0.609375,0.84375 0,0.140625 -0.015625,0.15625 -0.109375,0.203125 C 3.671875,-0.09375 3.375,-0.03125 3.09375,-0.03125 Z m 0,0"
                   id="id-e9593012-5fe3-44e4-8b2a-54a79ef2d397" />
              </g>
            </g>
          </g>
        </g>
      </g>
    </g>
    <g
       inkscape:label="input"
       id="g1513">
      <g
         inkscape:label="input"
         transform="rotate(90,150,130)"
         id="g1486">
        <path
           d="M 144.5,130 H 140"
           style="fill:none;stroke:#000000;stroke-width:1;stroke-linecap:round;stroke-linejoin:round;stroke-dasharray:none"
           inkscape:label="input"
           id="path1482" />
        <circle
           style="fill:none;stroke:#000000;stroke-width:1.2;stroke-linecap:round;stroke-linejoin:round;stroke-dasharray:none"
           inkscape:label="input"
           id="path1484"
           cx="147"
           cy="130"
           r="2" />
      </g>
      <g
         inkscape:label="Layer 1"
         inkscape:groupmode="layer"
         id="g1511"
         transform="matrix(0.398158,0,0,0.398158,-9.263253,-88.702048)">
        <g
           transform="matrix(1.33333,0,0,1.33333,386.487,555.313)"
           ns0:version="1.1.0"
           ns0:texconverter="pdflatex"
           ns0:pdfconverter="inkscape"
           ns0:text=" PRE"
           ns0:preamble="/home/fernando/.config/inkscape/extensions/logicGates/logicGatesPreamble.tex"
           ns0:scale="1.0"
           ns0:alignment="middle center"
           ns0:inkscapeversion="1.0.1"
           ns0:jacobian_sqrt="1.33333"
           id="g1509">
          <defs
             id="id-3da1969d-bbb7-490f-b5c5-a4884314c232">
            <g
               id="id-0f9e3fce-b05f-4bc1-af19-7fb2832cd8ae">
              <symbol
                 overflow="visible"
                 id="id-2763829d-97fe-4929-abc6-5861c7183baf">
                <path
                   style="stroke:none"
                   d=""
                   id="id-24983430-493c-4fd5-a6de-2c6b61ddcb92" />
              </symbol>
              <symbol
                 overflow="visible"
                 id="id-ab0b9ee5-b972-4893-b1cc-befb17da11b5">
                <path
                   style="stroke:none"
                   d="m 2.265625,-3.15625 h 1.6875 c 1.1875,0 2.265625,-0.796875 2.265625,-1.796875 C 6.21875,-5.9375 5.234375,-6.8125 3.875,-6.8125 H 0.34375 V -6.5 h 0.25 c 0.765625,0 0.78125,0.109375 0.78125,0.46875 v 5.25 c 0,0.359375 -0.015625,0.46875 -0.78125,0.46875 h -0.25 V 0 c 0.359375,-0.03125 1.09375,-0.03125 1.46875,-0.03125 0.375,0 1.125,0 1.484375,0.03125 v -0.3125 h -0.25 c -0.765625,0 -0.78125,-0.109375 -0.78125,-0.46875 z m -0.03125,-0.25 v -2.6875 C 2.234375,-6.4375 2.25,-6.5 2.71875,-6.5 h 0.890625 c 1.578125,0 1.578125,1.0625 1.578125,1.546875 0,0.46875 0,1.546875 -1.578125,1.546875 z m 0,0"
                   id="id-364c467d-5454-42c7-ab76-21e033ff7bb6" />
              </symbol>
              <symbol
                 overflow="visible"
                 id="id-ad6671ad-29cd-425f-9b93-56691cf038a3">
                <path
                   style="stroke:none"
                   d="M 2.234375,-3.515625 V -6.09375 c 0,-0.234375 0,-0.359375 0.21875,-0.390625 C 2.546875,-6.5 2.84375,-6.5 3.046875,-6.5 c 0.890625,0 2,0.046875 2,1.484375 0,0.6875 -0.234375,1.5 -1.703125,1.5 z m 2.109375,0.125 C 5.296875,-3.625 6.078125,-4.234375 6.078125,-5.015625 6.078125,-5.96875 4.9375,-6.8125 3.484375,-6.8125 H 0.34375 V -6.5 h 0.25 c 0.765625,0 0.78125,0.109375 0.78125,0.46875 v 5.25 c 0,0.359375 -0.015625,0.46875 -0.78125,0.46875 h -0.25 V 0 c 0.359375,-0.03125 1.078125,-0.03125 1.453125,-0.03125 0.390625,0 1.109375,0 1.46875,0.03125 v -0.3125 h -0.25 c -0.765625,0 -0.78125,-0.109375 -0.78125,-0.46875 V -3.296875 H 3.375 c 0.15625,0 0.578125,0 0.9375,0.34375 0.375,0.34375 0.375,0.65625 0.375,1.328125 0,0.640625 0,1.046875 0.40625,1.421875 0.40625,0.359375 0.953125,0.421875 1.25,0.421875 0.78125,0 0.953125,-0.8125 0.953125,-1.09375 0,-0.0625 0,-0.171875 -0.125,-0.171875 -0.109375,0 -0.109375,0.09375 -0.125,0.15625 C 6.984375,-0.171875 6.640625,0 6.390625,0 5.90625,0 5.828125,-0.515625 5.6875,-1.4375 L 5.546875,-2.234375 C 5.375,-2.875 4.890625,-3.203125 4.34375,-3.390625 Z m 0,0"
                   id="id-5324993c-c994-4c02-b5d1-b3729e6bcd62" />
              </symbol>
              <symbol
                 overflow="visible"
                 id="id-9e6b8938-fe5d-41d4-8964-1ae0efeeffe5">
                <path
                   style="stroke:none"
                   d="m 1.359375,-0.78125 c 0,0.359375 -0.03125,0.46875 -0.796875,0.46875 H 0.328125 V 0 h 5.75 L 6.5,-2.578125 H 6.25 C 6,-1.03125 5.765625,-0.3125 4.0625,-0.3125 H 2.734375 C 2.265625,-0.3125 2.25,-0.375 2.25,-0.703125 V -3.375 h 0.890625 c 0.96875,0 1.078125,0.328125 1.078125,1.171875 h 0.25 V -4.84375 h -0.25 c 0,0.859375 -0.109375,1.171875 -1.078125,1.171875 H 2.25 v -2.40625 c 0,-0.328125 0.015625,-0.390625 0.484375,-0.390625 h 1.28125 c 1.53125,0 1.796875,0.546875 1.953125,1.9375 h 0.25 l -0.28125,-2.25 H 0.328125 v 0.3125 H 0.5625 c 0.765625,0 0.796875,0.109375 0.796875,0.46875 z m 0,0"
                   id="id-e70ede56-369f-4e1e-9158-c66c3178cdb9" />
              </symbol>
            </g>
          </defs>
          <g
             id="id-c91fc6ce-b30a-4ff7-9bc6-a1f1534fd2a5"
             transform="translate(-149.056,-127.953)">
            <g
               style="fill:#000000;fill-opacity:1"
               id="id-5ab7ccd4-3b1f-4c75-a645-531c898e10a9">
              <g
                 transform="translate(148.712,134.765)"
                 id="g1499">
                <path
                   style="stroke:none"
                   d="m 2.265625,-3.15625 h 1.6875 c 1.1875,0 2.265625,-0.796875 2.265625,-1.796875 C 6.21875,-5.9375 5.234375,-6.8125 3.875,-6.8125 H 0.34375 V -6.5 h 0.25 c 0.765625,0 0.78125,0.109375 0.78125,0.46875 v 5.25 c 0,0.359375 -0.015625,0.46875 -0.78125,0.46875 h -0.25 V 0 c 0.359375,-0.03125 1.09375,-0.03125 1.46875,-0.03125 0.375,0 1.125,0 1.484375,0.03125 v -0.3125 h -0.25 c -0.765625,0 -0.78125,-0.109375 -0.78125,-0.46875 z m -0.03125,-0.25 v -2.6875 C 2.234375,-6.4375 2.25,-6.5 2.71875,-6.5 h 0.890625 c 1.578125,0 1.578125,1.0625 1.578125,1.546875 0,0.46875 0,1.546875 -1.578125,1.546875 z m 0,0"
                   id="id-7faf2bea-8134-4364-bd85-26fcb5830f8c" />
              </g>
              <g
                 transform="translate(155.493,134.765)"
                 id="g1502">
                <path
                   style="stroke:none"
                   d="M 2.234375,-3.515625 V -6.09375 c 0,-0.234375 0,-0.359375 0.21875,-0.390625 C 2.546875,-6.5 2.84375,-6.5 3.046875,-6.5 c 0.890625,0 2,0.046875 2,1.484375 0,0.6875 -0.234375,1.5 -1.703125,1.5 z m 2.109375,0.125 C 5.296875,-3.625 6.078125,-4.234375 6.078125,-5.015625 6.078125,-5.96875 4.9375,-6.8125 3.484375,-6.8125 H 0.34375 V -6.5 h 0.25 c 0.765625,0 0.78125,0.109375 0.78125,0.46875 v 5.25 c 0,0.359375 -0.015625,0.46875 -0.78125,0.46875 h -0.25 V 0 c 0.359375,-0.03125 1.078125,-0.03125 1.453125,-0.03125 0.390625,0 1.109375,0 1.46875,0.03125 v -0.3125 h -0.25 c -0.765625,0 -0.78125,-0.109375 -0.78125,-0.46875 V -3.296875 H 3.375 c 0.15625,0 0.578125,0 0.9375,0.34375 0.375,0.34375 0.375,0.65625 0.375,1.328125 0,0.640625 0,1.046875 0.40625,1.421875 0.40625,0.359375 0.953125,0.421875 1.25,0.421875 0.78125,0 0.953125,-0.8125 0.953125,-1.09375 0,-0.0625 0,-0.171875 -0.125,-0.171875 -0.109375,0 -0.109375,0.09375 -0.125,0.15625 C 6.984375,-0.171875 6.640625,0 6.390625,0 5.90625,0 5.828125,-0.515625 5.6875,-1.4375 L 5.546875,-2.234375 C 5.375,-2.875 4.890625,-3.203125 4.34375,-3.390625 Z m 0,0"
                   id="id-da49793a-b177-45af-9aa0-5ada7430c5ee" />
              </g>
              <g
                 transform="translate(162.826,134.765)"
                 id="g1505">
                <path
                   style="stroke:none"
                   d="m 1.359375,-0.78125 c 0,0.359375 -0.03125,0.46875 -0.796875,0.46875 H 0.328125 V 0 h 5.75 L 6.5,-2.578125 H 6.25 C 6,-1.03125 5.765625,-0.3125 4.0625,-0.3125 H 2.734375 C 2.265625,-0.3125 2.25,-0.375 2.25,-0.703125 V -3.375 h 0.890625 c 0.96875,0 1.078125,0.328125 1.078125,1.171875 h 0.25 V -4.84375 h -0.25 c 0,0.859375 -0.109375,1.171875 -1.078125,1.171875 H 2.25 v -2.40625 c 0,-0.328125 0.015625,-0.390625 0.484375,-0.390625 h 1.28125 c 1.53125,0 1.796875,0.546875 1.953125,1.9375 h 0.25 l -0.28125,-2.25 H 0.328125 v 0.3125 H 0.5625 c 0.765625,0 0.796875,0.109375 0.796875,0.46875 z m 0,0"
                   id="id-2349437c-aba1-440f-b5e5-a86e18e3eda8" />
              </g>
            </g>
          </g>
        </g>
      </g>
    </g>
    <g
       inkscape:label="input"
       id="g1546">
      <g
         inkscape:label="input"
         transform="rotate(-90,150,170)"
         id="g1519">
        <path
           d="M 144.5,170 H 140"
           style="fill:none;stroke:#000000;stroke-width:1;stroke-linecap:round;stroke-linejoin:round;stroke-dasharray:none"
           inkscape:label="input"
           id="path1515" />
        <circle
           style="fill:none;stroke:#000000;stroke-width:1.2;stroke-linecap:round;stroke-linejoin:round;stroke-dasharray:none"
           inkscape:label="input"
           id="path1517"
           cx="147"
           cy="170"
           r="2" />
      </g>
      <g
         inkscape:label="Layer 1"
         inkscape:groupmode="layer"
         id="g1544"
         transform="matrix(0.398158,0,0,0.398158,-9.262755,-57.292901)">
        <g
           transform="matrix(1.33333,0,0,1.33333,386.562,555.167)"
           ns0:version="1.1.0"
           ns0:texconverter="pdflatex"
           ns0:pdfconverter="inkscape"
           ns0:text=" CLR"
           ns0:preamble="/home/fernando/.config/inkscape/extensions/logicGates/logicGatesPreamble.tex"
           ns0:scale="1.0"
           ns0:alignment="middle center"
           ns0:inkscapeversion="1.0.1"
           ns0:jacobian_sqrt="1.33333"
           id="g1542">
          <defs
             id="id-c1bee93c-6f1f-4b83-9e4e-067cd6bfbed9">
            <g
               id="id-9b806a25-fb25-42e3-9eff-7f25c7b79e56">
              <symbol
                 overflow="visible"
                 id="id-41f62f6f-4973-43ef-b873-8255f1157b60">
                <path
                   style="stroke:none"
                   d=""
                   id="id-bbbcec7c-ecba-4c9d-915d-37862617725f" />
              </symbol>
              <symbol
                 overflow="visible"
                 id="id-becb5415-e199-41a6-92aa-8ed47e89ec55">
                <path
                   style="stroke:none"
                   d="m 0.5625,-3.40625 c 0,2.0625 1.609375,3.625 3.46875,3.625 1.625,0 2.59375,-1.390625 2.59375,-2.546875 C 6.625,-2.421875 6.625,-2.5 6.5,-2.5 6.390625,-2.5 6.390625,-2.4375 6.375,-2.328125 6.296875,-0.90625 5.234375,-0.09375 4.140625,-0.09375 c -0.609375,0 -2.5625,-0.328125 -2.5625,-3.3125 0,-2.96875 1.953125,-3.3125 2.5625,-3.3125 1.078125,0 1.96875,0.90625 2.171875,2.359375 C 6.328125,-4.21875 6.328125,-4.1875 6.46875,-4.1875 6.625,-4.1875 6.625,-4.21875 6.625,-4.421875 V -6.78125 c 0,-0.171875 0,-0.25 -0.109375,-0.25 -0.03125,0 -0.078125,0 -0.15625,0.125 l -0.5,0.734375 C 5.5,-6.53125 4.984375,-7.03125 4.03125,-7.03125 c -1.875,0 -3.46875,1.59375 -3.46875,3.625 z m 0,0"
                   id="id-eb82a882-b223-4468-88c1-830574a28fcc" />
              </symbol>
              <symbol
                 overflow="visible"
                 id="id-95164b6c-b275-455a-980b-9214d0d6b449">
                <path
                   style="stroke:none"
                   d="m 5.796875,-2.578125 h -0.25 c -0.109375,1.015625 -0.25,2.265625 -2,2.265625 h -0.8125 C 2.265625,-0.3125 2.25,-0.375 2.25,-0.703125 v -5.3125 C 2.25,-6.359375 2.25,-6.5 3.1875,-6.5 H 3.515625 V -6.8125 C 3.15625,-6.78125 2.25,-6.78125 1.84375,-6.78125 c -0.390625,0 -1.171875,0 -1.515625,-0.03125 V -6.5 H 0.5625 c 0.765625,0 0.796875,0.109375 0.796875,0.46875 v 5.25 c 0,0.359375 -0.03125,0.46875 -0.796875,0.46875 H 0.328125 V 0 h 5.1875 z m 0,0"
                   id="id-ad1457c4-300e-4323-a712-6a8a0292f357" />
              </symbol>
              <symbol
                 overflow="visible"
                 id="id-f6a2aa4d-0d29-4017-93f1-fd3ae5e1db35">
                <path
                   style="stroke:none"
                   d="M 2.234375,-3.515625 V -6.09375 c 0,-0.234375 0,-0.359375 0.21875,-0.390625 C 2.546875,-6.5 2.84375,-6.5 3.046875,-6.5 c 0.890625,0 2,0.046875 2,1.484375 0,0.6875 -0.234375,1.5 -1.703125,1.5 z m 2.109375,0.125 C 5.296875,-3.625 6.078125,-4.234375 6.078125,-5.015625 6.078125,-5.96875 4.9375,-6.8125 3.484375,-6.8125 H 0.34375 V -6.5 h 0.25 c 0.765625,0 0.78125,0.109375 0.78125,0.46875 v 5.25 c 0,0.359375 -0.015625,0.46875 -0.78125,0.46875 h -0.25 V 0 c 0.359375,-0.03125 1.078125,-0.03125 1.453125,-0.03125 0.390625,0 1.109375,0 1.46875,0.03125 v -0.3125 h -0.25 c -0.765625,0 -0.78125,-0.109375 -0.78125,-0.46875 V -3.296875 H 3.375 c 0.15625,0 0.578125,0 0.9375,0.34375 0.375,0.34375 0.375,0.65625 0.375,1.328125 0,0.640625 0,1.046875 0.40625,1.421875 0.40625,0.359375 0.953125,0.421875 1.25,0.421875 0.78125,0 0.953125,-0.8125 0.953125,-1.09375 0,-0.0625 0,-0.171875 -0.125,-0.171875 -0.109375,0 -0.109375,0.09375 -0.125,0.15625 C 6.984375,-0.171875 6.640625,0 6.390625,0 5.90625,0 5.828125,-0.515625 5.6875,-1.4375 L 5.546875,-2.234375 C 5.375,-2.875 4.890625,-3.203125 4.34375,-3.390625 Z m 0,0"
                   id="id-14207086-58cd-4a72-bb58-592c2167cada" />
              </symbol>
            </g>
          </defs>
          <g
             id="id-a335c29e-aef5-418a-a36a-fd20c6b00a5e"
             transform="translate(-149.275,-127.734)">
            <g
               style="fill:#000000;fill-opacity:1"
               id="id-967b43b2-e240-4ba6-9159-7b806fd43559">
              <g
                 transform="translate(148.712,134.765)"
                 id="g1532">
                <path
                   style="stroke:none"
                   d="m 0.5625,-3.40625 c 0,2.0625 1.609375,3.625 3.46875,3.625 1.625,0 2.59375,-1.390625 2.59375,-2.546875 C 6.625,-2.421875 6.625,-2.5 6.5,-2.5 6.390625,-2.5 6.390625,-2.4375 6.375,-2.328125 6.296875,-0.90625 5.234375,-0.09375 4.140625,-0.09375 c -0.609375,0 -2.5625,-0.328125 -2.5625,-3.3125 0,-2.96875 1.953125,-3.3125 2.5625,-3.3125 1.078125,0 1.96875,0.90625 2.171875,2.359375 C 6.328125,-4.21875 6.328125,-4.1875 6.46875,-4.1875 6.625,-4.1875 6.625,-4.21875 6.625,-4.421875 V -6.78125 c 0,-0.171875 0,-0.25 -0.109375,-0.25 -0.03125,0 -0.078125,0 -0.15625,0.125 l -0.5,0.734375 C 5.5,-6.53125 4.984375,-7.03125 4.03125,-7.03125 c -1.875,0 -3.46875,1.59375 -3.46875,3.625 z m 0,0"
                   id="id-985b30f7-5101-4ec3-a386-1dd99162531e" />
              </g>
              <g
                 transform="translate(155.907,134.765)"
                 id="g1535">
                <path
                   style="stroke:none"
                   d="m 5.796875,-2.578125 h -0.25 c -0.109375,1.015625 -0.25,2.265625 -2,2.265625 h -0.8125 C 2.265625,-0.3125 2.25,-0.375 2.25,-0.703125 v -5.3125 C 2.25,-6.359375 2.25,-6.5 3.1875,-6.5 H 3.515625 V -6.8125 C 3.15625,-6.78125 2.25,-6.78125 1.84375,-6.78125 c -0.390625,0 -1.171875,0 -1.515625,-0.03125 V -6.5 H 0.5625 c 0.765625,0 0.796875,0.109375 0.796875,0.46875 v 5.25 c 0,0.359375 -0.03125,0.46875 -0.796875,0.46875 H 0.328125 V 0 h 5.1875 z m 0,0"
                   id="id-c6141510-2e43-4666-ad93-d6707bf5f073" />
              </g>
              <g
                 transform="translate(162.134,134.765)"
                 id="g1538">
                <path
                   style="stroke:none"
                   d="M 2.234375,-3.515625 V -6.09375 c 0,-0.234375 0,-0.359375 0.21875,-0.390625 C 2.546875,-6.5 2.84375,-6.5 3.046875,-6.5 c 0.890625,0 2,0.046875 2,1.484375 0,0.6875 -0.234375,1.5 -1.703125,1.5 z m 2.109375,0.125 C 5.296875,-3.625 6.078125,-4.234375 6.078125,-5.015625 6.078125,-5.96875 4.9375,-6.8125 3.484375,-6.8125 H 0.34375 V -6.5 h 0.25 c 0.765625,0 0.78125,0.109375 0.78125,0.46875 v 5.25 c 0,0.359375 -0.015625,0.46875 -0.78125,0.46875 h -0.25 V 0 c 0.359375,-0.03125 1.078125,-0.03125 1.453125,-0.03125 0.390625,0 1.109375,0 1.46875,0.03125 v -0.3125 h -0.25 c -0.765625,0 -0.78125,-0.109375 -0.78125,-0.46875 V -3.296875 H 3.375 c 0.15625,0 0.578125,0 0.9375,0.34375 0.375,0.34375 0.375,0.65625 0.375,1.328125 0,0.640625 0,1.046875 0.40625,1.421875 0.40625,0.359375 0.953125,0.421875 1.25,0.421875 0.78125,0 0.953125,-0.8125 0.953125,-1.09375 0,-0.0625 0,-0.171875 -0.125,-0.171875 -0.109375,0 -0.109375,0.09375 -0.125,0.15625 C 6.984375,-0.171875 6.640625,0 6.390625,0 5.90625,0 5.828125,-0.515625 5.6875,-1.4375 L 5.546875,-2.234375 C 5.375,-2.875 4.890625,-3.203125 4.34375,-3.390625 Z m 0,0"
                   id="id-abe2fb66-b629-4eee-84bb-dbdc439be757" />
              </g>
            </g>
          </g>
        </g>
      </g>
    </g>
    <g
       inkscape:label="input"
       id="g1567">
      <g
         inkscape:label="input"
         id="g1550">
        <path
           d="M 130,140 H 120"
           style="fill:none;stroke:#000000;stroke-width:1;stroke-linecap:round;stroke-linejoin:round;stroke-dasharray:none"
           inkscape:label="input"
           id="path1548" />
      </g>
      <g
         inkscape:label="Layer 1"
         inkscape:groupmode="layer"
         id="g1565"
         transform="matrix(0.663596,0,0,0.663596,-128.0722,-231.61309)">
        <g
           transform="matrix(1.33333,0,0,1.33333,394.927,555.458)"
           ns0:version="1.1.0"
           ns0:texconverter="pdflatex"
           ns0:pdfconverter="inkscape"
           ns0:text=" $D$"
           ns0:preamble="/home/fernando/.config/inkscape/extensions/logicGates/logicGatesPreamble.tex"
           ns0:scale="1.0"
           ns0:alignment="middle center"
           ns0:inkscapeversion="1.0.1"
           ns0:jacobian_sqrt="1.33333"
           id="g1563">
          <defs
             id="id-054ebef1-8aac-4111-ab16-d40ccdab8dac">
            <g
               id="id-353e46a5-82e1-417a-81ee-eb325da2e3ba">
              <symbol
                 overflow="visible"
                 id="id-0f45e0eb-82fa-4885-98b4-8f889756d948">
                <path
                   style="stroke:none"
                   d=""
                   id="id-109c2dd3-a22f-438d-99a7-0deb6accbaf5" />
              </symbol>
              <symbol
                 overflow="visible"
                 id="id-2bfafdcc-97f5-4b89-aa29-270ed00f9006">
                <path
                   style="stroke:none"
                   d="m 1.578125,-0.78125 c -0.09375,0.390625 -0.109375,0.46875 -0.90625,0.46875 -0.15625,0 -0.265625,0 -0.265625,0.1875 C 0.40625,0 0.484375,0 0.671875,0 h 3.3125 c 2.0625,0 4.03125,-2.109375 4.03125,-4.28125 0,-1.40625 -0.84375,-2.53125 -2.34375,-2.53125 h -3.34375 c -0.1875,0 -0.296875,0 -0.296875,0.1875 0,0.125 0.078125,0.125 0.28125,0.125 0.125,0 0.3125,0.015625 0.421875,0.015625 0.171875,0.03125 0.21875,0.046875 0.21875,0.171875 0,0.03125 0,0.0625 -0.03125,0.1875 z M 3.734375,-6.125 C 3.828125,-6.46875 3.84375,-6.5 4.28125,-6.5 h 1.0625 c 0.96875,0 1.796875,0.53125 1.796875,1.84375 0,0.484375 -0.1875,2.125 -1.046875,3.21875 -0.28125,0.375 -1.0625,1.125 -2.296875,1.125 h -1.125 c -0.140625,0 -0.15625,0 -0.21875,0 -0.09375,-0.015625 -0.125,-0.03125 -0.125,-0.109375 0,-0.03125 0,-0.046875 0.046875,-0.21875 z m 0,0"
                   id="id-81bad357-daee-434f-b8ff-483602c1b860" />
              </symbol>
            </g>
          </defs>
          <g
             id="id-d9aec393-6a6c-4c26-a46d-a800b31f1218"
             transform="translate(-149.118,-127.953)">
            <g
               style="fill:#000000;fill-opacity:1"
               id="id-3cc574f6-c0ca-4ce9-ad3d-54bd5fcb183b">
              <g
                 transform="translate(148.712,134.765)"
                 id="g1559">
                <path
                   style="stroke:none"
                   d="m 1.578125,-0.78125 c -0.09375,0.390625 -0.109375,0.46875 -0.90625,0.46875 -0.15625,0 -0.265625,0 -0.265625,0.1875 C 0.40625,0 0.484375,0 0.671875,0 h 3.3125 c 2.0625,0 4.03125,-2.109375 4.03125,-4.28125 0,-1.40625 -0.84375,-2.53125 -2.34375,-2.53125 h -3.34375 c -0.1875,0 -0.296875,0 -0.296875,0.1875 0,0.125 0.078125,0.125 0.28125,0.125 0.125,0 0.3125,0.015625 0.421875,0.015625 0.171875,0.03125 0.21875,0.046875 0.21875,0.171875 0,0.03125 0,0.0625 -0.03125,0.1875 z M 3.734375,-6.125 C 3.828125,-6.46875 3.84375,-6.5 4.28125,-6.5 h 1.0625 c 0.96875,0 1.796875,0.53125 1.796875,1.84375 0,0.484375 -0.1875,2.125 -1.046875,3.21875 -0.28125,0.375 -1.0625,1.125 -2.296875,1.125 h -1.125 c -0.140625,0 -0.15625,0 -0.21875,0 -0.09375,-0.015625 -0.125,-0.03125 -0.125,-0.109375 0,-0.03125 0,-0.046875 0.046875,-0.21875 z m 0,0"
                   id="id-bc11f6aa-6486-42be-99b0-62e92ec89fa4" />
              </g>
            </g>
          </g>
        </g>
      </g>
    </g>
  </g>
</svg>
