<?xml version="1.0" encoding="UTF-8" standalone="no"?>
<svg
   xmlns:ns0="http://www.iki.fi/pav/software/textext/"
   xmlns:dc="http://purl.org/dc/elements/1.1/"
   xmlns:cc="http://creativecommons.org/ns#"
   xmlns:rdf="http://www.w3.org/1999/02/22-rdf-syntax-ns#"
   xmlns:svg="http://www.w3.org/2000/svg"
   xmlns="http://www.w3.org/2000/svg"
   xmlns:sodipodi="http://sodipodi.sourceforge.net/DTD/sodipodi-0.dtd"
   xmlns:inkscape="http://www.inkscape.org/namespaces/inkscape"
   sodipodi:docname="SignalTypes.svg"
   inkscape:version="1.0.1 (1.0.1+r73)"
   version="1.1"
   id="svg2"
   viewBox="0 0 744.09448819 1052.3622047"
   height="297mm"
   width="210mm">
  <sodipodi:namedview
     inkscape:window-maximized="1"
     inkscape:window-y="0"
     inkscape:window-x="0"
     inkscape:window-height="1056"
     inkscape:window-width="1920"
     inkscape:snap-text-baseline="true"
     inkscape:object-nodes="true"
     showgrid="true"
     inkscape:current-layer="svg2"
     inkscape:document-units="px"
     inkscape:cy="481.94132"
     inkscape:cx="381.53485"
     inkscape:zoom="2.3853505"
     inkscape:pageshadow="2"
     inkscape:pageopacity="0.0"
     borderopacity="1.0"
     bordercolor="#666666"
     pagecolor="#ffffff"
     id="base"
     inkscape:document-rotation="0">
    <inkscape:grid
       id="grid4279"
       type="xygrid" />
  </sodipodi:namedview>
  <defs
     id="defs4" />
  <metadata
     id="metadata7">
    <rdf:RDF>
      <cc:Work
         rdf:about="">
        <dc:format>image/svg+xml</dc:format>
        <dc:type
           rdf:resource="http://purl.org/dc/dcmitype/StillImage" />
        <dc:title />
      </cc:Work>
    </rdf:RDF>
  </metadata>
  <g
     inkscape:label="Layer 1"
     inkscape:groupmode="layer"
     id="layer1" />
  <g
     inkscape:export-ydpi="331.20013"
     inkscape:export-xdpi="331.20013"
     id="g12091"
     inkscape:label="GND"
     transform="translate(-144.375,-54.999999)">
    <g
       id="g12093"
       inkscape:label="GND">
      <path
         id="path12095"
         inkscape:label="none"
         style="fill:none;stroke:#000000;stroke-width:1;stroke-linecap:round;stroke-linejoin:round;stroke-dasharray:none"
         d="m 360,530 v 10"
         inkscape:connector-curvature="0" />
      <path
         id="path12097"
         inkscape:label="none"
         style="fill:none;stroke:#000000;stroke-width:1;stroke-linecap:round;stroke-linejoin:round;stroke-dasharray:none"
         d="M 367,540 H 353"
         inkscape:connector-curvature="0" />
      <path
         id="path12099"
         inkscape:label="none"
         style="fill:none;stroke:#000000;stroke-width:1;stroke-linecap:round;stroke-linejoin:round;stroke-dasharray:none"
         d="m 363.5,542 h -7"
         inkscape:connector-curvature="0" />
      <path
         id="path12101"
         inkscape:label="none"
         style="fill:none;stroke:#000000;stroke-width:1;stroke-linecap:round;stroke-linejoin:round;stroke-dasharray:none"
         d="m 361,544 h -2"
         inkscape:connector-curvature="0" />
    </g>
  </g>
  <g
     inkscape:export-ydpi="331.20013"
     inkscape:export-xdpi="331.20013"
     id="g12893"
     inkscape:label="Common"
     transform="translate(-144.375,-79.999999)">
    <g
       id="g12895"
       inkscape:label="Common">
      <path
         id="path12897"
         inkscape:label="none"
         style="fill:none;stroke:#000000;stroke-width:1;stroke-linecap:round;stroke-linejoin:round;stroke-dasharray:none"
         d="m 360,530 v 10"
         inkscape:connector-curvature="0" />
      <path
         id="path12899"
         inkscape:label="none"
         style="fill:none;stroke:#000000;stroke-width:1;stroke-linecap:round;stroke-linejoin:round;stroke-dasharray:none"
         d="m 365,540 h -10 l 5,5 5,-5"
         inkscape:connector-curvature="0" />
    </g>
  </g>
  <g
     inkscape:export-ydpi="331.20013"
     inkscape:export-xdpi="331.20013"
     inkscape:label="GND"
     transform="rotate(-90,197.8125,492.1875)"
     id="g26953">
    <g
       inkscape:label="GND"
       id="g26955">
      <circle
         r="1"
         cy="550"
         cx="230"
         style="fill:#000000;stroke:#000000;stroke-width:0.7;stroke-linecap:round;stroke-linejoin:round;stroke-dasharray:none"
         inkscape:label="circle"
         id="path26957" />
      <path
         inkscape:connector-curvature="0"
         d="m 230,550 v 10"
         style="fill:none;stroke:#000000;stroke-width:1;stroke-linecap:round;stroke-linejoin:round;stroke-dasharray:none"
         inkscape:label="none"
         id="path26959" />
    </g>
    <g
       style="font-style:normal;font-variant:normal;font-weight:normal;font-stretch:normal;letter-spacing:normal;word-spacing:normal;text-anchor:start;fill:none;fill-opacity:1;fill-rule:evenodd;stroke:#000000;stroke-linecap:butt;stroke-linejoin:miter;stroke-miterlimit:10.433;stroke-dasharray:none;stroke-dashoffset:0;stroke-opacity:1"
       id="g26961"
       xml:space="preserve"
       stroke-miterlimit="10.433"
       font-style="normal"
       font-variant="normal"
       font-weight="normal"
       font-stretch="normal"
       font-size-adjust="none"
       letter-spacing="normal"
       word-spacing="normal"
       ns0:text=" $+V_{cc}$"
       ns0:preamble="/home/fernando/.config/inkscape/extensions/textextLib/CircuitSymbolsLatexPreamble.tex"
       transform="matrix(0,1.035503,1.035503,0,-257.89105,307.69748)"><path
         inkscape:connector-curvature="0"
         d="m 227.5,479.52 h 2.78 c 0.14,0 0.32,0 0.32,0.2 0,0.2 -0.18,0.2 -0.32,0.2 h -2.78 v 2.78 c 0,0.14 0,0.33 -0.2,0.33 -0.2,0 -0.2,-0.19 -0.2,-0.33 v -2.78 h -2.78 c -0.14,0 -0.33,0 -0.33,-0.2 0,-0.2 0.19,-0.2 0.33,-0.2 h 2.78 v -2.78 c 0,-0.14 0,-0.33 0.2,-0.33 0.2,0 0.2,0.19 0.2,0.33 z"
         style="fill:#000000;stroke-width:0"
         id="path26963" /><path
         inkscape:connector-curvature="0"
         d="m 237.43,482.89 0.04,0.07 0.05,0.06 0.04,0.07 0.05,0.05 0.04,0.06 0.05,0.05 0.04,0.05 0.04,0.04 0.04,0.04 0.05,0.04 0.04,0.03 0.04,0.03 0.04,0.03 0.04,0.03 0.04,0.02 0.04,0.02 0.04,0.02 0.04,0.02 0.04,0.01 0.04,0.02 0.03,0.01 0.04,0.01 0.04,0.01 h 0.04 l 0.03,0.01 h 0.04 l 0.07,0.01 0.07,0.01 h 0.07 c 0.12,0.01 0.13,0.18 0.13,0.19 0,0.08 -0.05,0.12 -0.13,0.12 -0.26,0 -0.55,-0.03 -0.81,-0.03 -0.33,0 -0.67,0.03 -0.99,0.03 -0.06,0 -0.19,0 -0.19,-0.19 0,-0.11 0.09,-0.12 0.16,-0.12 0.27,-0.02 0.46,-0.12 0.46,-0.33 0,-0.15 -0.15,-0.36 -0.15,-0.37 l -3.05,-4.85 -0.68,5.25 c 0,0.17 0.23,0.3 0.69,0.3 0.13,0 0.24,0 0.24,0.2 0,0.09 -0.08,0.11 -0.14,0.11 -0.39,0 -0.82,-0.03 -1.23,-0.03 -0.18,0 -0.37,0.01 -0.55,0.01 -0.17,0 -0.36,0.02 -0.53,0.02 -0.07,0 -0.19,0 -0.19,-0.19 0,-0.12 0.09,-0.12 0.25,-0.12 0.55,0 0.56,-0.09 0.59,-0.34 l 0.79,-6.13 c 0.03,-0.19 0.07,-0.22 0.2,-0.22 0.16,0 0.2,0.05 0.28,0.18 z"
         style="fill:#000000;stroke-width:0"
         id="path26965" /><path
         inkscape:connector-curvature="0"
         d="m 240.04,478.4 h -0.02 L 240,478.39 h -0.02 l -0.03,-0.01 -0.01,-0.01 h -0.02 l -0.02,-0.01 -0.02,-0.01 -0.02,-0.01 -0.01,-0.01 -0.02,-0.01 -0.01,-0.02 -0.01,-0.01 -0.02,-0.01 -0.01,-0.01 -0.01,-0.02 -0.01,-0.01 -0.01,-0.02 -0.01,-0.01 -0.01,-0.02 v -0.01 l -0.01,-0.02 -0.01,-0.01 v -0.02 l -0.01,-0.01 v -0.02 l -0.01,-0.01 v -0.02 -0.01 -0.02 -0.01 -0.01 c 0,-0.19 0.14,-0.26 0.27,-0.26 0.15,0 0.4,0.11 0.4,0.44 0,0.47 -0.55,0.61 -0.92,0.61 -1.05,0 -2.02,-0.96 -2.02,-1.93 0,-0.6 0.42,-1.21 1.29,-1.21 1.18,0 1.73,0.69 1.73,0.79 0,0.04 -0.06,0.12 -0.12,0.12 -0.04,0 -0.06,-0.02 -0.11,-0.07 -0.54,-0.64 -1.36,-0.64 -1.48,-0.64 -0.5,0 -0.73,0.34 -0.73,0.77 0,0.2 0.1,0.96 0.46,1.44 0.27,0.34 0.63,0.53 0.98,0.53 0.09,0 0.43,-0.01 0.6,-0.21 z"
         style="fill:#000000;stroke-width:0"
         id="path26967" /><path
         inkscape:connector-curvature="0"
         d="m 243.6,478.4 h -0.02 l -0.02,-0.01 h -0.02 l -0.03,-0.01 -0.01,-0.01 h -0.02 l -0.02,-0.01 -0.02,-0.01 -0.02,-0.01 -0.01,-0.01 -0.02,-0.01 -0.01,-0.02 -0.01,-0.01 -0.02,-0.01 -0.01,-0.01 -0.01,-0.02 -0.01,-0.01 -0.01,-0.02 -0.01,-0.01 -0.01,-0.02 v -0.01 l -0.01,-0.02 -0.01,-0.01 v -0.02 l -0.01,-0.01 v -0.02 l -0.01,-0.01 v -0.02 -0.01 -0.02 -0.01 -0.01 c 0,-0.19 0.14,-0.26 0.27,-0.26 0.15,0 0.4,0.11 0.4,0.44 0,0.47 -0.55,0.61 -0.92,0.61 -1.05,0 -2.02,-0.96 -2.02,-1.93 0,-0.6 0.42,-1.21 1.29,-1.21 1.18,0 1.73,0.69 1.73,0.79 0,0.04 -0.06,0.12 -0.12,0.12 -0.04,0 -0.06,-0.02 -0.11,-0.07 -0.54,-0.64 -1.36,-0.64 -1.48,-0.64 -0.5,0 -0.73,0.34 -0.73,0.77 0,0.2 0.1,0.96 0.46,1.44 0.27,0.34 0.63,0.53 0.98,0.53 0.09,0 0.43,-0.01 0.6,-0.21 z"
         style="fill:#000000;stroke-width:0"
         id="path26969" /></g>
  </g>
  <g
     inkscape:export-ydpi="331.20013"
     inkscape:export-xdpi="331.20013"
     id="g27567"
     transform="rotate(-90,212.8125,507.1875)"
     inkscape:label="GND">
    <g
       id="g27569"
       inkscape:label="GND">
      <circle
         id="path27571"
         inkscape:label="circle"
         style="fill:#000000;stroke:#000000;stroke-width:0.7;stroke-linecap:round;stroke-linejoin:round;stroke-dasharray:none"
         cx="230"
         cy="550"
         r="1" />
      <path
         id="path27573"
         inkscape:label="none"
         style="fill:none;stroke:#000000;stroke-width:1;stroke-linecap:round;stroke-linejoin:round;stroke-dasharray:none"
         d="m 230,550 v 10"
         inkscape:connector-curvature="0" />
    </g>
    <g
       transform="matrix(0,1.035503,1.035503,0,-257.89105,307.55768)"
       ns0:preamble="/home/fernando/.config/inkscape/extensions/textextLib/CircuitSymbolsLatexPreamble.tex"
       ns0:text=" $-V_{cc}$"
       word-spacing="normal"
       letter-spacing="normal"
       font-size-adjust="none"
       font-stretch="normal"
       font-weight="normal"
       font-variant="normal"
       font-style="normal"
       stroke-miterlimit="10.433"
       xml:space="preserve"
       id="g27575"
       style="font-style:normal;font-variant:normal;font-weight:normal;font-stretch:normal;letter-spacing:normal;word-spacing:normal;text-anchor:start;fill:none;fill-opacity:1;fill-rule:evenodd;stroke:#000000;stroke-linecap:butt;stroke-linejoin:miter;stroke-miterlimit:10.433;stroke-dasharray:none;stroke-dashoffset:0;stroke-opacity:1"><path
         id="path27577"
         style="fill:#000000;stroke-width:0"
         d="m 229.99,479.52 h 0.03 0.03 0.03 0.02 0.01 0.02 l 0.01,0.01 h 0.02 0.01 0.02 l 0.01,0.01 h 0.01 0.02 l 0.01,0.01 0.01,0.01 h 0.01 l 0.01,0.01 0.01,0.01 h 0.01 l 0.01,0.01 0.01,0.01 v 0.01 0 l 0.01,0.01 v 0.01 0 0.01 l 0.01,0.01 v 0 0.01 0.01 0.01 0 l 0.01,0.01 v 0.01 0.01 0.01 c 0,0.2 -0.18,0.2 -0.35,0.2 h -5.38 c -0.17,0 -0.35,0 -0.35,-0.2 0,-0.2 0.18,-0.2 0.35,-0.2 z"
         inkscape:connector-curvature="0" /><path
         id="path27579"
         style="fill:#000000;stroke-width:0"
         d="m 237.43,482.89 0.04,0.07 0.05,0.06 0.04,0.07 0.05,0.05 0.04,0.06 0.05,0.05 0.04,0.05 0.04,0.04 0.04,0.04 0.05,0.04 0.04,0.03 0.04,0.03 0.04,0.03 0.04,0.03 0.04,0.02 0.04,0.02 0.04,0.02 0.04,0.02 0.04,0.01 0.04,0.02 0.03,0.01 0.04,0.01 0.04,0.01 h 0.04 l 0.03,0.01 h 0.04 l 0.07,0.01 0.07,0.01 h 0.07 c 0.12,0.01 0.13,0.18 0.13,0.19 0,0.08 -0.05,0.12 -0.13,0.12 -0.26,0 -0.55,-0.03 -0.81,-0.03 -0.33,0 -0.67,0.03 -0.99,0.03 -0.06,0 -0.19,0 -0.19,-0.19 0,-0.11 0.09,-0.12 0.16,-0.12 0.27,-0.02 0.46,-0.12 0.46,-0.33 0,-0.15 -0.15,-0.36 -0.15,-0.37 l -3.05,-4.85 -0.68,5.25 c 0,0.17 0.23,0.3 0.69,0.3 0.13,0 0.24,0 0.24,0.2 0,0.09 -0.08,0.11 -0.14,0.11 -0.39,0 -0.82,-0.03 -1.23,-0.03 -0.18,0 -0.37,0.01 -0.55,0.01 -0.17,0 -0.36,0.02 -0.53,0.02 -0.07,0 -0.19,0 -0.19,-0.19 0,-0.12 0.09,-0.12 0.25,-0.12 0.55,0 0.56,-0.09 0.59,-0.34 l 0.79,-6.13 c 0.03,-0.19 0.07,-0.22 0.2,-0.22 0.16,0 0.2,0.05 0.28,0.18 z"
         inkscape:connector-curvature="0" /><path
         id="path27581"
         style="fill:#000000;stroke-width:0"
         d="m 240.04,478.4 h -0.02 L 240,478.39 h -0.02 l -0.03,-0.01 -0.01,-0.01 h -0.02 l -0.02,-0.01 -0.02,-0.01 -0.02,-0.01 -0.01,-0.01 -0.02,-0.01 -0.01,-0.02 -0.01,-0.01 -0.02,-0.01 -0.01,-0.01 -0.01,-0.02 -0.01,-0.01 -0.01,-0.02 -0.01,-0.01 -0.01,-0.02 v -0.01 l -0.01,-0.02 -0.01,-0.01 v -0.02 l -0.01,-0.01 v -0.02 l -0.01,-0.01 v -0.02 -0.01 -0.02 -0.01 -0.01 c 0,-0.19 0.14,-0.26 0.27,-0.26 0.15,0 0.4,0.11 0.4,0.44 0,0.47 -0.55,0.61 -0.92,0.61 -1.05,0 -2.02,-0.96 -2.02,-1.93 0,-0.6 0.42,-1.21 1.29,-1.21 1.18,0 1.73,0.69 1.73,0.79 0,0.04 -0.06,0.12 -0.12,0.12 -0.04,0 -0.06,-0.02 -0.11,-0.07 -0.54,-0.64 -1.36,-0.64 -1.48,-0.64 -0.5,0 -0.73,0.34 -0.73,0.77 0,0.2 0.1,0.96 0.46,1.44 0.27,0.34 0.63,0.53 0.98,0.53 0.09,0 0.43,-0.01 0.6,-0.21 z"
         inkscape:connector-curvature="0" /><path
         id="path27583"
         style="fill:#000000;stroke-width:0"
         d="m 243.6,478.4 h -0.02 l -0.02,-0.01 h -0.02 l -0.03,-0.01 -0.01,-0.01 h -0.02 l -0.02,-0.01 -0.02,-0.01 -0.02,-0.01 -0.01,-0.01 -0.02,-0.01 -0.01,-0.02 -0.01,-0.01 -0.02,-0.01 -0.01,-0.01 -0.01,-0.02 -0.01,-0.01 -0.01,-0.02 -0.01,-0.01 -0.01,-0.02 v -0.01 l -0.01,-0.02 -0.01,-0.01 v -0.02 l -0.01,-0.01 v -0.02 l -0.01,-0.01 v -0.02 -0.01 -0.02 -0.01 -0.01 c 0,-0.19 0.14,-0.26 0.27,-0.26 0.15,0 0.4,0.11 0.4,0.44 0,0.47 -0.55,0.61 -0.92,0.61 -1.05,0 -2.02,-0.96 -2.02,-1.93 0,-0.6 0.42,-1.21 1.29,-1.21 1.18,0 1.73,0.69 1.73,0.79 0,0.04 -0.06,0.12 -0.12,0.12 -0.04,0 -0.06,-0.02 -0.11,-0.07 -0.54,-0.64 -1.36,-0.64 -1.48,-0.64 -0.5,0 -0.73,0.34 -0.73,0.77 0,0.2 0.1,0.96 0.46,1.44 0.27,0.34 0.63,0.53 0.98,0.53 0.09,0 0.43,-0.01 0.6,-0.21 z"
         inkscape:connector-curvature="0" /></g>
  </g>
  <g
     inkscape:export-ydpi="331.20013"
     inkscape:export-xdpi="331.20013"
     inkscape:label="GND"
     transform="rotate(-90,220.3125,469.6875)"
     id="g28199">
    <g
       inkscape:label="GND"
       id="g28201">
      <circle
         r="1"
         cy="550"
         cx="230"
         style="fill:#000000;stroke:#000000;stroke-width:0.7;stroke-linecap:round;stroke-linejoin:round;stroke-dasharray:none"
         inkscape:label="circle"
         id="path28203" />
      <path
         inkscape:connector-curvature="0"
         d="m 230,550 v 10"
         style="fill:none;stroke:#000000;stroke-width:1;stroke-linecap:round;stroke-linejoin:round;stroke-dasharray:none"
         inkscape:label="none"
         id="path28205" />
    </g>
    <g
       style="font-style:normal;font-variant:normal;font-weight:normal;font-stretch:normal;letter-spacing:normal;word-spacing:normal;text-anchor:start;fill:none;fill-opacity:1;fill-rule:evenodd;stroke:#000000;stroke-linecap:butt;stroke-linejoin:miter;stroke-miterlimit:10.433;stroke-dasharray:none;stroke-dashoffset:0;stroke-opacity:1"
       id="g28207"
       xml:space="preserve"
       stroke-miterlimit="10.433"
       font-style="normal"
       font-variant="normal"
       font-weight="normal"
       font-stretch="normal"
       font-size-adjust="none"
       letter-spacing="normal"
       word-spacing="normal"
       ns0:text=" $+5\\volt$"
       ns0:preamble="/home/fernando/.config/inkscape/extensions/textextLib/CircuitSymbolsLatexPreamble.tex"
       transform="matrix(0,1.035503,1.035503,0,-258.65732,307.99259)"><path
         inkscape:connector-curvature="0"
         d="m 227.5,479.52 h 2.78 c 0.14,0 0.32,0 0.32,0.2 0,0.2 -0.18,0.2 -0.32,0.2 h -2.78 v 2.78 c 0,0.14 0,0.33 -0.2,0.33 -0.2,0 -0.2,-0.19 -0.2,-0.33 v -2.78 h -2.78 c -0.14,0 -0.33,0 -0.33,-0.2 0,-0.2 0.19,-0.2 0.33,-0.2 h 2.78 v -2.78 c 0,-0.14 0,-0.33 0.2,-0.33 0.2,0 0.2,0.19 0.2,0.33 z"
         style="fill:#000000;stroke-width:0"
         id="path28209" /><path
         inkscape:connector-curvature="0"
         d="m 235.65,479.23 v 0.11 l -0.01,0.11 -0.01,0.11 -0.02,0.1 -0.02,0.11 -0.02,0.1 -0.03,0.1 -0.04,0.1 -0.03,0.1 -0.04,0.09 -0.05,0.09 -0.05,0.09 -0.05,0.09 -0.05,0.08 -0.06,0.08 -0.06,0.07 -0.07,0.08 -0.07,0.06 -0.07,0.07 -0.07,0.06 -0.08,0.06 -0.08,0.05 -0.08,0.05 -0.08,0.04 -0.09,0.04 -0.09,0.04 -0.09,0.03 -0.09,0.02 -0.1,0.02 -0.09,0.02 h -0.1 l -0.1,0.01 c -0.48,0 -0.91,-0.16 -1.27,-0.51 v 1.94 c 0.2,-0.06 0.53,-0.13 0.85,-0.13 1.22,0 1.92,0.9 1.92,1.03 0,0.06 -0.03,0.11 -0.1,0.11 -0.01,0 -0.03,0 -0.08,-0.03 -0.2,-0.09 -0.68,-0.29 -1.35,-0.29 -0.4,0 -0.86,0.07 -1.33,0.28 -0.08,0.03 -0.1,0.03 -0.11,0.03 -0.1,0 -0.1,-0.08 -0.1,-0.24 v -2.94 c 0,-0.18 0,-0.26 0.13,-0.26 0.08,0 0.09,0.03 0.13,0.09 0.11,0.16 0.48,0.7 1.29,0.7 0.52,0 0.76,-0.46 0.84,-0.64 0.16,-0.37 0.18,-0.75 0.18,-1.25 0,-0.35 0,-0.94 -0.24,-1.36 -0.23,-0.39 -0.6,-0.64 -1.06,-0.64 -0.73,0 -1.29,0.52 -1.46,1.11 0.03,-0.01 0.06,-0.02 0.17,-0.02 0.32,0 0.49,0.25 0.49,0.48 0,0.24 -0.17,0.49 -0.49,0.49 -0.14,0 -0.49,-0.07 -0.49,-0.53 0,-0.85 0.69,-1.81 1.8,-1.81 1.15,0 2.17,0.95 2.17,2.21 z"
         style="fill:#000000;stroke-width:0"
         id="path28211" /><path
         inkscape:connector-curvature="0"
         d="m 242.34,483.05 0.01,0.03 0.02,0.03 0.01,0.04 0.02,0.03 0.02,0.03 0.01,0.03 0.02,0.03 0.02,0.03 0.03,0.03 0.02,0.03 0.02,0.03 0.03,0.03 0.02,0.02 0.03,0.03 0.03,0.02 0.03,0.02 0.03,0.03 0.04,0.02 0.03,0.02 0.04,0.01 0.04,0.02 0.04,0.02 0.05,0.01 0.04,0.02 0.05,0.01 0.05,0.01 0.05,0.01 0.05,0.01 h 0.06 l 0.05,0.01 h 0.06 0.07 v 0.31 c -0.31,-0.02 -0.71,-0.03 -0.97,-0.03 -0.3,0 -0.88,0.02 -1.13,0.03 v -0.31 c 0.51,-0.01 0.72,-0.27 0.72,-0.5 0,-0.07 -0.03,-0.13 -0.05,-0.19 l -1.82,-4.79 -1.9,5.01 c -0.06,0.14 -0.06,0.16 -0.06,0.18 0,0.29 0.57,0.29 0.82,0.29 v 0.31 c -0.36,-0.03 -1.05,-0.03 -1.42,-0.03 -0.48,0 -0.91,0.02 -1.27,0.03 v -0.31 c 0.65,0 0.84,0 0.98,-0.38 l 2.3,-6.1 c 0.07,-0.18 0.12,-0.21 0.25,-0.21 0.17,0 0.19,0.05 0.24,0.18 z"
         style="fill:#000000;stroke-width:0"
         id="path28213" /></g>
  </g>
  <g
     inkscape:export-ydpi="331.20013"
     inkscape:export-xdpi="331.20013"
     id="g28845"
     transform="rotate(-90,235.3125,484.6875)"
     inkscape:label="GND">
    <g
       id="g28847"
       inkscape:label="GND">
      <circle
         id="path28849"
         inkscape:label="circle"
         style="fill:#000000;stroke:#000000;stroke-width:0.7;stroke-linecap:round;stroke-linejoin:round;stroke-dasharray:none"
         cx="230"
         cy="550"
         r="1" />
      <path
         id="path28851"
         inkscape:label="none"
         style="fill:none;stroke:#000000;stroke-width:1;stroke-linecap:round;stroke-linejoin:round;stroke-dasharray:none"
         d="m 230,550 v 10"
         inkscape:connector-curvature="0" />
    </g>
    <g
       transform="matrix(0,1.035503,1.035503,0,-259.28897,307.8528)"
       ns0:preamble="/home/fernando/.config/inkscape/extensions/textextLib/CircuitSymbolsLatexPreamble.tex"
       ns0:text=" $-5\\volt$"
       word-spacing="normal"
       letter-spacing="normal"
       font-size-adjust="none"
       font-stretch="normal"
       font-weight="normal"
       font-variant="normal"
       font-style="normal"
       stroke-miterlimit="10.433"
       xml:space="preserve"
       id="g28853"
       style="font-style:normal;font-variant:normal;font-weight:normal;font-stretch:normal;letter-spacing:normal;word-spacing:normal;text-anchor:start;fill:none;fill-opacity:1;fill-rule:evenodd;stroke:#000000;stroke-linecap:butt;stroke-linejoin:miter;stroke-miterlimit:10.433;stroke-dasharray:none;stroke-dashoffset:0;stroke-opacity:1"><path
         id="path28855"
         style="fill:#000000;stroke-width:0"
         d="m 229.99,479.52 h 0.03 0.03 0.03 0.02 0.01 0.02 l 0.01,0.01 h 0.02 0.01 0.02 l 0.01,0.01 h 0.01 0.02 l 0.01,0.01 0.01,0.01 h 0.01 l 0.01,0.01 0.01,0.01 h 0.01 l 0.01,0.01 0.01,0.01 v 0.01 0 l 0.01,0.01 v 0.01 0 0.01 l 0.01,0.01 v 0 0.01 0.01 0.01 0 l 0.01,0.01 v 0.01 0.01 0.01 c 0,0.2 -0.18,0.2 -0.35,0.2 h -5.38 c -0.17,0 -0.35,0 -0.35,-0.2 0,-0.2 0.18,-0.2 0.35,-0.2 z"
         inkscape:connector-curvature="0" /><path
         id="path28857"
         style="fill:#000000;stroke-width:0"
         d="m 235.65,479.23 v 0.11 l -0.01,0.11 -0.01,0.11 -0.02,0.1 -0.02,0.11 -0.02,0.1 -0.03,0.1 -0.04,0.1 -0.03,0.1 -0.04,0.09 -0.05,0.09 -0.05,0.09 -0.05,0.09 -0.05,0.08 -0.06,0.08 -0.06,0.07 -0.07,0.08 -0.07,0.06 -0.07,0.07 -0.07,0.06 -0.08,0.06 -0.08,0.05 -0.08,0.05 -0.08,0.04 -0.09,0.04 -0.09,0.04 -0.09,0.03 -0.09,0.02 -0.1,0.02 -0.09,0.02 h -0.1 l -0.1,0.01 c -0.48,0 -0.91,-0.16 -1.27,-0.51 v 1.94 c 0.2,-0.06 0.53,-0.13 0.85,-0.13 1.22,0 1.92,0.9 1.92,1.03 0,0.06 -0.03,0.11 -0.1,0.11 -0.01,0 -0.03,0 -0.08,-0.03 -0.2,-0.09 -0.68,-0.29 -1.35,-0.29 -0.4,0 -0.86,0.07 -1.33,0.28 -0.08,0.03 -0.1,0.03 -0.11,0.03 -0.1,0 -0.1,-0.08 -0.1,-0.24 v -2.94 c 0,-0.18 0,-0.26 0.13,-0.26 0.08,0 0.09,0.03 0.13,0.09 0.11,0.16 0.48,0.7 1.29,0.7 0.52,0 0.76,-0.46 0.84,-0.64 0.16,-0.37 0.18,-0.75 0.18,-1.25 0,-0.35 0,-0.94 -0.24,-1.36 -0.23,-0.39 -0.6,-0.64 -1.06,-0.64 -0.73,0 -1.29,0.52 -1.46,1.11 0.03,-0.01 0.06,-0.02 0.17,-0.02 0.32,0 0.49,0.25 0.49,0.48 0,0.24 -0.17,0.49 -0.49,0.49 -0.14,0 -0.49,-0.07 -0.49,-0.53 0,-0.85 0.69,-1.81 1.8,-1.81 1.15,0 2.17,0.95 2.17,2.21 z"
         inkscape:connector-curvature="0" /><path
         id="path28859"
         style="fill:#000000;stroke-width:0"
         d="m 242.34,483.05 0.01,0.03 0.02,0.03 0.01,0.04 0.02,0.03 0.02,0.03 0.01,0.03 0.02,0.03 0.02,0.03 0.03,0.03 0.02,0.03 0.02,0.03 0.03,0.03 0.02,0.02 0.03,0.03 0.03,0.02 0.03,0.02 0.03,0.03 0.04,0.02 0.03,0.02 0.04,0.01 0.04,0.02 0.04,0.02 0.05,0.01 0.04,0.02 0.05,0.01 0.05,0.01 0.05,0.01 0.05,0.01 h 0.06 l 0.05,0.01 h 0.06 0.07 v 0.31 c -0.31,-0.02 -0.71,-0.03 -0.97,-0.03 -0.3,0 -0.87,0.02 -1.13,0.03 v -0.31 c 0.51,-0.01 0.72,-0.27 0.72,-0.5 0,-0.07 -0.03,-0.13 -0.05,-0.19 l -1.82,-4.79 -1.9,5.01 c -0.06,0.14 -0.06,0.16 -0.06,0.18 0,0.29 0.57,0.29 0.82,0.29 v 0.31 c -0.36,-0.03 -1.05,-0.03 -1.42,-0.03 -0.48,0 -0.91,0.02 -1.27,0.03 v -0.31 c 0.65,0 0.84,0 0.98,-0.38 l 2.3,-6.1 c 0.07,-0.18 0.12,-0.21 0.25,-0.21 0.17,0 0.19,0.05 0.24,0.18 z"
         inkscape:connector-curvature="0" /></g>
  </g>
  <g
     inkscape:label="GND"
     transform="rotate(-90,337.8125,472.1875)"
     id="g4586"
     inkscape:export-xdpi="331.20013"
     inkscape:export-ydpi="331.20013">
    <g
       inkscape:label="GND"
       id="g4588">
      <circle
         r="1"
         cy="480"
         cx="350"
         style="fill:#000000;stroke:#000000;stroke-width:0.7;stroke-linecap:round;stroke-linejoin:round;stroke-dasharray:none"
         inkscape:label="circle"
         id="path4590" />
      <path
         inkscape:connector-curvature="0"
         d="m 350,480 v 10"
         style="fill:none;stroke:#000000;stroke-width:1;stroke-linecap:round;stroke-linejoin:round;stroke-dasharray:none"
         inkscape:label="none"
         id="path4592" />
    </g>
    <g
       style="font-style:normal;font-variant:normal;font-weight:normal;font-stretch:normal;letter-spacing:normal;word-spacing:normal;text-anchor:start;fill:none;fill-opacity:1;fill-rule:evenodd;stroke:#000000;stroke-linecap:butt;stroke-linejoin:miter;stroke-miterlimit:10.433;stroke-dasharray:none;stroke-dashoffset:0;stroke-opacity:1"
       id="g4594"
       xml:space="preserve"
       stroke-miterlimit="10.433"
       font-style="normal"
       font-variant="normal"
       font-weight="normal"
       font-stretch="normal"
       font-size-adjust="none"
       letter-spacing="normal"
       word-spacing="normal"
       ns0:text=" $+15\\volt$"
       ns0:preamble="/home/fernando/.config/inkscape/extensions/textextLib/CircuitSymbolsLatexPreamble.tex"
       transform="matrix(0,1.035503,1.035503,0,-138.65732,235.41419)"><path
         inkscape:connector-curvature="0"
         d="m 227.5,479.52 h 2.78 c 0.14,0 0.32,0 0.32,0.2 0,0.2 -0.18,0.2 -0.32,0.2 h -2.78 v 2.78 c 0,0.14 0,0.33 -0.2,0.33 -0.2,0 -0.2,-0.19 -0.2,-0.33 v -2.78 h -2.78 c -0.14,0 -0.33,0 -0.33,-0.2 0,-0.2 0.19,-0.2 0.33,-0.2 h 2.78 v -2.78 c 0,-0.14 0,-0.33 0.2,-0.33 0.2,0 0.2,0.19 0.2,0.33 z"
         style="fill:#000000;stroke-width:0"
         id="path4596" /><path
         inkscape:connector-curvature="0"
         d="m 234.11,483.59 v 0.01 0.01 0.02 0.01 0 0.01 0.01 0.01 0.01 0.01 l -0.01,0.01 v 0.01 0 0.01 0.01 0 0.01 0.01 0.01 0.01 l -0.01,0.01 v 0.01 0.01 h -0.01 v 0.01 l -0.01,0.01 v 0 l -0.01,0.01 h -0.01 l -0.01,0.01 v 0 h -0.01 v 0 h -0.01 v 0 h -0.01 l -0.01,0.01 v 0 h -0.01 -0.01 v 0 h -0.01 -0.01 -0.01 -0.01 v 0 h -0.01 -0.01 -0.01 -0.01 -0.01 -0.01 c -0.62,-0.64 -1.5,-0.64 -1.81,-0.64 v -0.3 c 0.19,0 0.78,0 1.3,0.26 v -5.15 c 0,-0.36 -0.03,-0.48 -0.93,-0.48 h -0.31 v -0.31 c 0.34,0.04 1.21,0.04 1.61,0.04 0.4,0 1.26,0 1.61,-0.04 v 0.31 h -0.32 c -0.89,0 -0.92,0.11 -0.92,0.48 z"
         style="fill:#000000;stroke-width:0"
         id="path4598" /><path
         inkscape:connector-curvature="0"
         d="m 240.63,479.23 v 0.11 l -0.01,0.11 -0.01,0.11 -0.02,0.1 -0.02,0.11 -0.02,0.1 -0.03,0.1 -0.04,0.1 -0.03,0.1 -0.04,0.09 -0.05,0.09 -0.05,0.09 -0.05,0.09 -0.05,0.08 -0.06,0.08 -0.06,0.07 -0.07,0.08 -0.07,0.06 -0.07,0.07 -0.07,0.06 -0.08,0.06 -0.08,0.05 -0.08,0.05 -0.08,0.04 -0.09,0.04 -0.09,0.04 -0.09,0.03 -0.09,0.02 -0.1,0.02 -0.09,0.02 h -0.1 l -0.1,0.01 c -0.48,0 -0.91,-0.16 -1.26,-0.51 v 1.94 c 0.2,-0.06 0.52,-0.13 0.84,-0.13 1.22,0 1.92,0.9 1.92,1.03 0,0.06 -0.03,0.11 -0.1,0.11 -0.01,0 -0.03,0 -0.08,-0.03 -0.2,-0.09 -0.68,-0.29 -1.35,-0.29 -0.4,0 -0.86,0.07 -1.32,0.28 -0.08,0.03 -0.1,0.03 -0.12,0.03 -0.1,0 -0.1,-0.08 -0.1,-0.24 v -2.94 c 0,-0.18 0,-0.26 0.14,-0.26 0.07,0 0.09,0.03 0.13,0.09 0.1,0.16 0.47,0.7 1.28,0.7 0.52,0 0.77,-0.46 0.85,-0.64 0.15,-0.37 0.17,-0.75 0.17,-1.25 0,-0.35 0,-0.94 -0.23,-1.36 -0.24,-0.39 -0.61,-0.64 -1.07,-0.64 -0.73,0 -1.29,0.52 -1.46,1.11 0.03,-0.01 0.06,-0.02 0.17,-0.02 0.33,0 0.5,0.25 0.5,0.48 0,0.24 -0.17,0.49 -0.5,0.49 -0.14,0 -0.49,-0.07 -0.49,-0.53 0,-0.85 0.69,-1.81 1.8,-1.81 1.16,0 2.17,0.95 2.17,2.21 z"
         style="fill:#000000;stroke-width:0"
         id="path4600" /><path
         inkscape:connector-curvature="0"
         d="m 247.32,483.05 0.02,0.03 0.01,0.03 0.01,0.04 0.02,0.03 0.02,0.03 0.02,0.03 0.01,0.03 0.02,0.03 0.03,0.03 0.02,0.03 0.02,0.03 0.03,0.03 0.02,0.02 0.03,0.03 0.03,0.02 0.03,0.02 0.04,0.03 0.03,0.02 0.04,0.02 0.03,0.01 0.04,0.02 0.04,0.02 0.05,0.01 0.04,0.02 0.05,0.01 0.05,0.01 0.05,0.01 0.05,0.01 h 0.06 l 0.05,0.01 h 0.06 0.07 v 0.31 c -0.31,-0.02 -0.71,-0.03 -0.97,-0.03 -0.3,0 -0.87,0.02 -1.13,0.03 v -0.31 c 0.51,-0.01 0.72,-0.27 0.72,-0.5 0,-0.07 -0.03,-0.13 -0.05,-0.19 l -1.82,-4.79 -1.9,5.01 c -0.06,0.14 -0.06,0.16 -0.06,0.18 0,0.29 0.57,0.29 0.82,0.29 v 0.31 c -0.36,-0.03 -1.05,-0.03 -1.42,-0.03 -0.48,0 -0.91,0.02 -1.27,0.03 v -0.31 c 0.65,0 0.84,0 0.98,-0.38 l 2.31,-6.1 c 0.06,-0.18 0.12,-0.21 0.25,-0.21 0.16,0 0.18,0.05 0.23,0.18 z"
         style="fill:#000000;stroke-width:0"
         id="path4602" /></g>
  </g>
  <g
     id="g4732"
     transform="rotate(-90,352.8125,487.1875)"
     inkscape:label="GND"
     inkscape:export-xdpi="331.20013"
     inkscape:export-ydpi="331.20013">
    <g
       id="g4734"
       inkscape:label="GND">
      <circle
         id="path4736"
         inkscape:label="circle"
         style="fill:#000000;stroke:#000000;stroke-width:0.7;stroke-linecap:round;stroke-linejoin:round;stroke-dasharray:none"
         cx="350"
         cy="480"
         r="1" />
      <path
         id="path4738"
         inkscape:label="none"
         style="fill:none;stroke:#000000;stroke-width:1;stroke-linecap:round;stroke-linejoin:round;stroke-dasharray:none"
         d="m 350,480 v 10"
         inkscape:connector-curvature="0" />
    </g>
    <g
       transform="matrix(0,1.035503,1.035503,0,-139.28897,235.2744)"
       ns0:preamble="/home/fernando/.config/inkscape/extensions/textextLib/CircuitSymbolsLatexPreamble.tex"
       ns0:text=" $-15\\volt$"
       word-spacing="normal"
       letter-spacing="normal"
       font-size-adjust="none"
       font-stretch="normal"
       font-weight="normal"
       font-variant="normal"
       font-style="normal"
       stroke-miterlimit="10.433"
       xml:space="preserve"
       id="content"
       style="font-style:normal;font-variant:normal;font-weight:normal;font-stretch:normal;letter-spacing:normal;word-spacing:normal;text-anchor:start;fill:none;fill-opacity:1;fill-rule:evenodd;stroke:#000000;stroke-linecap:butt;stroke-linejoin:miter;stroke-miterlimit:10.433;stroke-dasharray:none;stroke-dashoffset:0;stroke-opacity:1"><path
         id="path4741"
         style="fill:#000000;stroke-width:0"
         d="m 229.99,479.52 h 0.03 0.03 0.03 0.02 0.01 0.02 l 0.01,0.01 h 0.02 0.01 0.02 l 0.01,0.01 h 0.01 0.02 l 0.01,0.01 0.01,0.01 h 0.01 l 0.01,0.01 0.01,0.01 h 0.01 l 0.01,0.01 0.01,0.01 v 0.01 0 l 0.01,0.01 v 0.01 0 0.01 l 0.01,0.01 v 0 0.01 0.01 0.01 0 l 0.01,0.01 v 0.01 0.01 0.01 c 0,0.2 -0.18,0.2 -0.35,0.2 h -5.38 c -0.17,0 -0.35,0 -0.35,-0.2 0,-0.2 0.18,-0.2 0.35,-0.2 z"
         inkscape:connector-curvature="0" /><path
         id="path4743"
         style="fill:#000000;stroke-width:0"
         d="m 234.11,483.59 v 0.01 0.01 0.02 0.01 0 0.01 0.01 0.01 0.01 0.01 l -0.01,0.01 v 0.01 0 0.01 0.01 0 0.01 0.01 0.01 0.01 l -0.01,0.01 v 0.01 0.01 h -0.01 v 0.01 l -0.01,0.01 v 0 l -0.01,0.01 h -0.01 l -0.01,0.01 v 0 h -0.01 v 0 h -0.01 v 0 h -0.01 l -0.01,0.01 v 0 h -0.01 -0.01 v 0 h -0.01 -0.01 -0.01 -0.01 v 0 h -0.01 -0.01 -0.01 -0.01 -0.01 -0.01 c -0.62,-0.64 -1.5,-0.64 -1.81,-0.64 v -0.3 c 0.19,0 0.78,0 1.3,0.26 v -5.15 c 0,-0.36 -0.03,-0.48 -0.92,-0.48 h -0.32 v -0.31 c 0.34,0.04 1.21,0.04 1.61,0.04 0.4,0 1.26,0 1.61,-0.04 v 0.31 h -0.32 c -0.89,0 -0.92,0.11 -0.92,0.48 z"
         inkscape:connector-curvature="0" /><path
         id="path4745"
         style="fill:#000000;stroke-width:0"
         d="m 240.63,479.23 v 0.11 l -0.01,0.11 -0.01,0.11 -0.02,0.1 -0.02,0.11 -0.02,0.1 -0.03,0.1 -0.04,0.1 -0.03,0.1 -0.04,0.09 -0.05,0.09 -0.05,0.09 -0.05,0.09 -0.05,0.08 -0.06,0.08 -0.06,0.07 -0.07,0.08 -0.07,0.06 -0.07,0.07 -0.07,0.06 -0.08,0.06 -0.08,0.05 -0.08,0.05 -0.08,0.04 -0.09,0.04 -0.09,0.04 -0.09,0.03 -0.09,0.02 -0.1,0.02 -0.09,0.02 h -0.1 l -0.1,0.01 c -0.48,0 -0.91,-0.16 -1.26,-0.51 v 1.94 c 0.2,-0.06 0.52,-0.13 0.84,-0.13 1.22,0 1.92,0.9 1.92,1.03 0,0.06 -0.03,0.11 -0.1,0.11 -0.01,0 -0.03,0 -0.08,-0.03 -0.2,-0.09 -0.68,-0.29 -1.35,-0.29 -0.4,0 -0.86,0.07 -1.32,0.28 -0.08,0.03 -0.1,0.03 -0.12,0.03 -0.1,0 -0.1,-0.08 -0.1,-0.24 v -2.94 c 0,-0.18 0,-0.26 0.14,-0.26 0.07,0 0.09,0.03 0.13,0.09 0.1,0.16 0.47,0.7 1.28,0.7 0.52,0 0.77,-0.46 0.85,-0.64 0.15,-0.37 0.17,-0.75 0.17,-1.25 0,-0.35 0,-0.94 -0.23,-1.36 -0.24,-0.39 -0.61,-0.64 -1.07,-0.64 -0.73,0 -1.29,0.52 -1.46,1.11 0.03,-0.01 0.06,-0.02 0.17,-0.02 0.33,0 0.5,0.25 0.5,0.48 0,0.24 -0.17,0.49 -0.5,0.49 -0.14,0 -0.49,-0.07 -0.49,-0.53 0,-0.85 0.69,-1.81 1.8,-1.81 1.16,0 2.17,0.95 2.17,2.21 z"
         inkscape:connector-curvature="0" /><path
         id="path4747"
         style="fill:#000000;stroke-width:0"
         d="m 247.32,483.05 0.02,0.03 0.01,0.03 0.01,0.04 0.02,0.03 0.02,0.03 0.02,0.03 0.01,0.03 0.02,0.03 0.03,0.03 0.02,0.03 0.02,0.03 0.03,0.03 0.02,0.02 0.03,0.03 0.03,0.02 0.03,0.02 0.04,0.03 0.03,0.02 0.04,0.02 0.03,0.01 0.04,0.02 0.04,0.02 0.05,0.01 0.04,0.02 0.05,0.01 0.05,0.01 0.05,0.01 0.05,0.01 h 0.06 l 0.05,0.01 h 0.06 0.07 v 0.31 c -0.31,-0.02 -0.71,-0.03 -0.97,-0.03 -0.3,0 -0.87,0.02 -1.13,0.03 v -0.31 c 0.51,-0.01 0.72,-0.27 0.72,-0.5 0,-0.07 -0.03,-0.13 -0.05,-0.19 l -1.82,-4.79 -1.9,5.01 c -0.06,0.14 -0.06,0.16 -0.06,0.18 0,0.29 0.57,0.29 0.82,0.29 v 0.31 c -0.36,-0.03 -1.05,-0.03 -1.42,-0.03 -0.48,0 -0.91,0.02 -1.27,0.03 v -0.31 c 0.65,0 0.84,0 0.98,-0.38 l 2.31,-6.1 c 0.06,-0.18 0.12,-0.21 0.25,-0.21 0.16,0 0.18,0.05 0.23,0.18 z"
         inkscape:connector-curvature="0" /></g>
  </g>
  <g
     id="g5043"
     transform="rotate(-90,360.3125,449.6875)"
     inkscape:label="GND"
     inkscape:export-xdpi="331.20013"
     inkscape:export-ydpi="331.20013">
    <g
       id="g5045"
       inkscape:label="GND">
      <circle
         id="path5047"
         inkscape:label="circle"
         style="fill:#000000;stroke:#000000;stroke-width:0.7;stroke-linecap:round;stroke-linejoin:round;stroke-dasharray:none"
         cx="350"
         cy="480"
         r="1" />
      <path
         id="path5049"
         inkscape:label="none"
         style="fill:none;stroke:#000000;stroke-width:1;stroke-linecap:round;stroke-linejoin:round;stroke-dasharray:none"
         d="m 350,480 v 10"
         inkscape:connector-curvature="0" />
    </g>
    <g
       transform="matrix(0,1.035503,1.035503,0,-139.40288,232.21966)"
       ns0:preamble="/home/fernando/.config/inkscape/extensions/textextLib/CircuitSymbolsLatexPreamble.tex"
       ns0:text=" $Foobar$"
       word-spacing="normal"
       letter-spacing="normal"
       font-size-adjust="none"
       font-stretch="normal"
       font-weight="normal"
       font-variant="normal"
       font-style="normal"
       stroke-miterlimit="10.433"
       xml:space="preserve"
       id="g5051"
       style="font-style:normal;font-variant:normal;font-weight:normal;font-stretch:normal;letter-spacing:normal;word-spacing:normal;text-anchor:start;fill:none;fill-opacity:1;fill-rule:evenodd;stroke:#000000;stroke-linecap:butt;stroke-linejoin:miter;stroke-miterlimit:10.433;stroke-dasharray:none;stroke-dashoffset:0;stroke-opacity:1"><path
         id="path5053"
         style="fill:#000000;stroke-width:0"
         d="m 226.45,480.46 h 0.96 c 0.75,0 0.83,-0.16 0.83,-0.44 0,-0.07 0,-0.19 -0.07,-0.49 -0.02,-0.05 -0.03,-0.09 -0.03,-0.11 0,-0.08 0.06,-0.12 0.12,-0.12 0.1,0 0.1,0.03 0.15,0.21 l 0.54,2.16 c 0.03,0.1 0.03,0.13 0.03,0.15 0,0.02 -0.02,0.11 -0.12,0.11 -0.1,0 -0.1,-0.05 -0.15,-0.2 -0.2,-0.78 -0.43,-0.96 -1.28,-0.96 h -0.9 l 0.63,2.53 c 0.09,0.34 0.1,0.38 0.54,0.38 h 1.31 c 1.23,0 1.46,-0.33 1.46,-1.09 0,-0.23 0,-0.27 -0.03,-0.54 -0.02,-0.13 -0.02,-0.15 -0.02,-0.18 0,-0.05 0.03,-0.11 0.12,-0.11 0.11,0 0.11,0.06 0.14,0.24 l 0.19,1.72 c 0.03,0.27 -0.02,0.27 -0.27,0.27 h -4.87 c -0.2,0 -0.3,0 -0.3,-0.2 0,-0.11 0.09,-0.11 0.28,-0.11 0.37,0 0.65,0 0.65,-0.18 0,-0.04 0,-0.06 -0.05,-0.23 l -1.32,-5.26 c -0.09,-0.39 -0.11,-0.47 -0.9,-0.47 -0.17,0 -0.28,0 -0.28,-0.19 0,-0.12 0.12,-0.12 0.15,-0.12 0.29,0 1.02,0.04 1.31,0.04 0.33,0 1.16,-0.04 1.49,-0.04 0.09,0 0.2,0 0.2,0.19 0,0.08 -0.06,0.1 -0.06,0.11 -0.03,0.01 -0.05,0.01 -0.27,0.01 -0.22,0 -0.27,0 -0.52,0.02 -0.29,0.03 -0.32,0.07 -0.32,0.2 0,0.02 0,0.08 0.04,0.23 z"
         inkscape:connector-curvature="0" /><path
         id="path5055"
         style="fill:#000000;stroke-width:0"
         d="m 235.89,479.95 v 0.09 l -0.01,0.1 -0.01,0.09 -0.01,0.09 -0.02,0.08 -0.02,0.09 -0.02,0.08 -0.03,0.08 -0.03,0.07 -0.04,0.07 -0.04,0.07 -0.04,0.07 -0.04,0.07 -0.05,0.06 -0.05,0.06 -0.05,0.05 -0.06,0.06 -0.05,0.05 -0.06,0.04 -0.06,0.05 -0.07,0.04 -0.07,0.03 -0.06,0.04 -0.08,0.03 -0.07,0.03 -0.07,0.02 -0.08,0.02 -0.08,0.02 -0.08,0.01 -0.08,0.01 h -0.08 l -0.08,0.01 c -1.34,0 -2.67,-1.42 -2.67,-2.83 0,-0.98 0.67,-1.67 1.59,-1.67 l 0.01,0.21 c -0.42,0 -0.86,0.31 -0.86,1.09 0,0.48 0.26,1.56 0.58,2.06 0.49,0.77 1.06,0.92 1.34,0.92 0.58,0 0.87,-0.48 0.87,-1.08 0,-0.38 -0.2,-1.43 -0.57,-2.07 -0.35,-0.58 -0.9,-0.92 -1.36,-0.92 v 0 l -0.01,-0.21 c 1.33,0 2.67,1.37 2.67,2.82 z"
         inkscape:connector-curvature="0" /><path
         id="path5057"
         style="fill:#000000;stroke-width:0"
         d="m 240.72,479.95 v 0.09 l -0.01,0.1 -0.01,0.09 -0.01,0.09 -0.02,0.08 -0.02,0.09 -0.03,0.08 -0.02,0.08 -0.04,0.07 -0.03,0.07 -0.04,0.07 -0.04,0.07 -0.04,0.07 -0.05,0.06 -0.05,0.06 -0.05,0.05 -0.06,0.06 -0.05,0.05 -0.06,0.04 -0.07,0.05 -0.06,0.04 -0.07,0.03 -0.07,0.04 -0.07,0.03 -0.07,0.03 -0.07,0.02 -0.08,0.02 -0.08,0.02 -0.08,0.01 -0.08,0.01 h -0.08 l -0.08,0.01 c -1.34,0 -2.67,-1.42 -2.67,-2.83 0,-0.98 0.67,-1.67 1.59,-1.67 l 0.01,0.21 c -0.43,0 -0.86,0.31 -0.86,1.09 0,0.48 0.26,1.56 0.57,2.06 0.5,0.77 1.07,0.92 1.35,0.92 0.57,0 0.87,-0.48 0.87,-1.08 0,-0.38 -0.2,-1.43 -0.58,-2.07 -0.34,-0.58 -0.89,-0.92 -1.35,-0.92 v 0 l -0.01,-0.21 c 1.33,0 2.67,1.37 2.67,2.82 z"
         inkscape:connector-curvature="0" /><path
         id="path5059"
         style="fill:#000000;stroke-width:0"
         d="m 243.26,484.02 v 0 0 0 0 0.01 0 0 0.01 0 0.01 0 h -0.01 v 0.01 0 0.01 0 l -0.01,0.01 v 0 0.01 h -0.01 v 0.01 0 h -0.01 v 0 0.01 h -0.01 v 0 0 h -0.01 v 0.01 0 h -0.01 v 0 0 h -0.01 v 0 h -0.01 v 0.01 h -0.01 v 0 h -0.01 v 0 h -0.01 v 0 h -0.01 c -0.23,0 -0.95,-0.08 -1.21,-0.1 -0.08,-0.01 -0.19,-0.02 -0.19,-0.2 0,-0.12 0.09,-0.12 0.24,-0.12 0.47,0 0.49,-0.07 0.49,-0.17 0,-0.07 -0.09,-0.4 -0.14,-0.61 l -0.81,-3.24 c -0.12,-0.5 -0.16,-0.66 -0.16,-1.01 0,-0.94 0.53,-1.55 1.26,-1.55 v 0.21 c -0.34,0 -0.66,0.27 -0.66,1.01 0,0.19 0,0.38 0.15,1 l 0.22,0.92 c 0.06,0.21 0.06,0.23 0.15,0.34 0.49,0.65 0.94,0.8 1.2,0.8 0.35,0 0.62,-0.3 0.62,-0.94 0,-0.58 -0.32,-1.73 -0.5,-2.1 -0.33,-0.67 -0.79,-1.03 -1.18,-1.03 v -0.21 c 1.18,0 2.4,1.48 2.4,2.91 0,0.9 -0.53,1.59 -1.32,1.59 -0.46,0 -0.87,-0.29 -1.17,-0.6 z"
         inkscape:connector-curvature="0" /><path
         id="path5061"
         style="fill:#000000;stroke-width:0"
         d="m 248.87,480.99 -0.02,0.03 -0.02,0.04 -0.02,0.03 -0.01,0.03 -0.02,0.03 -0.02,0.04 -0.03,0.03 -0.02,0.02 -0.02,0.03 -0.02,0.03 -0.03,0.03 -0.02,0.02 -0.03,0.03 -0.02,0.02 -0.03,0.02 -0.03,0.03 -0.03,0.02 -0.03,0.02 -0.03,0.01 -0.03,0.02 -0.03,0.02 -0.03,0.01 -0.04,0.02 -0.03,0.01 -0.04,0.01 -0.03,0.01 -0.04,0.01 h -0.04 l -0.04,0.01 h -0.03 l -0.05,0.01 h -0.04 c -1.16,0 -2.4,-1.46 -2.4,-2.92 0,-0.93 0.55,-1.58 1.33,-1.58 l 0.02,0.21 c -0.5,0 -0.64,0.55 -0.64,0.94 0,0.49 0.32,1.72 0.55,2.17 0.31,0.59 0.76,0.96 1.15,0.96 0.65,0 0.79,-0.82 0.79,-0.88 0,-0.06 -0.02,-0.12 -0.03,-0.17 l -0.5,-1.94 c -0.05,-0.18 -0.05,-0.2 -0.2,-0.37 -0.43,-0.55 -0.84,-0.71 -1.12,-0.71 l -0.02,-0.21 c 0.2,0 0.69,0.04 1.29,0.74 0.08,-0.42 0.43,-0.74 0.91,-0.74 0.35,0 0.57,0.22 0.73,0.54 0.17,0.36 0.3,0.97 0.3,0.99 0,0.1 -0.09,0.1 -0.12,0.1 -0.1,0 -0.11,-0.05 -0.14,-0.18 -0.17,-0.65 -0.34,-1.24 -0.75,-1.24 -0.27,0 -0.3,0.26 -0.3,0.46 0,0.22 0.02,0.3 0.13,0.74 0.11,0.41 0.13,0.51 0.22,0.89 l 0.36,1.39 c 0.06,0.28 0.06,0.3 0.06,0.34 0,0.17 -0.11,0.27 -0.28,0.27 -0.24,0 -0.39,-0.22 -0.42,-0.44 z"
         inkscape:connector-curvature="0" /><path
         id="path5063"
         style="fill:#000000;stroke-width:0"
         d="m 251.3,477.82 v -0.01 l -0.01,-0.02 v -0.01 -0.02 l -0.01,-0.03 -0.01,-0.03 v -0.03 l -0.01,-0.04 -0.01,-0.03 -0.01,-0.03 v -0.01 -0.02 l -0.01,-0.01 v -0.02 -0.01 l -0.01,-0.01 v -0.02 -0.01 -0.01 -0.01 l -0.01,-0.01 v -0.01 -0.01 0 -0.01 -0.01 c 0,-0.18 0.14,-0.26 0.29,-0.26 0.12,0 0.3,0.07 0.37,0.27 0.02,0.04 0.35,1.4 0.39,1.57 0.08,0.33 0.26,1.03 0.32,1.3 0.04,0.12 0.32,0.59 0.56,0.81 0.08,0.07 0.37,0.33 0.8,0.33 0.25,0 0.4,-0.12 0.41,-0.12 -0.3,-0.05 -0.51,-0.29 -0.51,-0.55 0,-0.16 0.11,-0.35 0.37,-0.35 0.27,0 0.55,0.23 0.55,0.59 0,0.35 -0.32,0.65 -0.82,0.65 -0.65,0 -1.09,-0.49 -1.28,-0.77 -0.08,0.45 -0.44,0.77 -0.9,0.77 -0.46,0 -0.65,-0.39 -0.74,-0.57 -0.18,-0.34 -0.31,-0.93 -0.31,-0.96 0,-0.1 0.1,-0.1 0.12,-0.1 0.1,0 0.11,0.01 0.17,0.23 0.17,0.7 0.37,1.18 0.73,1.18 0.17,0 0.31,-0.08 0.31,-0.46 0,-0.21 -0.03,-0.32 -0.16,-0.83 z"
         inkscape:connector-curvature="0" /></g>
  </g>
  <text
     xml:space="preserve"
     style="font-style:normal;font-variant:normal;font-weight:normal;font-stretch:normal;line-height:0%;font-family:Verdana;-inkscape-font-specification:Verdana;text-align:end;letter-spacing:0px;word-spacing:0px;writing-mode:lr-tb;text-anchor:end;fill:#000000;fill-opacity:1;stroke:none;stroke-width:1px;stroke-linecap:butt;stroke-linejoin:miter;stroke-opacity:1"
     x="440.62503"
     y="460"
     id="text5154"
     inkscape:export-xdpi="331.20013"
     inkscape:export-ydpi="331.20013"><tspan
       sodipodi:role="line"
       id="tspan5156"
       x="440.62503"
       y="460"
       style="font-size:6.25px;line-height:1">(custom)</tspan></text>
  <text
     xml:space="preserve"
     style="font-style:normal;font-variant:normal;font-weight:normal;font-stretch:normal;line-height:0%;font-family:Verdana;-inkscape-font-specification:Verdana;text-align:end;letter-spacing:0px;word-spacing:0px;writing-mode:lr-tb;text-anchor:end;fill:#000000;fill-opacity:1;stroke:none;stroke-width:1px;stroke-linecap:butt;stroke-linejoin:miter;stroke-opacity:1"
     x="205.625"
     y="460"
     id="text5154-3"
     inkscape:export-xdpi="331.20013"
     inkscape:export-ydpi="331.20013"><tspan
       sodipodi:role="line"
       id="tspan5156-6"
       x="205.625"
       y="460"
       style="font-size:6.25px;line-height:1">(common)</tspan></text>
  <text
     xml:space="preserve"
     style="font-style:normal;font-variant:normal;font-weight:normal;font-stretch:normal;line-height:0%;font-family:Verdana;-inkscape-font-specification:Verdana;text-align:end;letter-spacing:0px;word-spacing:0px;writing-mode:lr-tb;text-anchor:end;fill:#000000;fill-opacity:1;stroke:none;stroke-width:1px;stroke-linecap:butt;stroke-linejoin:miter;stroke-opacity:1"
     x="205.625"
     y="485"
     id="text5154-7"
     inkscape:export-xdpi="331.20013"
     inkscape:export-ydpi="331.20013"><tspan
       sodipodi:role="line"
       id="tspan5156-5"
       x="205.625"
       y="485"
       style="font-size:6.25px;line-height:1">(GND)</tspan></text>
  <path
     style="color:#000000;clip-rule:nonzero;display:inline;overflow:visible;visibility:visible;opacity:1;isolation:auto;mix-blend-mode:normal;color-interpolation:sRGB;color-interpolation-filters:linearRGB;solid-color:#000000;solid-opacity:1;fill:#ffd5d5;fill-opacity:1;fill-rule:nonzero;stroke:#ffaaaa;stroke-width:1;stroke-linecap:butt;stroke-linejoin:miter;stroke-miterlimit:4;stroke-dasharray:none;stroke-dashoffset:0;stroke-opacity:1;marker:none;color-rendering:auto;image-rendering:auto;shape-rendering:auto;text-rendering:auto;enable-background:accumulate"
     d="m 235.625,445.00001 v 50"
     id="path29856"
     inkscape:connector-curvature="0"
     inkscape:export-xdpi="331.20013"
     inkscape:export-ydpi="331.20013"
     sodipodi:nodetypes="cc" />
  <path
     style="color:#000000;clip-rule:nonzero;display:inline;overflow:visible;visibility:visible;opacity:1;isolation:auto;mix-blend-mode:normal;color-interpolation:sRGB;color-interpolation-filters:linearRGB;solid-color:#000000;solid-opacity:1;fill:#ffd5d5;fill-opacity:1;fill-rule:nonzero;stroke:#ffaaaa;stroke-width:1;stroke-linecap:butt;stroke-linejoin:miter;stroke-miterlimit:4;stroke-dasharray:none;stroke-dashoffset:0;stroke-opacity:1;marker:none;color-rendering:auto;image-rendering:auto;shape-rendering:auto;text-rendering:auto;enable-background:accumulate"
     d="m 280.625,445.00001 v 50"
     id="path29856-3"
     inkscape:connector-curvature="0"
     inkscape:export-xdpi="331.20013"
     inkscape:export-ydpi="331.20013"
     sodipodi:nodetypes="cc" />
  <path
     style="color:#000000;clip-rule:nonzero;display:inline;overflow:visible;visibility:visible;opacity:1;isolation:auto;mix-blend-mode:normal;color-interpolation:sRGB;color-interpolation-filters:linearRGB;solid-color:#000000;solid-opacity:1;fill:#ffd5d5;fill-opacity:1;fill-rule:nonzero;stroke:#ffaaaa;stroke-width:1;stroke-linecap:butt;stroke-linejoin:miter;stroke-miterlimit:4;stroke-dasharray:none;stroke-dashoffset:0;stroke-opacity:1;marker:none;color-rendering:auto;image-rendering:auto;shape-rendering:auto;text-rendering:auto;enable-background:accumulate"
     d="m 325.625,445.00001 v 50"
     id="path29856-5"
     inkscape:connector-curvature="0"
     inkscape:export-xdpi="331.20013"
     inkscape:export-ydpi="331.20013"
     sodipodi:nodetypes="cc" />
  <path
     style="color:#000000;clip-rule:nonzero;display:inline;overflow:visible;visibility:visible;opacity:1;isolation:auto;mix-blend-mode:normal;color-interpolation:sRGB;color-interpolation-filters:linearRGB;solid-color:#000000;solid-opacity:1;fill:#ffd5d5;fill-opacity:1;fill-rule:nonzero;stroke:#ffaaaa;stroke-width:1;stroke-linecap:butt;stroke-linejoin:miter;stroke-miterlimit:4;stroke-dasharray:none;stroke-dashoffset:0;stroke-opacity:1;marker:none;color-rendering:auto;image-rendering:auto;shape-rendering:auto;text-rendering:auto;enable-background:accumulate"
     d="m 370.625,445.00001 v 50"
     id="path29856-6"
     inkscape:connector-curvature="0"
     inkscape:export-xdpi="331.20013"
     inkscape:export-ydpi="331.20013"
     sodipodi:nodetypes="cc" />
  <path
     style="color:#000000;clip-rule:nonzero;display:inline;overflow:visible;visibility:visible;opacity:1;isolation:auto;mix-blend-mode:normal;color-interpolation:sRGB;color-interpolation-filters:linearRGB;solid-color:#000000;solid-opacity:1;fill:#ffd5d5;fill-opacity:1;fill-rule:nonzero;stroke:#ffaaaa;stroke-width:1;stroke-linecap:butt;stroke-linejoin:miter;stroke-miterlimit:4;stroke-dasharray:none;stroke-dashoffset:0;stroke-opacity:1;marker:none;color-rendering:auto;image-rendering:auto;shape-rendering:auto;text-rendering:auto;enable-background:accumulate"
     d="m 175.625,470.00001 h 270"
     id="path29856-2"
     inkscape:connector-curvature="0"
     inkscape:export-xdpi="331.20013"
     inkscape:export-ydpi="331.20013"
     sodipodi:nodetypes="cc" />
  <g
     inkscape:label="GPIO"
     id="g1038"
     transform="translate(60.312506,-58.862181)"
     inkscape:export-xdpi="331.20013"
     inkscape:export-ydpi="331.20013">
    <g
       inkscape:label="GPIO"
       id="g1010">
      <path
         d="m 320,540 v 4 h 25 l 4,-4 -4,-4 h -25 v 4"
         style="fill:none;stroke:#000000;stroke-width:0.8;stroke-linecap:round;stroke-linejoin:round;stroke-dasharray:none"
         inkscape:label="none"
         id="path1008" />
    </g>
    <g
       inkscape:label="Layer 1"
       inkscape:groupmode="layer"
       id="g1036"
       transform="matrix(0.663596,0,0,0.663596,66.726564,168.38625)">
      <g
         transform="matrix(1.33333,0,0,1.33333,384.682,555.167)"
         ns0:version="1.1.0"
         ns0:texconverter="pdflatex"
         ns0:pdfconverter="inkscape"
         ns0:text=" $CLK$"
         ns0:preamble="/home/fernando/.config/inkscape/extensions/logicGates/logicGatesPreamble.tex"
         ns0:scale="1.0"
         ns0:alignment="middle center"
         ns0:inkscapeversion="1.0.1"
         ns0:jacobian_sqrt="1.33333"
         id="g1034">
        <defs
           id="id-912789ea-ce90-478f-a713-946de0078dd5">
          <g
             id="id-ef95d68a-1a8c-46f6-8a94-5ad77e26de97">
            <symbol
               overflow="visible"
               id="id-9f383846-b3e7-4461-a345-a8abe8efb044">
              <path
                 style="stroke:none"
                 d=""
                 id="id-3ec6f976-5b63-40e2-9381-a3891c84ebad" />
            </symbol>
            <symbol
               overflow="visible"
               id="id-7aa7ef83-ab6a-43a7-91c4-8360a159a1a0">
              <path
                 style="stroke:none"
                 d="m 7.578125,-6.921875 c 0,-0.03125 -0.015625,-0.109375 -0.109375,-0.109375 -0.03125,0 -0.046875,0.015625 -0.15625,0.125 L 6.625,-6.140625 C 6.53125,-6.28125 6.078125,-7.03125 4.96875,-7.03125 2.734375,-7.03125 0.5,-4.828125 0.5,-2.515625 0.5,-0.875 1.671875,0.21875 3.203125,0.21875 c 0.859375,0 1.625,-0.390625 2.15625,-0.859375 0.921875,-0.8125 1.09375,-1.71875 1.09375,-1.75 C 6.453125,-2.5 6.34375,-2.5 6.328125,-2.5 c -0.0625,0 -0.109375,0.03125 -0.125,0.109375 -0.09375,0.28125 -0.328125,1 -1.015625,1.578125 -0.6875,0.546875 -1.3125,0.71875 -1.828125,0.71875 -0.890625,0 -1.953125,-0.515625 -1.953125,-2.0625 0,-0.578125 0.203125,-2.1875 1.203125,-3.359375 0.609375,-0.703125 1.546875,-1.203125 2.4375,-1.203125 1.015625,0 1.609375,0.765625 1.609375,1.921875 0,0.40625 -0.03125,0.40625 -0.03125,0.515625 0,0.09375 0.109375,0.09375 0.140625,0.09375 0.125,0 0.125,-0.015625 0.1875,-0.203125 z m 0,0"
                 id="id-3d3627a6-4319-4732-b5b3-7bee1bb96e9e" />
            </symbol>
            <symbol
               overflow="visible"
               id="id-dd7f78a4-d4b1-4f80-912b-ad07ee2f42d1">
              <path
                 style="stroke:none"
                 d="M 3.734375,-6.03125 C 3.8125,-6.390625 3.84375,-6.5 4.78125,-6.5 c 0.296875,0 0.375,0 0.375,-0.1875 0,-0.125 -0.109375,-0.125 -0.15625,-0.125 -0.328125,0 -1.140625,0.03125 -1.46875,0.03125 -0.296875,0 -1.03125,-0.03125 -1.328125,-0.03125 -0.0625,0 -0.1875,0 -0.1875,0.203125 0,0.109375 0.09375,0.109375 0.28125,0.109375 0.015625,0 0.203125,0 0.375,0.015625 0.171875,0.03125 0.265625,0.03125 0.265625,0.171875 0,0.03125 0,0.0625 -0.03125,0.1875 L 1.5625,-0.78125 c -0.09375,0.390625 -0.109375,0.46875 -0.90625,0.46875 -0.171875,0 -0.265625,0 -0.265625,0.203125 C 0.390625,0 0.484375,0 0.65625,0 h 4.625 C 5.515625,0 5.515625,0 5.578125,-0.171875 L 6.375,-2.328125 c 0.03125,-0.109375 0.03125,-0.125 0.03125,-0.140625 0,-0.03125 -0.03125,-0.109375 -0.109375,-0.109375 -0.09375,0 -0.109375,0.0625 -0.171875,0.21875 -0.34375,0.90625 -0.78125,2.046875 -2.5,2.046875 H 2.6875 c -0.140625,0 -0.171875,0 -0.21875,0 -0.109375,-0.015625 -0.140625,-0.03125 -0.140625,-0.109375 0,-0.03125 0,-0.046875 0.046875,-0.21875 z m 0,0"
                 id="id-02d18b5a-3c3c-4326-bf7b-2c819b188b02" />
            </symbol>
            <symbol
               overflow="visible"
               id="id-c1f82e47-85e6-4347-bb84-bed225cb62f1">
              <path
                 style="stroke:none"
                 d="M 5.078125,-4.03125 C 5.0625,-4.0625 5.03125,-4.140625 5.03125,-4.171875 c 0,0 0.171875,-0.140625 0.28125,-0.21875 l 1.75,-1.34375 C 8,-6.4375 8.390625,-6.46875 8.6875,-6.5 8.765625,-6.515625 8.859375,-6.515625 8.859375,-6.703125 8.859375,-6.734375 8.828125,-6.8125 8.75,-6.8125 c -0.21875,0 -0.46875,0.03125 -0.703125,0.03125 -0.359375,0 -0.75,-0.03125 -1.109375,-0.03125 -0.0625,0 -0.1875,0 -0.1875,0.203125 0,0.0625 0.046875,0.09375 0.125,0.109375 0.21875,0.015625 0.296875,0.0625 0.296875,0.203125 0,0.1875 -0.296875,0.421875 -0.359375,0.46875 L 2.9375,-2.84375 3.734375,-6.046875 C 3.8125,-6.40625 3.84375,-6.5 4.5625,-6.5 c 0.25,0 0.34375,0 0.34375,-0.203125 0,-0.078125 -0.078125,-0.109375 -0.140625,-0.109375 -0.28125,0 -1,0.03125 -1.28125,0.03125 C 3.203125,-6.78125 2.5,-6.8125 2.203125,-6.8125 2.140625,-6.8125 2,-6.8125 2,-6.625 2,-6.5 2.09375,-6.5 2.296875,-6.5 c 0.125,0 0.3125,0.015625 0.421875,0.015625 0.15625,0.03125 0.21875,0.046875 0.21875,0.171875 0,0.03125 0,0.0625 -0.03125,0.1875 L 1.5625,-0.78125 c -0.09375,0.390625 -0.109375,0.46875 -0.90625,0.46875 -0.171875,0 -0.28125,0 -0.28125,0.1875 C 0.375,0 0.5,0 0.53125,0 0.8125,0 1.515625,-0.03125 1.796875,-0.03125 2,-0.03125 2.21875,-0.015625 2.4375,-0.015625 2.65625,-0.015625 2.875,0 3.078125,0 3.15625,0 3.28125,0 3.28125,-0.203125 3.28125,-0.3125 3.1875,-0.3125 3,-0.3125 c -0.375,0 -0.640625,0 -0.640625,-0.171875 0,-0.078125 0.046875,-0.296875 0.078125,-0.4375 C 2.578125,-1.453125 2.71875,-1.96875 2.84375,-2.5 l 1.484375,-1.15625 1.15625,2.6875 c 0.125,0.265625 0.125,0.296875 0.125,0.34375 0,0.3125 -0.4375,0.3125 -0.53125,0.3125 -0.109375,0 -0.21875,0 -0.21875,0.203125 C 4.859375,0 4.984375,0 5,0 5.40625,0 5.828125,-0.03125 6.21875,-0.03125 6.4375,-0.03125 6.984375,0 7.203125,0 7.25,0 7.375,0 7.375,-0.203125 7.375,-0.3125 7.265625,-0.3125 7.171875,-0.3125 c -0.40625,0 -0.53125,-0.09375 -0.6875,-0.4375 z m 0,0"
                 id="id-69b363db-6cd7-4cae-be7f-508bf03f1404" />
            </symbol>
          </g>
        </defs>
        <g
           id="id-7625df68-06b4-45b6-bec5-d79fca86664e"
           transform="translate(-149.212,-127.734)">
          <g
             style="fill:#000000;fill-opacity:1"
             id="id-4df2bf80-8f37-4482-830d-caea47f0f261">
            <g
               transform="translate(148.712,134.765)"
               id="g1023">
              <path
                 style="stroke:none"
                 d="m 7.578125,-6.921875 c 0,-0.03125 -0.015625,-0.109375 -0.109375,-0.109375 -0.03125,0 -0.046875,0.015625 -0.15625,0.125 L 6.625,-6.140625 C 6.53125,-6.28125 6.078125,-7.03125 4.96875,-7.03125 2.734375,-7.03125 0.5,-4.828125 0.5,-2.515625 0.5,-0.875 1.671875,0.21875 3.203125,0.21875 c 0.859375,0 1.625,-0.390625 2.15625,-0.859375 0.921875,-0.8125 1.09375,-1.71875 1.09375,-1.75 C 6.453125,-2.5 6.34375,-2.5 6.328125,-2.5 c -0.0625,0 -0.109375,0.03125 -0.125,0.109375 -0.09375,0.28125 -0.328125,1 -1.015625,1.578125 -0.6875,0.546875 -1.3125,0.71875 -1.828125,0.71875 -0.890625,0 -1.953125,-0.515625 -1.953125,-2.0625 0,-0.578125 0.203125,-2.1875 1.203125,-3.359375 0.609375,-0.703125 1.546875,-1.203125 2.4375,-1.203125 1.015625,0 1.609375,0.765625 1.609375,1.921875 0,0.40625 -0.03125,0.40625 -0.03125,0.515625 0,0.09375 0.109375,0.09375 0.140625,0.09375 0.125,0 0.125,-0.015625 0.1875,-0.203125 z m 0,0"
                 id="id-8f9ae597-e20c-49fe-a0d7-661c272d2e44" />
            </g>
          </g>
          <g
             style="fill:#000000;fill-opacity:1"
             id="id-dd182cbe-e218-4bb1-a9f3-c20e3518d75e">
            <g
               transform="translate(156.55,134.765)"
               id="g1027">
              <path
                 style="stroke:none"
                 d="M 3.734375,-6.03125 C 3.8125,-6.390625 3.84375,-6.5 4.78125,-6.5 c 0.296875,0 0.375,0 0.375,-0.1875 0,-0.125 -0.109375,-0.125 -0.15625,-0.125 -0.328125,0 -1.140625,0.03125 -1.46875,0.03125 -0.296875,0 -1.03125,-0.03125 -1.328125,-0.03125 -0.0625,0 -0.1875,0 -0.1875,0.203125 0,0.109375 0.09375,0.109375 0.28125,0.109375 0.015625,0 0.203125,0 0.375,0.015625 0.171875,0.03125 0.265625,0.03125 0.265625,0.171875 0,0.03125 0,0.0625 -0.03125,0.1875 L 1.5625,-0.78125 c -0.09375,0.390625 -0.109375,0.46875 -0.90625,0.46875 -0.171875,0 -0.265625,0 -0.265625,0.203125 C 0.390625,0 0.484375,0 0.65625,0 h 4.625 C 5.515625,0 5.515625,0 5.578125,-0.171875 L 6.375,-2.328125 c 0.03125,-0.109375 0.03125,-0.125 0.03125,-0.140625 0,-0.03125 -0.03125,-0.109375 -0.109375,-0.109375 -0.09375,0 -0.109375,0.0625 -0.171875,0.21875 -0.34375,0.90625 -0.78125,2.046875 -2.5,2.046875 H 2.6875 c -0.140625,0 -0.171875,0 -0.21875,0 -0.109375,-0.015625 -0.140625,-0.03125 -0.140625,-0.109375 0,-0.03125 0,-0.046875 0.046875,-0.21875 z m 0,0"
                 id="id-a1a8016a-e977-4188-aab4-4d5f1d9da5f4" />
            </g>
            <g
               transform="translate(163.33,134.765)"
               id="g1030">
              <path
                 style="stroke:none"
                 d="M 5.078125,-4.03125 C 5.0625,-4.0625 5.03125,-4.140625 5.03125,-4.171875 c 0,0 0.171875,-0.140625 0.28125,-0.21875 l 1.75,-1.34375 C 8,-6.4375 8.390625,-6.46875 8.6875,-6.5 8.765625,-6.515625 8.859375,-6.515625 8.859375,-6.703125 8.859375,-6.734375 8.828125,-6.8125 8.75,-6.8125 c -0.21875,0 -0.46875,0.03125 -0.703125,0.03125 -0.359375,0 -0.75,-0.03125 -1.109375,-0.03125 -0.0625,0 -0.1875,0 -0.1875,0.203125 0,0.0625 0.046875,0.09375 0.125,0.109375 0.21875,0.015625 0.296875,0.0625 0.296875,0.203125 0,0.1875 -0.296875,0.421875 -0.359375,0.46875 L 2.9375,-2.84375 3.734375,-6.046875 C 3.8125,-6.40625 3.84375,-6.5 4.5625,-6.5 c 0.25,0 0.34375,0 0.34375,-0.203125 0,-0.078125 -0.078125,-0.109375 -0.140625,-0.109375 -0.28125,0 -1,0.03125 -1.28125,0.03125 C 3.203125,-6.78125 2.5,-6.8125 2.203125,-6.8125 2.140625,-6.8125 2,-6.8125 2,-6.625 2,-6.5 2.09375,-6.5 2.296875,-6.5 c 0.125,0 0.3125,0.015625 0.421875,0.015625 0.15625,0.03125 0.21875,0.046875 0.21875,0.171875 0,0.03125 0,0.0625 -0.03125,0.1875 L 1.5625,-0.78125 c -0.09375,0.390625 -0.109375,0.46875 -0.90625,0.46875 -0.171875,0 -0.28125,0 -0.28125,0.1875 C 0.375,0 0.5,0 0.53125,0 0.8125,0 1.515625,-0.03125 1.796875,-0.03125 2,-0.03125 2.21875,-0.015625 2.4375,-0.015625 2.65625,-0.015625 2.875,0 3.078125,0 3.15625,0 3.28125,0 3.28125,-0.203125 3.28125,-0.3125 3.1875,-0.3125 3,-0.3125 c -0.375,0 -0.640625,0 -0.640625,-0.171875 0,-0.078125 0.046875,-0.296875 0.078125,-0.4375 C 2.578125,-1.453125 2.71875,-1.96875 2.84375,-2.5 l 1.484375,-1.15625 1.15625,2.6875 c 0.125,0.265625 0.125,0.296875 0.125,0.34375 0,0.3125 -0.4375,0.3125 -0.53125,0.3125 -0.109375,0 -0.21875,0 -0.21875,0.203125 C 4.859375,0 4.984375,0 5,0 5.40625,0 5.828125,-0.03125 6.21875,-0.03125 6.4375,-0.03125 6.984375,0 7.203125,0 7.25,0 7.375,0 7.375,-0.203125 7.375,-0.3125 7.265625,-0.3125 7.171875,-0.3125 c -0.40625,0 -0.53125,-0.09375 -0.6875,-0.4375 z m 0,0"
                 id="id-fe19f371-26b2-4910-a4c9-33c28c087967" />
            </g>
          </g>
        </g>
      </g>
    </g>
  </g>
  <text
     xml:space="preserve"
     style="font-style:normal;font-variant:normal;font-weight:normal;font-stretch:normal;font-size:12px;line-height:0%;font-family:Verdana;-inkscape-font-specification:Verdana;text-align:end;letter-spacing:0px;word-spacing:0px;writing-mode:lr-tb;text-anchor:end;fill:#000000;fill-opacity:1;stroke:none;stroke-width:1px;stroke-linecap:butt;stroke-linejoin:miter;stroke-opacity:1"
     x="440.625"
     y="481.875"
     id="text5154-36"
     inkscape:export-xdpi="331.20013"
     inkscape:export-ydpi="331.20013"><tspan
       sodipodi:role="line"
       id="tspan5156-7"
       x="440.625"
       y="481.875"
       style="font-size:6.25px;line-height:1;stroke-width:1px">(digital)</tspan></text>
</svg>
